<svg width="60" height="60" xmlns="http://www.w3.org/2000/svg"><g fill="none" fill-rule="evenodd"><path d="M36.311 20.969l18.874 34.16a1.875 1.875 0 0 1-1.64 2.781h-36.67a1.875 1.875 0 0 1-1.663-2.741l17.795-34.16a1.875 1.875 0 0 1 3.304-.04z" fill-opacity=".3" fill="#8DE2E0"/><path d="M35.735 3.573l23.683 48.245A5.677 5.677 0 0 1 54.32 60H5.681a5.678 5.678 0 0 1-5.1-8.181L24.266 3.573a6.39 6.39 0 0 1 11.47 0zm-2.922 44.24a2.812 2.812 0 1 1-5.625 0 2.812 2.812 0 0 1 5.625 0zm-.938-8.438a1.875 1.875 0 0 1-3.75 0v-18.75a1.875 1.875 0 0 1 3.75 0v18.75zM30 3.751a2.64 2.64 0 0 0-2.37 1.475L3.949 53.472A1.928 1.928 0 0 0 5.68 56.25h48.641a1.928 1.928 0 0 0 1.73-2.779L32.37 5.226A2.64 2.64 0 0 0 30 3.751z" fill="#323232" fill-rule="nonzero"/></g></svg>