<svg width="24" height="24" xmlns="http://www.w3.org/2000/svg"><path d="M13.525 15.625h6.19a.75.75 0 0 1 0 1.5h-6.19c-.334 1.5-1.655 2.625-3.238 2.625s-2.904-1.124-3.24-2.625h-2.76a.75.75 0 1 1 0-1.5h2.76c.336-1.5 1.656-2.624 3.238-2.625.885 0 1.732.358 2.355.993a3.39 3.39 0 0 1 .885 1.632zm.38-7.25H4.287a.75.75 0 0 1 0-1.5h9.618c.335-1.501 1.656-2.625 3.24-2.625 1.837 0 3.32 1.515 3.32 3.375S18.981 11 17.143 11c-1.583 0-2.903-1.125-3.238-2.625zm3.24-2.625c-1.003 0-1.822.836-1.822 1.874 0 1.04.818 1.876 1.82 1.876 1.003 0 1.822-.836 1.822-1.875 0-1.039-.818-1.875-1.82-1.875zm-5.576 9.293a1.795 1.795 0 0 0-1.283-.543c-1.002 0-1.82.837-1.82 1.876 0 1.038.819 1.874 1.821 1.874s1.821-.836 1.821-1.875c0-.5-.194-.98-.539-1.332z"/></svg>