<svg width="24" height="24" xmlns="http://www.w3.org/2000/svg"><path d="M.125 12.008c0-6.54 5.321-11.86 11.862-11.86s11.861 5.32 11.861 11.862c0 6.54-5.321 11.86-11.862 11.86C5.447 23.87.125 18.55.125 12.009zM19.27 18.38c.012.013.024.013.037.013.025 0 .037 0 .062-.025a.075.075 0 0 0 0-.099 14.986 14.986 0 0 0-5.28-3.59l-.617-.246a.863.863 0 0 1-.53-.802c.037-1.32 3.145-1.049 3.466-1.678l.05-.11a5.76 5.76 0 0 0-2.233-1.197c-.013.037-.037.185.135.469.186.296-.197.777-.765.258l-.048-.036c-4.12-3.775-6.02-1.283-8.82-5.675-.025-.037-.062-.05-.099-.025-.037.025-.05.062-.037.1 2.208 5.316 6.723 4.194 7.254 9.152.024.186.16.334.345.358a15.005 15.005 0 0 1 7.068 3.133h.012z"/></svg>