<svg width="24" height="24" xmlns="http://www.w3.org/2000/svg"><path d="M.774 11.966c0-6.22 5.042-11.26 11.26-11.26 6.22 0 11.26 5.04 11.26 11.26 0 6.218-5.04 11.26-11.26 11.26-1.79 0-3.533-.421-5.111-1.227L.09 23.829l1.845-6.886a11.21 11.21 0 0 1-1.16-4.977zm1.274 9.906l5.045-1.352.242.131a9.828 9.828 0 0 0 4.7 1.19c5.453 0 9.875-4.421 9.875-9.875S17.488 2.09 12.034 2.09 2.16 6.512 2.16 11.966c0 1.606.386 3.168 1.126 4.578l.126.24-1.363 5.088zm12.76-9.906h1.86c0 2.594-2.312 4.65-5.114 4.65s-5.115-2.056-5.115-4.65H8.3c0 1.514 1.435 2.79 3.255 2.79 1.82 0 3.255-1.276 3.255-2.79z" fill="#323232" fill-rule="nonzero"/></svg>
