<svg baseProfile="tiny" xmlns="http://www.w3.org/2000/svg" viewBox="0 0 670.5 108.4"><path fill="#EECA6E" d="M22.9 24.1c28.3-3 70.1 1.7 65.5 63.3l15-1.2c-6.6-43.1 15.8-62.5 58.9-64.7-74.8-41.3-139.4 2.6-139.4 2.6"/><path d="M95.5 105L69.3 65.6h52.6z"/><path fill="#FFF" d="M102.7 76.4c7.8 21.2 31.4 32.1 52.6 24.2 21.2-7.8 32.1-31.4 24.2-52.6-7.8-21.2-31.4-32.1-52.6-24.2-21.2 7.8-32 31.4-24.2 52.6"/><path d="M125.3 19.5c-11.4 4.2-20.5 12.6-25.6 23.7-2.8 6.1-4.2 12.5-4.2 19 0 5.3.9 10.7 2.9 15.8 4.2 11.4 12.6 20.5 23.7 25.6 11.1 5.1 23.4 5.6 34.8 1.4 23.6-8.7 35.6-35 26.9-58.5-8.7-23.6-34.9-35.7-58.5-27m.6 75.7c-8.8-4.1-15.5-11.3-18.9-20.4-3.4-9.1-3-19 1.1-27.8s11.3-15.5 20.4-18.9c18.8-6.9 39.7 2.7 46.7 21.5 6.9 18.8-2.7 39.7-21.5 46.7-9.1 3.4-19 3-27.8-1.1M98.4 78z"/><path fill="#FFF" d="M91.3 62c0 22.7-18.3 41-40.9 41-22.7 0-41-18.3-41-41 0-22.6 18.3-40.9 40.9-40.9 22.7 0 41 18.3 41 40.9"/><path d="M4.8 62c0 25.1 20.4 45.5 45.5 45.5S95.8 87.1 95.8 62 75.4 16.5 50.3 16.5 4.8 36.9 4.8 62m9.2 0c0-20 16.3-36.4 36.4-36.4 20 0 36.3 16.3 36.3 36.4 0 20-16.3 36.3-36.3 36.3C30.3 98.4 14 82.1 14 62"/><path fill="#A52522" d="M57.3 61.6c0 4.2-3.4 7.6-7.6 7.6-4.2 0-7.6-3.4-7.6-7.6 0-4.2 3.4-7.6 7.6-7.6 4.2.1 7.6 3.5 7.6 7.6"/><path fill="#589442" d="M148.6 61.6c0 4.2-3.4 7.6-7.6 7.6-4.2 0-7.6-3.4-7.6-7.6 0-4.2 3.4-7.6 7.6-7.6 4.2.1 7.6 3.5 7.6 7.6"/><path d="M27.3 61.6c0 12.4 10.1 22.5 22.5 22.5S72.3 74 72.3 61.6 62.2 39.1 49.8 39.1c-12.4.1-22.5 10.1-22.5 22.5m7.7 0c0-8.1 6.6-14.7 14.8-14.7 8.1 0 14.7 6.6 14.7 14.7s-6.6 14.7-14.7 14.7c-8.1.1-14.8-6.5-14.8-14.7m83.5 0c0 12.4 10.1 22.5 22.5 22.5s22.5-10.1 22.5-22.5-10.1-22.5-22.5-22.5c-12.4.1-22.5 10.1-22.5 22.5m7.8 0c0-8.1 6.6-14.7 14.8-14.7 8.1 0 14.7 6.6 14.7 14.7s-6.6 14.7-14.7 14.7c-8.2.1-14.8-6.5-14.8-14.7M19.5 28.2l5.6 5.6C41.8 17.1 66.8 7.9 95.5 7.9c26 0 47.9 7.4 65.3 22.1l5.1-6.1C147.4 8.3 123 0 95.5 0c-30.8 0-57.8 10-76 28.2"/><path d="M177.1 41.8c-1.2-10.7 9.5-25 9.5-25h-31.1l21.6 25zM14.3 42c1.2-10.7-9.5-25-9.5-25h31.1L14.3 42zm207-16.6l-8.9 3.1V40h-9.8v7.8h9.6v25c0 11.9 4 16.7 14 16.7 2.5 0 4.9-.3 7.3-1l.4-.1-.1-8-.7.2c-1.9.7-3.5 1-4.7 1-4.7 0-6.4-2.6-6.4-9.7V47.8h11.4V40H222V25.2l-.7.2zM252 47.9V40h-9v48.6h9.8V64.2c0-10.2 4.3-15.9 12.1-15.9 1.1 0 2.2.2 3.6.5l.6.2.3-9.6-4.2-.3c-5.7.1-10.3 3.2-13.2 8.8m70.4-9c-6.8 0-12.4 3.2-16.2 9V40h-9v68.4h9.9V81.9c3.6 4.8 8.7 7.5 15 7.5 12.5 0 20.5-10.2 20.5-26-.1-14.7-8.2-24.5-20.2-24.5m-2.8 42.5c-7.8 0-12.6-6.7-12.6-17.4 0-10.3 5.1-17 13-17 7.6 0 12.2 6.3 12.2 16.9 0 10.8-4.9 17.5-12.6 17.5"/><path fill="#589442" d="M371.3 38.9c-6 0-11.3 1.1-16.1 3.5l-.3.1.1 8.4.8-.4c4.6-2.6 9-3.9 13-3.9 7.1 0 11.2 4.1 11.2 11.2v.4h-5.6c-16.2 0-25.1 5.9-25.1 16.5 0 8.6 6.4 14.5 15.7 14.5 6.8 0 12-2.7 15.8-7.7v7h8.9V59.2c-.2-13.5-6.3-20.3-18.4-20.3m8.6 29.2c0 8.4-5 13.8-12.8 13.8-4.8 0-8.1-3.1-8.1-7.6 0-5.9 5.6-9.1 15.9-9.1h5.1v2.9zm51.5-51.3v29.8c-3.6-5.1-8.7-7.7-15.2-7.7-12 0-20.1 9.9-20.1 24.7 0 15.2 8.2 25.8 19.9 25.8 7 0 12.4-3.1 16.1-9.1v8.3h9.1V16.8h-9.8zm-12.9 64.4c-7.5 0-12.2-6.5-12.2-17.1 0-10.6 4.7-17.4 12-17.4 8.2 0 13 6.5 13 17.4.1 10.4-5 17.1-12.8 17.1M485.2 40l-13.9 28.1-13-28.1h-11.1l23.9 48.6L495.5 40zm24.7 0h-9.4v48.6h9.9V40zm12 12.5c0 6.8 4.7 10.4 13.4 14.7 5.5 2.7 8.3 4.3 8.3 8.1 0 3.9-3.5 6.4-8.9 6.4-3.9 0-8.1-1.1-12.4-3.2l-.7-.4-.3 8.6.3.1c4 1.6 8.3 2.4 12.7 2.4 12.1 0 19.8-5.7 19.8-14.6 0-7.4-4.9-11.2-13.5-15.2-6.3-2.9-8.9-4.7-8.9-7.8 0-3 2.9-4.9 7.4-4.9 4.1 0 8 .9 11.8 2.7l.7.3.4-8.4-.4-.1c-4.1-1.2-8.1-1.8-12-1.8-10.5.1-17.7 5.3-17.7 13.1m63-13.6c-14.8 0-24 9.7-24 25.4s9.2 25.4 24 25.4c14.9 0 24.1-9.7 24.1-25.4s-9.3-25.4-24.1-25.4m.1 42.8c-8.2 0-13.7-7-13.7-17.5s5.5-17.6 13.7-17.6c8.3 0 13.7 6.9 13.7 17.6 0 10.7-5.4 17.5-13.7 17.5m42.2-33.8V40h-9v48.6h9.9V64.2c0-10.2 4.3-15.9 12.1-15.9 1.1 0 2.2.2 3.5.5l.6.2.3-9.6-4.2-.3c-5.7.1-10.4 3.2-13.2 8.8"/><path fill="#3B8F42" d="M499.6 25.8c0 3.2 2.6 5.9 5.9 5.9 3.2 0 5.9-2.6 5.9-5.9 0-3.2-2.6-5.9-5.9-5.9-3.3 0-5.9 2.7-5.9 5.9"/><path d="M287 40h-9.3v48.6h9.9V40zm-10.2-14.2c0 3.2 2.6 5.9 5.9 5.9 3.2 0 5.9-2.6 5.9-5.9 0-3.2-2.6-5.9-5.9-5.9-3.3 0-5.9 2.7-5.9 5.9"/><path fill="#589442" d="M668.1 37.9c1.6 1.6 2.5 3.8 2.5 6.1 0 2.4-.9 4.6-2.6 6.3-1.7 1.7-3.9 2.6-6.2 2.6-2.4 0-4.6-.9-6.3-2.7-1.6-1.7-2.5-3.8-2.5-6.1s.9-4.6 2.7-6.3c1.6-1.6 3.7-2.5 6.1-2.5 2.4-.1 4.6.9 6.3 2.6m-11.4 1c-1.4 1.4-2.2 3.3-2.2 5.2 0 1.9.7 3.6 2.1 5 1.4 1.4 3.2 2.2 5.1 2.2 1.9 0 3.7-.7 5.1-2.1 1.4-1.3 2.1-3.1 2.1-5.1 0-1.9-.7-3.7-2-5-1.4-1.4-3.2-2.2-5.2-2.2-1.9-.1-3.6.6-5 2m5.2.1c2.8 0 4.2 1 4.2 2.8 0 1.3-.8 2.2-2.1 2.6l2.1 4.2h-2.9l-1.8-3.8h-.8v3.8H658V39h3.9zm-1.2 4.3h.9c1.2 0 1.7-.4 1.7-1.3s-.6-1.3-1.9-1.3h-.8v2.6z"/></svg>