<svg width="56" height="33" xmlns="http://www.w3.org/2000/svg"><g fill="none" fill-rule="evenodd"><path d="M13.966 5.24c3.986-1.73 8.937-2.663 13.916-2.663 4.985 0 9.504.936 13.495 2.673-7.493.228-13.497 6.346-13.498 13.865C27.877 11.459 21.65 5.25 13.966 5.24" fill="#FEDE9D"/><path d="M13.966 5.24c3.986-1.73 8.937-2.663 13.916-2.663 4.985 0 9.504.936 13.495 2.673-7.493.228-13.497 6.346-13.498 13.865C27.877 11.459 21.65 5.25 13.966 5.24z" stroke="#FEDE9D"/><path d="M13.546 16.82a2.268 2.268 0 0 0-2.273 2.264 2.268 2.268 0 0 0 2.273 2.265 2.268 2.268 0 0 0 2.273-2.265 2.268 2.268 0 0 0-2.273-2.264" fill="#EC2227"/><path d="M41.571 16.788a2.269 2.269 0 0 0-2.274 2.266 2.269 2.269 0 0 0 2.274 2.265 2.267 2.267 0 0 0 2.272-2.265 2.267 2.267 0 0 0-2.272-2.266" fill="#06A64E"/><path d="M41.918 23.722c-2.588 0-4.687-2.09-4.687-4.669 0-2.579 2.099-4.67 4.687-4.67 2.587 0 4.686 2.091 4.686 4.67 0 2.579-2.099 4.669-4.686 4.669m0-11.406c-3.736 0-6.763 3.016-6.763 6.737 0 3.72 3.027 6.738 6.763 6.738 3.734 0 6.762-3.018 6.762-6.738 0-3.721-3.028-6.737-6.762-6.737m.004 17.977c-6.196 0-11.218-5.003-11.218-11.175 0-6.17 5.022-11.173 11.218-11.173 6.195 0 11.216 5.003 11.216 11.173 0 6.172-5.021 11.175-11.216 11.175M14.076 5.24c3.987-1.73 8.937-2.663 13.915-2.663 4.987 0 9.505.937 13.497 2.673-7.493.228-13.498 6.346-13.5 13.865 0-7.656-6.228-13.865-13.911-13.875m-.021 25.053c-6.195 0-11.218-5.003-11.218-11.175 0-6.17 5.023-11.173 11.218-11.173s11.218 5.003 11.218 11.173c0 6.172-5.023 11.175-11.218 11.175m41.92-24.86h-9.311C41.914 2.25 35.429.261 27.99.261c-7.44 0-14.37 1.987-19.12 5.172H0C1.447 7.12 2.517 9.4 2.784 10.967a13.766 13.766 0 0 0-2.663 8.15C.121 26.786 6.36 33 14.055 33c4.366 0 8.262-2.004 10.817-5.135 1.042 1.213 2.767 3.653 3.117 4.361 0 0 2-2.977 3.125-4.349A13.927 13.927 0 0 0 41.922 33c7.695 0 13.934-6.215 13.934-13.882 0-3.046-.992-5.858-2.663-8.146.265-1.567 1.335-3.85 2.783-5.539m-42.083 18.32c-2.588 0-4.686-2.09-4.686-4.669 0-2.579 2.098-4.669 4.686-4.669 2.589 0 4.687 2.09 4.687 4.67 0 2.577-2.098 4.667-4.687 4.667m0-11.405c-3.735 0-6.763 3.017-6.763 6.737 0 3.723 3.028 6.737 6.763 6.737 3.736 0 6.764-3.014 6.764-6.737 0-3.72-3.028-6.737-6.764-6.737" fill="#030404" mask="url(#mask-2)"/></g></svg>