<svg xmlns="http://www.w3.org/2000/svg" width="24" height="24" viewBox="0 0 24 24"><title>  Inclusions&#x2F;ic_minibar</title><defs><path d="M14.7 0.2L16.1 0.2C17.2 0.2 18 1 18.1 2L18.1 2.2 18.1 18.2C18.1 19.2 17.3 20.1 16.3 20.2L16.1 20.2 14.7 20.2 14.7 0.2ZM2.1 0.1L13.7 0.1 13.7 2.1 2.1 2.1 2.1 18.2 13.7 18.2 13.7 20.1 2.1 20.1C1.1 20.1 0.2 19.3 0.1 18.3L0.1 18.1 0.1 2.1C0.1 1 1 0.1 2.1 0.1ZM12.1 4.6L12.1 5.5 11.9 5.5 11.9 9C12.7 9.1 13 9.6 13 10.1L13 10.2 13 16.9C13 17 13 17.1 12.9 17.2 12.8 17.3 12.7 17.3 12.7 17.3L12.6 17.3 9.2 17.3C9 17.3 8.8 17.2 8.8 17L8.8 16.9 8.8 10.2C8.8 9.7 9 9.1 9.8 9.1L10 9 10 5.5 9.7 5.5 9.7 4.6 12.1 4.6ZM6.4 6.1L6.4 8C6.5 8.2 7.6 11.3 7.7 13.5L7.7 13.7 7.7 16.9C7.7 17.1 7.5 17.3 7.3 17.3L7.3 17.3 4.2 17.3C4 17.3 3.8 17.2 3.8 17L3.8 16.9 3.8 13.7C3.8 11.6 5 8.2 5.1 8L5.1 8 5.1 6.1 6.4 6.1ZM19.7 7.1C20.2 7.1 20.7 7.6 20.7 8.1L20.7 12.1C20.7 12.7 20.2 13.1 19.7 13.1 19.1 13.1 18.7 12.7 18.7 12.1L18.7 8.1C18.7 7.6 19.1 7.1 19.7 7.1Z"/></defs><g fill="none"><polygon points="0 0 24 0 24 24 0 24"/><g transform="translate(1.879549 1.88221)"><mask fill="white"><use xlink:href="#path-1"/></mask><use xlink:href="#path-1"/><g mask="url(#mask-2)"><rect x="-1.9" y="-1.9" width="48" height="24"/></g></g></g></svg>
