<svg width="224" height="30" xmlns="http://www.w3.org/2000/svg"><defs><linearGradient x1="63.358%" y1="99.626%" x2="14.731%" y2="-.283%" id="a"><stop stop-color="#BE0000" offset="0%"/><stop stop-color="#DE0000" offset="38.98%"/><stop stop-color="#F60000" offset="76.8%"/><stop stop-color="red" offset="100%"/></linearGradient><linearGradient x1="54.909%" y1="50%" x2="54.909%" y2="8.016%" id="b"><stop stop-color="#FFF" stop-opacity="0" offset="0%"/><stop stop-color="#E0E0E0" stop-opacity=".262" offset="51.203%"/><stop stop-color="#C5C5C5" stop-opacity=".549" offset="66.549%"/><stop stop-color="#B5B5B5" stop-opacity=".805" offset="82.415%"/><stop stop-color="#AFAFAF" offset="100%"/></linearGradient><linearGradient x1=".039%" y1="50.172%" x2="90.048%" y2="50.172%" id="c"><stop stop-color="#FFF" stop-opacity="0" offset="0%"/><stop stop-color="#F1F1F1" stop-opacity=".093" offset="8.391%"/><stop stop-color="#D4D4D4" stop-opacity=".325" offset="24.826%"/><stop stop-color="silver" stop-opacity=".555" offset="44.531%"/><stop stop-color="#B3B3B3" stop-opacity=".781" offset="70.32%"/><stop stop-color="#AFAFAF" offset="100%"/></linearGradient><linearGradient x1="24.956%" y1="49.876%" x2="99.854%" y2="49.876%" id="d"><stop stop-color="#FFF" stop-opacity="0" offset="0%"/><stop stop-color="#EDEDED" stop-opacity=".282" offset="28.583%"/><stop stop-color="#BDBDBD" stop-opacity=".848" offset="88.6%"/><stop stop-color="#AFAFAF" offset="100%"/></linearGradient></defs><g fill="none" fill-rule="evenodd"><path d="M42 30L17.453 5.23C14.187 1.95 9.747 0 5.13 0H0l.383 1 1.71 4.487L11.38 30H42z" fill="url(#a)"/><path d="M15.202 20.684c.05.357.331.664.688.715a30.134 30.134 0 0 1 14.284 6.325c.025.025.05.025.102.025a.193.193 0 0 0 .102-.05.155.155 0 0 0 0-.205 30.443 30.443 0 0 0-10.662-7.243l-1.25-.51a1.73 1.73 0 0 1-1.07-1.607c.076-2.653 6.35-2.117 6.988-3.392l.102-.23a11.868 11.868 0 0 0-4.515-2.397c-.025.076-.05.382.281.943.383.613-.408 1.582-1.556.536l-.102-.077C10.126 5.713 3.75 9.754.384 1.007l1.707 4.46c3.342 5.713 12.141 6.316 13.11 15.217z" fill="#FFF"/><path d="M19.865 12.153a.685.685 0 0 1 .023.663.655.655 0 0 1-.605.35v2.086c.918-.255 1.964-.434 2.831-.612v-1.173s-1.407.089-2.249-1.314z" fill="url(#b)" transform="translate(.382 .892)"/><path d="M16.528 20.685a30.19 30.19 0 0 1 13.238 6.12c-8.902-7.574-12.932-6.222-13.238-6.12z" fill="url(#c)" transform="translate(.382 .892)"/><path d="M0 .128L1.709 4.59c3.341 5.713 12.141 6.325 13.11 15.226-.995-11.375-5.968-9.691-11.325-14.844C2.117 3.98.944 2.551 0 .128z" fill="url(#d)" transform="translate(.382 .892)"/><g fill="#323232"><path d="M44.916 24.283c-5.98 0-9.79-3.137-9.79-7.09 0-4.005 4.012-7.091 9.966-7.091 5.93 0 9.966 3.086 9.966 6.937 0 1.71-.756 3.138-2.195 4.31h3.533l-.833 1.455c-.53.918-1.186 1.479-2.599 1.479h-8.048zm.151-3.214c3.255 0 6.03-1.632 6.03-3.877 0-2.244-2.75-3.876-6.03-3.876-3.255 0-6.03 1.632-6.03 3.876 0 2.245 2.775 3.877 6.03 3.877zM61.644 21.885l-1.338 2.398h-3.91l6.534-11.426c.505-.893 1.262-1.607 2.725-1.607h1.464c1.488 0 2.22.688 2.725 1.607l6.535 11.426h-3.987l-1.337-2.398h-9.411zm7.821-2.856l-2.901-5.203c-.076-.128-.126-.153-.227-.153s-.152.025-.227.153l-2.877 5.203h6.232zM94.999 24.283h-3.482l-10.244-8.646v8.646h-3.482V11.25h2.196c1.11 0 1.69.306 2.32.841l9.235 7.78V11.25H95v13.033zM107.412 24.283h-3.481v-10.1h-7.166V11.25h17.788v2.933h-7.14zM116.748 21.885l-1.337 2.398H111.5l6.535-11.426c.504-.893 1.261-1.607 2.724-1.607h1.464c1.489 0 2.22.688 2.725 1.607l6.535 11.426h-3.987l-1.312-2.398h-9.436zm1.615-2.856h6.232l-2.902-5.203c-.076-.128-.126-.153-.227-.153s-.151.025-.227.153l-2.876 5.203zM132.39 23.237l.884-2.83c2.523.815 5.198 1.147 7.62 1.147 3.96 0 4.945-.46 4.945-.97 0-.203-.126-.356-.454-.458-.404-.128-1.489-.358-4.744-.893-3.582-.587-5.222-.893-6.408-1.454-1.186-.561-1.918-1.454-1.918-2.755 0-.994.48-1.785 1.262-2.422 1.387-1.072 3.734-1.505 6.282-1.505 3.305 0 6.08.28 9.159 1.045l.278.077-.732 2.754c-3.432-.74-5.35-.943-7.973-.994-1.842-.026-3.103.127-3.785.331-.378.128-.53.306-.53.51 0 .204.127.358.505.485.404.128 1.085.306 4.617.867 3.81.638 5.072.893 6.131 1.301 1.439.561 2.296 1.581 2.296 2.857 0 1.606-1.236 2.805-3.38 3.468-1.313.408-3.104.638-5.097.638-3.154.025-6.484-.383-8.63-1.097l-.327-.102z"/></g><path d="M164.96 19.82v-1.24h3.88v2.64c0 2.46-1.7 3.98-4.22 3.98-2.54 0-4.32-1.62-4.32-4.2v-5.14c0-2.58 1.72-4.2 4.32-4.2 2.52 0 4.22 1.44 4.22 3.78v.3h-1.46v-.34c0-1.36-.98-2.36-2.76-2.36-1.78 0-2.8 1.18-2.8 2.78v5.22c0 1.6 1.02 2.78 2.8 2.78 1.8 0 2.8-1.08 2.8-2.56v-1.44h-2.46zM182.428 25h-1.66l-2.28-5.2c-.24.02-.36.02-.54.02h-2.44V25h-1.52V11.86h4.04c2.56 0 4.42 1.54 4.42 3.92 0 1.76-.96 3.08-2.44 3.66l2.42 5.56zm-4.52-11.8h-2.4v5.3h2.4c1.84 0 2.98-1.08 2.98-2.7 0-1.58-1.14-2.6-2.98-2.6zm17.807 2.66V21c0 2.58-1.76 4.2-4.32 4.2-2.56 0-4.32-1.62-4.32-4.2v-5.14c0-2.58 1.68-4.2 4.32-4.2 2.56 0 4.32 1.62 4.32 4.2zm-7.12-.04v5.22c0 1.6 1.02 2.78 2.8 2.78 1.78 0 2.78-1.18 2.78-2.78v-5.22c0-1.6-1-2.78-2.78-2.78-1.78 0-2.8 1.18-2.8 2.78zm19.228-3.96h1.52V21c0 2.58-1.72 4.2-4.24 4.2-2.5 0-4.22-1.62-4.22-4.2v-9.14h1.52v9.18c0 1.6.98 2.78 2.7 2.78 1.74 0 2.72-1.18 2.72-2.78v-9.18zM214.871 25V11.86h4.02c2.58 0 4.44 1.64 4.44 4.18 0 2.58-1.86 4.26-4.44 4.26h-2.5V25h-1.52zm3.92-11.8h-2.4v5.76h2.4c1.84 0 2.98-1.16 2.98-2.9s-1.14-2.86-2.98-2.86z" fill="#323232"/></g></svg>