<svg width="462" height="120" viewBox="0 0 462 120" xmlns="http://www.w3.org/2000/svg"><defs><linearGradient x1="63.359%" y1="99.612%" x2="14.743%" y2="-.29%" id="a"><stop stop-color="#BE0000" offset="0%"/><stop stop-color="#DE0000" offset="38.98%"/><stop stop-color="#F60000" offset="76.8%"/><stop stop-color="red" offset="100%"/></linearGradient><linearGradient x1="50.031%" y1="49.577%" x2="50.031%" y2="7.888%" id="b"><stop stop-color="#FFF" stop-opacity="0" offset="0%"/><stop stop-color="#E0E0E0" stop-opacity=".262" offset="51.2%"/><stop stop-color="#C5C5C5" stop-opacity=".549" offset="66.55%"/><stop stop-color="#B5B5B5" stop-opacity=".805" offset="82.41%"/><stop stop-color="#AFAFAF" offset="100%"/></linearGradient><linearGradient x1=".062%" y1="50.257%" x2="90.142%" y2="50.257%" id="c"><stop stop-color="#FFF" stop-opacity="0" offset="0%"/><stop stop-color="#F1F1F1" stop-opacity=".093" offset="8.391%"/><stop stop-color="#D4D4D4" stop-opacity=".325" offset="24.83%"/><stop stop-color="silver" stop-opacity=".555" offset="44.53%"/><stop stop-color="#B3B3B3" stop-opacity=".781" offset="70.32%"/><stop stop-color="#AFAFAF" offset="100%"/></linearGradient><linearGradient x1="24.894%" y1="50.022%" x2="99.801%" y2="50.022%" id="d"><stop stop-color="#FFF" stop-opacity="0" offset="0%"/><stop stop-color="#EDEDED" stop-opacity=".282" offset="28.58%"/><stop stop-color="#BDBDBD" stop-opacity=".848" offset="88.6%"/><stop stop-color="#AFAFAF" offset="100%"/></linearGradient></defs><g fill="none" fill-rule="evenodd"><path d="M284.3 14v-1.5c0-7-5-11.7-12.2-11.7-7.5 0-12.3 4.9-12.3 11.1 0 6.1 3.8 9.2 8.7 11.6l4.9 2.3c3.7 1.7 6.7 3.2 6.7 8.3 0 4.1-2.9 7.7-8.2 7.7-5.2 0-8.1-3.1-8.1-7.1v-2h-4.9v1.7c0 7 5.5 11.7 13.2 11.7 8.1 0 13-5.2 13-12.5 0-7.6-5.1-10.1-10.1-12.5l-4.9-2.3c-3.1-1.5-5.5-2.9-5.5-7.1 0-3.5 2.7-6.5 7.3-6.5 4.8 0 7.5 3 7.5 7.1V14h4.9zm-38.5 0v-1.5c0-7-5-11.7-12.2-11.7-7.5 0-12.3 4.9-12.3 11.1 0 6.1 3.8 9.2 8.7 11.6l4.9 2.3c3.7 1.7 6.7 3.2 6.7 8.3 0 4.1-2.9 7.7-8.2 7.7-5.2 0-8.1-3.1-8.1-7.1v-2h-4.9v1.7c0 7 5.5 11.7 13.2 11.7 8.1 0 13-5.2 13-12.5 0-7.6-5.1-10.1-10.1-12.5l-4.9-2.3c-3.1-1.5-5.5-2.9-5.5-7.1 0-3.5 2.7-6.5 7.3-6.5 4.8 0 7.5 3 7.5 7.1V14h4.9zm-39.4 11.2v-4.5h-16.3V6h17.8V1.5H185v43.9h23.4v-4.5h-18.3V25.2h16.3zm-38-23.7h-4.7v32.8L147.3 1.5h-4.5v43.9h4.7V12l16.7 33.3h4.2V1.5zm-42.1 0h-5.1v43.9h5.1V1.5zM105.9 14v-1.5c0-7-5-11.7-12.2-11.7-7.5 0-12.3 4.9-12.3 11.1 0 6.1 3.8 9.2 8.7 11.6l4.9 2.3c3.7 1.7 6.7 3.2 6.7 8.3 0 4.1-2.9 7.7-8.2 7.7-5.2 0-8.1-3.1-8.1-7.1v-2h-4.9v1.7c0 7 5.5 11.7 13.2 11.7 8.1 0 13-5.2 13-12.5 0-7.6-5.1-10.1-10.1-12.5l-4.9-2.3c-3.1-1.5-5.5-2.9-5.5-7.1 0-3.5 2.7-6.5 7.3-6.5 4.8 0 7.5 3 7.5 7.1V14h4.9zM61.5 1.5v31c0 5.1-2.9 9-7.8 9-5 0-7.9-3.9-7.9-9v-31h-5.1v30.9c0 8.4 5.3 13.7 13 13.7 7.6 0 12.9-5.3 12.9-13.7V1.5h-5.1zM13.6 25.1c4.9 0 7.9 3.2 7.9 8 0 4.7-3.1 7.9-8.3 7.9H5.7V25.1h7.9zM12.2 5.9c5.2 0 8.3 2.8 8.3 7.1 0 4.7-3.1 7.7-7.9 7.7H5.5V5.9h6.7zm1.2 39.5c8 0 13.2-4.7 13.2-12.1 0-4.9-2.1-8.3-6.9-10.6v-.1c4.1-2.3 5.9-5.5 5.9-9.9 0-6.8-5.5-11.2-13.3-11.2H.5v43.9h12.9zm270.9 41.7v-1.5c0-7-5-11.7-12.2-11.7-7.5 0-12.3 4.9-12.3 11.1 0 6.1 3.8 9.2 8.7 11.6l4.9 2.3c3.7 1.7 6.7 3.2 6.7 8.3 0 4.1-2.9 7.7-8.2 7.7-5.2 0-8.1-3.1-8.1-7.1v-2h-4.9v1.7c0 7 5.5 11.7 13.2 11.7 8.1 0 13-5.2 13-12.5 0-7.6-5.1-10.1-10.1-12.5l-4.9-2.3c-3.1-1.5-5.5-2.9-5.5-7.1 0-3.5 2.7-6.5 7.3-6.5 4.8 0 7.5 3 7.5 7.1v1.7h4.9zm-52.1-7.9c5.4 0 8.4 4.1 8.4 9.7v15.4c0 5.6-3 9.7-8.4 9.7h-7.7V79.2h7.7zm0-4.6h-12.8v43.9h12.8c8.2 0 13.5-5.5 13.5-14.4V89c0-8.8-5.3-14.4-13.5-14.4zm-48.1 43.9v-17.3h6.2c.8 0 2-.1 2.3-.1l6.7 17.4h5.5l-7.2-18.6c4.4-1.9 7.3-6.3 7.3-12.2 0-7.9-6.1-13.1-14.5-13.1H179v43.9h5.1zm6-39.4c5.9 0 9.5 3.4 9.5 8.6 0 5.5-3.7 9.1-9.5 9.1H184V79.1h6.1zm-29.4 39.4h5.3l-12.7-43.9h-5.2l-12.6 43.9h5l2.7-10.1H158l2.7 10.1zm-4-14.5h-12.2l6.1-22.6 6.1 22.6zm-42.8 14.5h4.6l8.9-43.9h-4.9l-6.3 34.3-6.7-34.3h-4.7l-6.5 34.3-6.4-34.3h-5.1l8.9 43.9h4.7L107 84l6.9 34.5zM73.3 98.3v-4.5H57V79.1h17.8v-4.5H52v43.9h23.4V114H57V98.4h16.3v-.1zm-56.7 20.2v-17.3h6.2c.8 0 2-.1 2.3-.1l6.7 17.4h5.5l-7.2-18.6c4.4-1.9 7.3-6.3 7.3-12.2 0-7.9-6.1-13.1-14.5-13.1H11.5v43.9h5.1zm6-39.4c5.9 0 9.5 3.4 9.5 8.6 0 5.5-3.7 9.1-9.5 9.1h-6.1V79.1h6.1z" fill="#323232"/><path d="M461.2 118.5l-95.5-96.6c-12.7-12.8-30-20.4-48-20.4h-20l1.5 3.9 6.7 17.5 36.1 95.6h119.2z" fill="url(#a)"/><path d="M357 82.2c.2 1.4 1.3 2.6 2.7 2.8 19.8 3.1 39 11.3 55.7 24.7.1.1.2.1.4.1.1 0 .3-.1.4-.2.2-.2.2-.6 0-.8-11.5-12.2-25.8-21.9-41.6-28.3l-4.9-2c-2.5-1-4.2-3.5-4.2-6.3.3-10.4 24.8-8.3 27.3-13.3l.4-.9c-5.1-4.3-11-7.6-17.6-9.4-.1.3-.2 1.5 1.1 3.7 1.5 2.4-1.6 6.2-6.1 2.1l-.4-.3c-33-30.5-57.9-14.7-71-48.9l6.7 17.4c13 22.5 47.3 24.9 51.1 59.6z" fill="#FFF"/><path d="M376.7 52.4c.5.8.5 1.8.1 2.6s-1.3 1.4-2.4 1.4v8.2c3.6-1 7.7-1.7 11-2.4v-4.6c0-.1-5.5.3-8.7-5.2z" fill="url(#b)"/><path d="M363.6 85.7c18.3 3.5 36.1 11.5 51.6 23.9-34.6-29.5-50.4-24.3-51.6-23.9z" fill="url(#c)"/><path d="M299.2 5.4l6.7 17.4c13 22.3 47.4 24.7 51.1 59.5-3.9-44.5-23.3-37.9-44.2-58-5.4-3.9-10-9.4-13.6-18.9z" fill="url(#d)"/></g></svg>