<svg width="117" height="26" viewBox="907 830 117 26" xmlns="http://www.w3.org/2000/svg" xmlns:xlink="http://www.w3.org/1999/xlink"><defs><path d="M.437.268l.333.837 1.481 3.72 8.095 20.341h26.669L15.645 4.615C12.797 1.888 8.935.268 4.908.268H.437z" id="a"/><linearGradient x1="83.068%" y1="63.06%" x2="80.801%" y2="58.376%" id="b"><stop stop-color="#D30000" offset="0%"/><stop stop-color="red" offset="36%"/><stop stop-color="red" offset="100%"/></linearGradient><path d="M.77.212l1.481 3.72C5.17 8.705 12.83 9.21 13.666 16.632 12.822 7.16 8.477 8.575 3.809 4.263 2.605 3.444 1.586 2.241.77.212z" id="d"/><linearGradient x1="80.156%" y1="60.092%" x2="81.8%" y2="60.092%" id="e"><stop stop-color="#FFF" offset="0%"/><stop stop-color="#B3B3B3" offset="100%"/></linearGradient><path id="g" d="M37.474 25.166H.192V.126h74.564v25.04z"/></defs><g fill="none" fill-rule="evenodd" transform="translate(986 830)"><mask id="c" fill="#fff"><use xlink:href="#a"/></mask><path fill="url(#b)" mask="url(#c)" d="M-628.067 221.29h784.515v-531.163h-784.515z"/></g><path d="M987.48 835.72c2.92 4.774 10.582 5.278 11.416 12.702.034.306.278.55.595.598a26.953 26.953 0 0 1 12.454 5.27l.002.002c.026.019.05.028.084.028a.137.137 0 0 0 .092-.035.124.124 0 0 0 .004-.18 26.593 26.593 0 0 0-9.298-6.053l-1.08-.416a1.415 1.415 0 0 1-.925-1.35c.06-2.217 5.539-1.766 6.094-2.833l.095-.182a10.39 10.39 0 0 0-3.943-2.006c-.013.053-.05.312.251.78.326.51-.358 1.32-1.354.446l-.083-.074C994.483 835.923 988.933 839.29 986 832l1.48 3.72z" fill="#FFF" fill-rule="evenodd"/><g fill="none" fill-rule="evenodd" transform="translate(986 832)"><mask id="f" fill="#fff"><use xlink:href="#d"/></mask><path fill="url(#e)" mask="url(#f)" d="M-628.067 220.397h784.515v-531.162h-784.515z"/></g><g fill="none" fill-rule="evenodd" transform="translate(907 830)"><mask id="h" fill="#fff"><use xlink:href="#g"/></mask><path d="M68.704.268h5.714v.966h-2.3v8.372H70.99V1.234h-2.286V.268zM64.49 9.606h-.936l-3.71-7.093v7.093h-1.04V.268h.995l3.652 6.978V.268h1.039v9.338zM50.35 5.313v3.325h4.066v.968h-5.195V.268h5.076v.966H50.35v3.127h3.62v.952h-3.62zM44.634.268v6.566c0 1.79-1.173 2.914-2.865 2.914-1.707 0-2.88-1.124-2.88-2.914V.268h1.128v6.594c0 1.095.639 1.92 1.752 1.92 1.099 0 1.737-.825 1.737-1.92V.268h1.128zM20.646 5.313v3.325h4.068v.968h-5.195V.268h5.075v.966h-3.948v3.127h3.622v.952h-3.622zM10.493 1.22v3.766h1.35c1.307 0 2.123-.767 2.123-1.932 0-1.11-.816-1.834-2.122-1.834h-1.351zM9.365 9.606V.268h2.538c1.87 0 3.22 1.094 3.22 2.786 0 1.25-.637 2.188-1.617 2.6l1.603 3.952h-1.232l-1.484-3.71a4.423 4.423 0 0 1-.52.028h-1.38v3.682H9.365zM1.32 5.569v4.037H.192V.268h5.077v.966h-3.95v3.369h3.622v.966H1.319zM70.126 16.78v3.766h1.35c1.307 0 2.123-.767 2.123-1.933 0-1.109-.816-1.833-2.122-1.833h-1.35zm-1.128 8.384V15.83h2.538c1.87 0 3.22 1.093 3.22 2.785 0 1.25-.637 2.19-1.617 2.6l1.603 3.951H73.51l-1.483-3.709a4.441 4.441 0 0 1-.52.029h-1.38v3.68h-1.129zm-8.819-4.291v3.325h4.067v.966H59.05V15.83h5.077v.966h-3.948v3.126H63.8v.953h-3.621zm-9.08 4.291v-3.723l-2.54-5.613h1.188l1.96 4.533 1.929-4.533h1.128l-2.523 5.599v3.737h-1.143zm-9.873-.966h3.784v.966h-4.912V15.83h1.128v8.37z" fill="#2E2E2E" mask="url(#h)"/><path d="M30.76 21.13v4.036h-1.13v-9.338h5.077v.967H30.76v3.368h3.62v.967h-3.62zM29.8 6.862c0 1.095.669 1.92 1.811 1.92 1.159 0 1.812-.825 1.812-1.92V3.01c0-1.094-.653-1.919-1.812-1.919-1.142 0-1.81.825-1.81 1.919v3.85zm3.251 4.492l-1.024-1.65a1.942 1.942 0 0 1-.416.043c-1.75 0-2.939-1.122-2.939-2.913V3.04c0-1.79 1.129-2.913 2.94-2.913 1.736 0 2.938 1.122 2.938 2.913v3.795c0 1.208-.534 2.118-1.41 2.573l1.277 1.947h-1.366z" fill="red" mask="url(#h)"/></g></svg>