<?xml version="1.0" encoding="UTF-8"?>
<svg xmlns="http://www.w3.org/2000/svg" xmlns:xlink="http://www.w3.org/1999/xlink" version="1.2" >
<font id="Jetstar Happy Bold">
<font-face  font-family="Jetstar Happy" units-per-em="1000" ascent="765" descent="-235" font-style="normal" font-weight="700" font-stretch="normal" cap-height="719" x-height="527" underline-position="-123" underline-thickness="114" />
<missing-glyph  horiz-adv-x="500" d="M420 -198 L420 730 L80 730 L80 -198 L420 -198 Z M390 -168 L110 -168 L110 700 L390 700 L390 -168 Z " />
<glyph glyph-name=".null" d="" />
<glyph glyph-name="CR" unicode="&#xd;" horiz-adv-x="257" d="" />
<glyph glyph-name="space" unicode="&#x20;" horiz-adv-x="257" d="" />
<glyph glyph-name="exclam" unicode="&#x21;" horiz-adv-x="270" d="M146 209 C195 209 200 221 201 241 L220 696 C221 722 206 732 146 732 C88 732 70 720 71 697 L92 241 C93 221 96 209 146 209 L146 209 Z M146 -11 C190 -11 226 23 226 66 C226 109 190 144 146 144 C102 144 67 109 67 66 C67 23 102 -11 146 -11 L146 -11 Z " />
<glyph glyph-name="quotedbl" unicode="&#x22;" horiz-adv-x="417" d="M182 715 C183 734 163 747 115 747 C63 747 45 734 46 715 L55 487 C56 472 69 462 115 462 C159 462 171 472 172 487 L182 715 Z M371 715 C372 734 352 747 304 747 C251 747 233 734 235 715 L245 487 C246 472 259 462 304 462 C347 462 361 472 362 487 L371 715 Z " />
<glyph glyph-name="numbersign" unicode="&#x23;" horiz-adv-x="608" d="M525 182 C541 182 548 201 548 237 C548 273 541 293 525 293 L450 293 L478 430 L566 430 C582 430 590 449 590 485 C590 521 582 541 566 541 L500 541 L533 700 C536 719 521 726 485 726 C449 726 439 719 436 703 L403 541 L278 541 L311 700 C314 719 298 726 262 726 C227 726 218 719 214 703 L181 541 L84 541 C68 541 60 521 60 485 C60 449 68 430 84 430 L160 430 L132 293 L44 293 C28 293 20 273 20 237 C20 201 28 182 44 182 L109 182 L76 18 C73 -1 88 -7 124 -7 C160 -7 170 -1 173 17 L207 182 L331 182 L298 18 C295 -1 311 -7 346 -7 C382 -7 391 -1 394 17 L428 182 L525 182 Z M353 293 L228 293 L256 430 L381 430 L353 293 Z " />
<glyph glyph-name="dollar" unicode="&#x24;" horiz-adv-x="564" d="M328 13 C433 30 514 92 514 209 C514 325 435 374 299 430 C255 449 207 472 207 516 C207 569 249 595 302 595 C344 595 382 586 422 561 C430 555 437 552 441 552 C452 552 460 563 470 582 C479 599 484 614 484 624 C484 646 468 659 454 668 C428 684 393 696 359 700 L359 801 C359 823 349 833 296 833 C242 833 232 823 232 801 L232 699 C132 679 70 610 70 510 C70 404 156 362 239 327 C317 295 379 273 379 207 C379 147 323 125 265 125 C219 125 165 144 122 170 C114 174 108 178 102 178 C94 178 85 169 71 146 C61 130 56 113 56 101 C56 83 63 68 82 56 C114 36 159 21 201 15 L201 -86 C201 -108 212 -117 265 -117 C317 -117 328 -108 328 -86 L328 13 Z " />
<glyph glyph-name="percent" unicode="&#x25;" horiz-adv-x="888" d="M197 314 C325 314 379 410 379 522 C379 639 317 732 197 732 C78 732 17 639 17 522 C17 410 73 314 197 314 L197 314 Z M197 407 C153 407 136 461 136 522 C136 585 156 639 197 639 C239 639 258 585 258 522 C258 461 241 407 197 407 L197 407 Z M347 11 L657 701 C667 724 659 738 603 738 C555 738 551 728 542 709 L231 19 C221 -2 229 -18 285 -18 C333 -18 340 -7 347 11 L347 11 Z M689 -12 C818 -12 871 84 871 195 C871 313 810 405 689 405 C571 405 509 313 509 195 C509 84 565 -12 689 -12 L689 -12 Z M689 80 C646 80 629 135 629 195 C629 259 649 313 689 313 C732 313 751 259 751 195 C751 135 734 80 689 80 L689 80 Z " />
<glyph glyph-name="ampersand" unicode="&#x26;" horiz-adv-x="747" d="M421 139 C388 108 347 95 302 95 C236 95 179 137 179 204 C179 241 191 293 240 322 C267 293 296 261 328 229 C357 199 391 168 421 139 L421 139 Z M577 159 C614 220 643 316 651 382 C653 405 645 417 593 417 C548 417 542 409 538 388 C531 332 514 266 497 233 C469 259 439 287 410 316 C312 413 257 478 257 541 C257 596 292 626 352 626 C381 626 411 619 439 603 C450 596 457 594 461 594 C470 594 478 603 484 619 C487 630 490 642 490 655 C490 682 475 698 449 709 C413 726 367 732 333 732 C198 732 126 646 126 538 C126 496 143 443 180 400 C67 342 45 251 45 199 C45 67 150 -12 290 -12 C374 -12 449 18 503 67 C522 50 532 41 542 34 C580 4 604 -7 655 -7 C703 -7 736 -6 736 16 C736 23 729 31 718 41 C688 67 660 88 577 159 L577 159 Z " />
<glyph glyph-name="quotesingle" unicode="&#x27;" horiz-adv-x="228" d="M182 715 C183 734 163 747 115 747 C63 747 45 734 46 715 L55 487 C56 472 69 462 115 462 C159 462 171 472 172 487 L182 715 Z " />
<glyph glyph-name="parenleft" unicode="&#x28;" horiz-adv-x="316" d="M181 307 C181 452 216 584 286 696 C290 703 293 709 293 715 C293 726 283 738 258 754 C240 766 228 771 218 771 C208 771 201 766 194 757 C97 627 45 469 45 307 C45 122 101 -20 195 -150 C202 -159 210 -164 219 -164 C229 -164 241 -159 259 -146 C284 -130 294 -118 294 -106 C294 -101 292 -95 287 -88 C218 21 181 141 181 307 L181 307 Z " />
<glyph glyph-name="parenright" unicode="&#x29;" horiz-adv-x="316" d="M271 307 C271 469 219 627 122 757 C115 766 108 771 98 771 C88 771 76 766 58 754 C34 738 23 726 23 715 C23 709 26 703 30 696 C101 584 135 452 135 307 C135 141 98 21 29 -88 C25 -95 22 -101 22 -106 C22 -118 32 -130 57 -146 C75 -159 87 -164 97 -164 C106 -164 114 -159 121 -150 C216 -20 271 122 271 307 L271 307 Z " />
<glyph glyph-name="asterisk" unicode="&#x2a;" horiz-adv-x="441" d="M299 596 L407 623 C422 627 432 631 432 649 C432 658 430 672 424 690 C413 724 402 736 389 736 C384 736 378 735 371 733 L268 689 L277 800 C279 824 276 837 221 837 C168 837 161 824 163 800 L172 689 L69 732 C63 735 56 736 51 736 C38 736 28 724 17 690 C11 674 9 659 9 650 C9 631 18 628 34 623 L140 595 L69 512 C63 504 59 498 59 491 C59 479 67 467 94 448 C115 432 128 427 139 427 C149 427 154 435 161 446 L220 540 L278 446 C285 435 292 427 302 427 C312 427 325 433 345 448 C372 468 381 479 381 491 C381 498 376 505 371 512 L299 596 Z " />
<glyph glyph-name="plus" unicode="&#x2b;" horiz-adv-x="609" d="M364 308 L528 308 C548 308 558 316 558 361 C558 407 548 416 528 416 L364 416 L364 584 C364 607 354 615 303 615 C252 615 242 607 242 584 L242 416 L79 416 C58 416 49 407 49 361 C49 316 58 308 79 308 L242 308 L242 140 C242 116 252 107 303 107 C354 107 364 116 364 140 L364 308 Z " />
<glyph glyph-name="comma" unicode="&#x2c;" horiz-adv-x="267" d="M106 -11 C111 -57 82 -93 49 -115 C36 -124 34 -131 34 -136 C34 -152 52 -157 66 -157 C104 -157 146 -136 178 -96 C206 -59 222 -11 222 41 C222 101 190 147 128 147 C82 147 46 109 46 64 C46 31 69 -3 106 -11 L106 -11 Z " />
<glyph glyph-name="hyphen" unicode="&#x2d;" horiz-adv-x="431" d="M352 305 C379 305 386 323 386 365 C386 408 379 426 352 426 L79 426 C52 426 45 408 45 365 C45 323 52 305 79 305 L352 305 Z " />
<glyph glyph-name="period" unicode="&#x2e;" horiz-adv-x="251" d="M125 -11 C171 -11 207 23 207 67 C207 112 171 146 125 146 C80 146 45 112 45 67 C45 23 80 -11 125 -11 L125 -11 Z " />
<glyph glyph-name="slash" unicode="&#x2f;" horiz-adv-x="362" d="M140 8 L349 703 C355 725 344 739 288 739 C240 739 228 729 222 710 L13 16 C7 -7 18 -21 74 -21 C122 -21 134 -11 140 8 L140 8 Z " />
<glyph glyph-name="zero" unicode="0" horiz-adv-x="602" d="M300 -12 C489 -12 563 159 563 360 C563 565 474 732 300 732 C127 732 39 565 39 360 C39 159 113 -12 300 -12 L300 -12 Z M300 98 C212 98 178 219 178 360 C178 505 219 621 300 621 C382 621 423 505 423 360 C423 219 389 98 300 98 L300 98 Z " />
<glyph glyph-name="one" unicode="1" horiz-adv-x="404" d="M324 25 L324 690 C324 709 318 729 283 729 L254 729 C226 729 209 725 180 706 L35 613 C25 607 20 600 20 591 C20 583 25 572 33 556 C49 531 69 518 90 518 C106 518 123 526 133 533 L188 573 L187 25 C187 1 201 -7 255 -7 C308 -7 324 1 324 25 L324 25 Z " />
<glyph glyph-name="two" unicode="2" horiz-adv-x="522" d="M201 109 L351 283 C409 351 470 426 470 534 C470 603 442 656 398 689 C357 719 304 732 247 732 C192 732 131 718 80 688 C59 676 51 659 51 642 C51 628 56 613 64 601 C76 580 84 573 94 573 C99 573 106 577 114 582 C161 611 199 623 240 623 C296 623 334 582 334 528 C334 494 330 442 257 355 L58 120 C40 98 34 80 34 49 C34 10 47 0 70 0 L420 0 C449 0 478 3 478 61 C478 103 472 109 451 109 L201 109 Z " />
<glyph glyph-name="three" unicode="3" horiz-adv-x="511" d="M344 385 C416 403 452 475 452 535 C452 657 362 732 226 732 C182 732 128 722 87 701 C64 690 54 675 54 655 C54 643 58 629 64 617 C72 600 81 590 91 590 C96 590 104 593 111 596 C154 619 188 626 220 626 C274 626 316 590 316 529 C316 456 255 428 195 428 L152 428 C132 428 123 422 123 376 C123 332 131 327 152 327 L194 327 C282 327 339 279 339 210 C339 139 287 95 215 95 C167 95 123 109 91 131 C83 136 76 139 71 139 C62 139 54 132 45 113 C39 101 35 88 35 76 C35 55 44 35 80 18 C122 -2 171 -12 223 -12 C357 -12 478 61 478 208 C478 295 429 365 344 385 L344 385 Z " />
<glyph glyph-name="four" unicode="4" horiz-adv-x="593" d="M463 165 L513 165 C542 165 571 171 571 228 C571 269 565 277 544 277 L462 277 L462 693 C462 717 450 729 397 729 C353 729 329 714 301 671 L53 295 C37 273 35 258 35 223 C35 178 53 166 75 166 L326 166 L326 25 C326 1 340 -7 393 -7 C447 -7 463 1 463 25 L463 165 Z M330 275 L175 275 L332 525 L330 275 Z " />
<glyph glyph-name="five" unicode="5" horiz-adv-x="533" d="M200 452 L201 609 L409 608 C438 608 467 613 467 670 C467 712 461 719 440 719 L116 719 C92 719 70 705 70 675 L70 369 C70 347 84 340 99 340 C109 340 125 345 137 349 C163 356 189 363 221 363 C292 363 351 324 351 235 C351 150 297 96 223 96 C169 96 128 111 96 130 C88 134 83 137 76 137 C68 137 59 131 50 112 C42 96 39 83 39 70 C39 47 52 31 84 17 C126 -2 176 -12 228 -12 C371 -12 488 70 488 235 C488 318 456 381 402 419 C363 447 316 460 264 460 C241 460 220 457 200 452 L200 452 Z " />
<glyph glyph-name="six" unicode="6" horiz-adv-x="573" d="M300 93 C211 93 183 185 183 275 C183 326 240 366 299 366 C352 366 404 330 404 237 C404 144 363 93 300 93 L300 93 Z M304 -12 C443 -12 540 74 540 237 C540 391 441 469 318 469 C271 469 222 451 189 419 C197 478 211 531 239 566 C268 605 311 626 364 626 C390 626 416 618 440 604 C450 599 457 595 462 595 C480 595 491 630 491 648 C491 676 483 698 442 715 C418 725 383 732 351 732 C274 732 202 703 152 651 C78 575 45 443 45 316 C45 227 64 140 105 82 C159 6 250 -12 304 -12 L304 -12 Z " />
<glyph glyph-name="seven" unicode="7" horiz-adv-x="481" d="M151 -7 C200 -7 219 3 226 21 L459 596 C467 617 476 639 476 666 C476 709 450 719 424 719 L55 719 C34 719 28 712 28 670 C28 613 57 609 86 609 L336 610 L85 34 C73 7 105 -7 151 -7 L151 -7 Z " />
<glyph glyph-name="eight" unicode="8" horiz-adv-x="568" d="M286 -12 C418 -12 534 73 534 195 C534 290 480 346 400 386 C462 421 509 475 509 556 C509 647 432 732 288 732 C136 732 65 632 65 540 C65 458 107 411 171 375 C94 337 34 273 34 191 C34 49 145 -12 286 -12 L286 -12 Z M293 433 C246 455 199 485 199 538 C199 585 231 630 293 630 C350 630 380 592 380 553 C380 495 345 460 293 433 L293 433 Z M283 90 C222 90 171 123 171 193 C171 260 218 296 276 324 C343 298 399 265 399 195 C399 132 343 90 283 90 L283 90 Z " />
<glyph glyph-name="nine" unicode="9" horiz-adv-x="553" d="M217 -12 C299 -12 370 12 420 69 C498 160 519 289 519 399 C519 516 495 591 461 640 C409 716 322 732 264 732 C124 732 28 637 28 496 C28 355 118 277 244 277 C289 277 343 296 378 331 C375 267 361 210 335 168 C307 120 264 94 218 94 C185 94 149 105 117 122 C108 126 102 131 95 131 C87 131 80 124 74 108 C70 99 67 87 67 77 C67 45 88 22 120 8 C151 -7 189 -12 217 -12 L217 -12 Z M268 381 C198 381 163 441 163 502 C163 581 207 628 269 628 C333 628 376 576 378 497 C379 435 342 381 268 381 L268 381 Z " />
<glyph glyph-name="colon" unicode="&#x3a;" horiz-adv-x="251" d="M125 349 C171 349 207 383 207 428 C207 471 171 507 125 507 C80 507 45 471 45 428 C45 383 80 349 125 349 L125 349 Z M125 -11 C171 -11 207 23 207 67 C207 112 171 146 125 146 C80 146 45 112 45 67 C45 23 80 -11 125 -11 L125 -11 Z " />
<glyph glyph-name="semicolon" unicode="&#x3b;" horiz-adv-x="267" d="M134 349 C179 349 216 383 216 428 C216 471 179 507 134 507 C88 507 52 471 52 428 C52 383 88 349 134 349 L134 349 Z M106 -11 C111 -57 83 -92 49 -115 C36 -124 34 -131 34 -136 C34 -152 52 -157 66 -157 C104 -157 146 -136 178 -96 C206 -59 222 -11 222 41 C222 101 190 147 128 147 C82 147 46 109 46 64 C46 31 69 -3 106 -11 L106 -11 Z " />
<glyph glyph-name="less" unicode="&#x3c;" horiz-adv-x="609" d="M192 361 L541 551 C550 555 555 562 555 572 C555 581 550 594 540 613 C525 642 514 651 502 651 C496 651 488 648 484 646 L84 420 C65 410 54 400 54 361 C54 323 65 313 84 302 L484 77 C489 74 496 70 502 70 C514 70 525 80 540 108 C550 128 555 141 555 151 C555 161 550 168 541 172 L192 361 Z " />
<glyph glyph-name="equal" unicode="&#x3d;" horiz-adv-x="609" d="M534 410 C554 410 564 420 564 465 C564 509 554 521 534 521 L74 521 C52 521 44 509 44 465 C44 420 52 410 74 410 L534 410 Z M534 203 C554 203 564 213 564 258 C564 303 554 314 534 314 L74 314 C52 314 44 303 44 258 C44 213 52 203 74 203 L534 203 Z " />
<glyph glyph-name="greater" unicode="&#x3e;" horiz-adv-x="609" d="M524 302 C543 313 554 323 554 361 C554 400 543 410 524 420 L125 646 C120 649 113 651 107 651 C95 651 83 642 68 613 C58 594 54 581 54 572 C54 562 59 555 68 551 L417 361 L68 172 C59 168 54 161 54 151 C54 141 58 128 68 108 C83 80 95 70 107 70 C113 70 120 74 125 77 L524 302 Z " />
<glyph glyph-name="question" unicode="&#x3f;" horiz-adv-x="430" d="M174 209 C222 209 232 217 233 238 L235 274 C236 318 264 333 328 380 C370 410 419 462 419 541 C419 612 394 658 355 688 C315 718 261 732 206 732 C166 732 117 720 83 701 C58 688 45 669 45 647 C45 634 48 622 55 610 C66 589 74 582 84 582 C90 582 96 585 105 591 C141 614 171 623 201 623 C247 623 285 600 285 542 C285 483 247 450 208 424 C169 398 115 365 115 284 L115 238 C115 218 125 209 174 209 L174 209 Z M175 -11 C220 -11 255 23 255 66 C255 109 220 144 175 144 C132 144 96 109 96 66 C96 23 132 -11 175 -11 L175 -11 Z " />
<glyph glyph-name="at" unicode="&#x40;" horiz-adv-x="982" d="M677 144 C801 144 887 260 887 401 C887 567 779 734 517 734 C261 734 103 532 102 338 C101 105 259 -34 497 -34 C548 -34 615 -25 681 -3 C699 2 707 10 707 25 C707 30 706 37 704 45 C697 69 693 76 682 76 C680 76 677 75 671 74 C601 57 551 49 497 49 C336 49 212 156 212 323 C212 514 353 651 522 651 C710 651 783 532 783 402 C783 318 746 218 685 218 C653 218 650 249 650 271 C650 328 680 433 699 508 C705 529 695 537 649 537 C615 537 609 527 604 514 L598 493 C574 528 535 542 499 542 C379 542 297 428 297 307 C297 199 359 145 445 145 C491 145 540 174 570 220 C583 169 634 144 677 144 L677 144 Z M455 230 C420 230 407 264 407 302 C407 382 450 466 516 466 C540 466 567 451 567 409 C567 342 522 230 455 230 L455 230 Z " />
<glyph glyph-name="A" unicode="A" horiz-adv-x="660" d="M451 179 L499 22 C506 -1 528 -7 574 -7 C635 -7 648 8 640 31 L411 684 C396 724 380 726 329 726 C279 726 262 722 249 682 L20 31 C12 8 24 -7 87 -7 C133 -7 153 -1 160 22 L208 179 L451 179 Z M421 281 L239 281 L329 584 L421 281 Z " />
<glyph glyph-name="B" unicode="B" horiz-adv-x="615" d="M314 0 C451 0 565 56 565 206 C565 293 524 353 441 383 C505 419 531 475 531 534 C531 674 422 719 296 719 L121 719 C97 719 78 700 78 677 L78 42 C78 19 97 0 121 0 L314 0 Z M212 419 L212 615 L292 615 C345 615 392 590 392 518 C392 457 347 419 276 419 L212 419 Z M212 102 L212 319 L300 319 C389 319 426 274 426 206 C426 139 376 102 305 102 L212 102 Z " />
<glyph glyph-name="C" unicode="C" horiz-adv-x="589" d="M355 -12 C401 -12 456 -2 497 17 C533 32 541 57 541 79 C541 90 536 104 531 115 C521 135 513 141 505 141 C500 141 493 135 485 131 C446 109 400 101 360 101 C230 101 178 220 178 360 C178 508 244 621 361 621 C402 621 443 612 485 585 C493 580 498 576 504 576 C513 576 522 586 533 607 C541 620 544 633 544 647 C544 668 533 682 515 694 C472 719 410 732 357 732 C154 732 39 573 39 360 C39 159 123 -12 355 -12 L355 -12 Z " />
<glyph glyph-name="D" unicode="D" horiz-adv-x="681" d="M309 0 C395 0 470 22 519 64 C599 130 637 240 637 360 C637 484 596 589 517 655 C468 695 390 719 302 719 L121 719 C97 719 78 700 78 677 L78 42 C78 19 97 0 121 0 L309 0 Z M212 102 L212 615 L254 615 C351 615 388 607 426 574 C476 533 497 455 497 360 C497 273 476 197 429 153 C390 116 346 102 258 102 L212 102 Z " />
<glyph glyph-name="E" unicode="E" horiz-adv-x="566" d="M458 0 C487 0 516 3 516 60 C516 102 510 108 489 108 L213 108 L213 308 L412 308 C441 308 470 311 470 369 C470 410 465 416 442 416 L213 416 L213 610 L454 610 C483 610 512 613 512 671 C512 713 506 719 485 719 L121 719 C97 719 78 700 78 677 L78 42 C78 19 97 0 121 0 L458 0 Z " />
<glyph glyph-name="F" unicode="F" horiz-adv-x="522" d="M213 25 L213 289 L399 289 C428 289 457 292 457 350 C457 391 451 398 430 398 L213 398 L213 610 L440 610 C469 610 499 613 499 671 C499 713 494 719 471 719 L121 719 C97 719 78 700 78 677 L78 25 C78 1 92 -7 145 -7 C199 -7 213 1 213 25 L213 25 Z " />
<glyph glyph-name="G" unicode="G" horiz-adv-x="688" d="M506 50 L512 22 C515 3 529 -7 564 -7 C604 -7 610 4 610 23 L610 361 C610 380 603 398 573 398 L359 398 C338 398 333 388 333 350 C333 293 365 289 394 289 L500 289 C486 149 419 98 345 98 C240 98 178 192 178 360 C178 430 192 493 220 538 C254 594 305 621 367 621 C419 621 464 604 505 576 C514 570 521 566 526 566 C537 566 546 579 556 593 C566 609 572 622 572 634 C572 657 561 670 544 681 C500 710 435 732 362 732 C152 732 39 574 39 360 C39 123 145 -12 346 -12 C423 -12 471 12 506 50 L506 50 Z " />
<glyph glyph-name="H" unicode="H" horiz-adv-x="693" d="M479 308 L479 25 C479 1 493 -7 546 -7 C600 -7 614 1 614 25 L614 695 C614 717 600 726 546 726 C493 726 479 717 479 695 L479 416 L213 416 L213 695 C213 717 199 726 145 726 C92 726 78 717 78 695 L78 25 C78 1 92 -7 145 -7 C199 -7 213 1 213 25 L213 308 L479 308 Z " />
<glyph glyph-name="I" unicode="I" horiz-adv-x="305" d="M221 25 L221 695 C221 717 206 726 152 726 C98 726 84 717 84 695 L84 25 C84 1 98 -7 152 -7 C206 -7 221 1 221 25 L221 25 Z " />
<glyph glyph-name="J" unicode="J" horiz-adv-x="474" d="M401 207 L401 695 C401 717 386 726 333 726 C279 726 265 717 265 695 L265 203 C265 145 239 101 180 101 C156 101 124 107 94 120 C85 123 77 127 69 127 C60 127 54 118 45 103 C36 86 34 70 34 61 C34 30 61 17 84 8 C116 -6 156 -12 191 -12 C307 -12 401 40 401 207 L401 207 Z " />
<glyph glyph-name="K" unicode="K" horiz-adv-x="622" d="M295 382 L557 679 C569 691 571 698 571 705 C571 723 542 726 507 726 C449 726 427 718 392 676 L211 458 L214 695 C214 717 200 726 146 726 C93 726 78 717 78 695 L78 25 C78 1 93 -7 146 -7 C200 -7 214 1 214 25 L211 292 L405 46 C442 -1 468 -7 517 -7 C565 -7 589 0 589 18 C589 26 583 34 572 47 L295 382 Z " />
<glyph glyph-name="L" unicode="L" horiz-adv-x="528" d="M214 112 L214 695 C214 717 200 726 146 726 C93 726 78 717 78 695 L78 42 C78 19 97 0 121 0 L437 0 C466 0 495 4 495 63 C495 104 489 112 468 112 L214 112 Z " />
<glyph glyph-name="M" unicode="M" horiz-adv-x="827" d="M748 25 L748 690 C748 713 742 726 682 726 C634 726 603 718 582 667 L416 270 L248 667 C227 718 192 726 144 726 C85 726 78 713 78 690 L78 25 C78 1 94 -7 144 -7 C193 -7 210 1 210 25 L204 477 L333 171 C349 133 365 123 413 123 C462 123 478 133 494 171 L621 479 L617 25 C617 1 633 -7 682 -7 C733 -7 748 1 748 25 L748 25 Z " />
<glyph glyph-name="N" unicode="N" horiz-adv-x="712" d="M633 27 L633 695 C633 717 617 726 566 726 C517 726 502 717 502 695 L504 239 L227 676 C207 708 185 726 136 726 C83 726 78 714 78 691 L78 25 C78 1 95 -7 144 -7 C194 -7 210 1 210 25 L207 491 L485 44 C506 10 526 -7 575 -7 C630 -7 633 4 633 27 L633 27 Z " />
<glyph glyph-name="O" unicode="O" horiz-adv-x="713" d="M356 -12 C575 -12 674 162 674 360 C674 565 560 732 356 732 C153 732 39 565 39 360 C39 162 136 -12 356 -12 L356 -12 Z M356 98 C238 98 180 222 180 360 C180 506 246 621 356 621 C466 621 532 506 532 360 C532 222 474 98 356 98 L356 98 Z " />
<glyph glyph-name="P" unicode="P" horiz-adv-x="580" d="M214 262 C236 259 267 258 286 258 C341 258 398 267 441 293 C512 334 546 408 546 496 C546 636 462 719 293 719 L126 719 C93 719 78 701 78 679 L78 25 C78 1 93 -7 146 -7 C200 -7 214 1 214 25 L214 262 Z M213 365 L213 615 L288 615 C365 615 408 569 408 495 C408 449 394 413 366 390 C342 369 305 362 265 362 C245 362 227 364 213 365 L213 365 Z " />
<glyph glyph-name="Q" unicode="Q" horiz-adv-x="736" d="M488 15 L515 -10 C548 -40 572 -45 594 -45 C614 -45 632 -38 649 -25 C663 -13 680 1 680 15 C680 22 675 28 665 36 L590 93 C647 162 674 258 674 360 C674 565 560 732 356 732 C153 732 39 565 39 360 C39 162 136 -12 356 -12 C405 -12 450 -2 488 15 L488 15 Z M392 103 C383 99 367 97 356 97 C239 97 180 222 180 360 C180 506 246 621 356 621 C466 621 532 506 532 360 C532 288 516 221 484 173 L447 201 C428 216 414 216 385 182 C359 153 359 135 375 120 L392 103 Z " />
<glyph glyph-name="R" unicode="R" horiz-adv-x="629" d="M281 279 L411 41 C435 -2 468 -7 509 -7 C558 -7 575 -2 577 16 C579 23 573 32 564 47 L407 302 C495 333 546 405 546 500 C546 652 449 719 295 719 L126 719 C93 719 78 701 78 679 L78 25 C78 1 92 -7 145 -7 C199 -7 213 1 213 25 L213 279 L281 279 Z M212 384 L212 615 L289 615 C359 615 407 579 407 506 C407 432 364 384 286 384 L212 384 Z " />
<glyph glyph-name="S" unicode="S" horiz-adv-x="564" d="M260 -12 C391 -12 508 50 508 193 C508 319 423 373 290 437 C247 458 202 488 202 532 C202 586 244 622 297 622 C338 622 375 613 417 588 C424 582 432 579 436 579 C446 579 454 591 464 609 C474 624 477 640 477 650 C477 671 461 686 447 694 C403 718 349 732 294 732 C159 732 68 647 68 526 C68 416 135 373 228 327 C299 293 372 261 372 191 C372 128 318 97 261 97 C207 97 160 116 115 145 C107 151 102 154 96 154 C88 154 79 146 66 124 C56 107 50 90 50 78 C50 60 59 48 78 36 C127 4 198 -12 260 -12 L260 -12 Z " />
<glyph glyph-name="T" unicode="T" horiz-adv-x="552" d="M345 611 L470 609 C499 609 529 613 529 670 C529 712 524 719 502 719 L49 719 C28 719 22 712 22 670 C22 613 51 609 80 609 L208 611 L207 25 C207 1 222 -7 276 -7 C330 -7 346 1 346 25 L345 611 Z " />
<glyph glyph-name="U" unicode="U" horiz-adv-x="703" d="M352 -12 C457 -12 528 16 573 70 C619 125 630 199 630 297 L630 695 C630 717 617 726 563 726 C509 726 495 717 495 695 L496 307 C496 248 491 203 474 166 C454 124 413 99 352 99 C290 99 250 124 230 166 C212 203 210 248 210 307 L211 695 C211 717 195 726 142 726 C88 726 73 717 73 695 L73 297 C73 199 84 125 130 70 C174 16 246 -12 352 -12 L352 -12 Z " />
<glyph glyph-name="V" unicode="V" horiz-adv-x="642" d="M410 36 L617 685 C619 693 620 698 620 703 C620 717 605 726 562 726 C510 726 485 715 470 665 L324 150 L165 696 C159 720 136 726 90 726 C28 726 17 709 25 686 L236 37 C249 -3 273 -7 323 -7 C373 -7 398 -4 410 36 L410 36 Z " />
<glyph glyph-name="W" unicode="W" horiz-adv-x="972" d="M768 38 L946 681 C948 690 949 697 949 703 C949 717 937 726 894 726 C842 726 815 715 803 663 L687 157 L569 684 C560 725 538 726 487 726 C438 726 419 725 410 684 L289 153 L164 696 C159 720 136 726 90 726 C27 726 18 709 25 686 L202 38 C213 -3 238 -7 288 -7 C338 -7 365 -4 374 37 L488 541 L596 37 C605 -4 632 -7 682 -7 C733 -7 757 -3 768 38 L768 38 Z " />
<glyph glyph-name="X" unicode="X" horiz-adv-x="642" d="M399 369 L591 676 C599 689 603 696 603 703 C603 719 589 726 540 726 C494 726 472 720 459 697 L335 479 L213 697 C200 720 180 726 134 726 C85 726 64 719 64 703 C64 696 68 689 76 676 L256 378 L51 42 C44 29 39 23 39 17 C39 -1 57 -7 107 -7 C153 -7 173 -1 192 34 L318 268 L449 34 C468 0 490 -7 536 -7 C586 -7 609 -1 609 17 C609 23 604 29 596 42 L399 369 Z " />
<glyph glyph-name="Y" unicode="Y" horiz-adv-x="574" d="M351 280 L558 687 C562 694 563 698 563 704 C563 718 546 726 503 726 C446 726 422 707 401 657 L293 402 L159 697 C149 720 128 726 83 726 C19 726 4 708 16 686 L218 286 L214 25 C214 1 231 -7 285 -7 C338 -7 354 1 354 25 L351 280 Z " />
<glyph glyph-name="Z" unicode="Z" horiz-adv-x="580" d="M203 111 L509 595 C522 614 531 629 531 658 C531 713 505 719 476 719 L89 719 C68 719 63 712 63 670 C63 612 92 608 121 608 L369 608 L60 123 C49 105 39 89 39 61 C39 6 65 0 94 0 L483 0 C512 0 541 4 541 61 C541 103 535 111 514 111 L203 111 Z " />
<glyph glyph-name="bracketleft" unicode="&#x5b;" horiz-adv-x="313" d="M170 -49 L170 657 L237 657 C266 657 296 659 296 716 C296 757 290 764 268 764 L84 764 C60 764 45 747 45 724 L45 -116 C45 -140 60 -155 84 -155 L268 -155 C290 -155 296 -150 296 -108 C296 -50 266 -49 237 -49 L170 -49 Z " />
<glyph glyph-name="backslash" unicode="&#x5c;" horiz-adv-x="362" d="M349 16 L140 710 C134 729 122 738 74 738 C18 738 7 725 13 701 L222 7 C228 -11 240 -21 288 -21 C344 -21 355 -7 349 16 L349 16 Z " />
<glyph glyph-name="bracketright" unicode="&#x5d;" horiz-adv-x="313" d="M268 -116 L268 724 C268 747 251 764 228 764 L44 764 C22 764 17 757 17 716 C17 659 46 657 75 657 L143 657 L143 -49 L75 -49 C46 -49 17 -50 17 -108 C17 -150 22 -155 44 -155 L228 -155 C251 -155 268 -140 268 -116 L268 -116 Z " />
<glyph glyph-name="asciicircum" unicode="&#x5e;" horiz-adv-x="537" d="M510 457 L344 800 C326 836 315 837 269 837 C222 837 211 836 193 800 L27 457 C23 450 22 445 22 439 C22 426 37 418 74 418 C130 418 154 433 172 476 L268 707 L365 476 C383 433 408 418 464 418 C500 418 515 426 515 440 C515 445 514 451 510 457 L510 457 Z " />
<glyph glyph-name="underscore" unicode="&#x5f;" horiz-adv-x="447" d="M449 -237 C476 -237 483 -223 483 -180 C483 -137 476 -123 449 -123 L-2 -123 C-29 -123 -37 -137 -37 -180 C-37 -223 -29 -237 -2 -237 L449 -237 Z " />
<glyph glyph-name="grave" unicode="&#x60;" horiz-adv-x="266" d="M86 761 C42 761 20 760 20 739 C20 733 25 724 33 714 L122 605 C135 589 145 582 195 582 C231 582 246 588 246 601 C246 608 244 613 238 622 L171 733 C155 760 148 761 86 761 L86 761 Z " />
<glyph glyph-name="a" unicode="a" horiz-adv-x="582" d="M510 118 L510 502 C510 524 499 533 447 533 C399 533 385 526 384 507 L383 485 C347 525 293 537 261 537 C102 537 34 405 34 258 C34 111 97 -9 264 -9 C300 -9 362 4 397 48 C407 8 429 -9 462 -9 C513 -9 522 1 519 25 L510 118 Z M279 95 C204 95 166 159 166 258 C166 347 197 431 279 430 C344 429 384 389 384 314 L384 228 C384 191 378 161 364 140 C343 104 304 95 279 95 L279 95 Z " />
<glyph glyph-name="b" unicode="b" horiz-adv-x="580" d="M260 -9 C321 -9 374 3 417 28 C494 71 541 153 541 268 C541 438 457 537 331 537 C281 537 233 519 199 488 L199 733 C199 755 185 764 133 764 C80 764 67 755 67 733 L67 56 C67 36 77 27 98 19 C151 0 207 -9 260 -9 L260 -9 Z M198 102 L198 345 C210 414 265 430 298 430 C375 430 407 363 407 268 C407 139 345 95 256 95 C237 95 217 97 198 102 L198 102 Z " />
<glyph glyph-name="c" unicode="c" horiz-adv-x="507" d="M286 -9 C321 -9 381 -1 423 25 C443 37 456 54 456 77 C456 86 454 98 448 111 C440 126 432 135 423 135 C419 135 410 130 403 126 C361 104 326 97 298 97 C217 97 166 159 166 258 C166 355 213 429 297 429 C334 429 367 419 404 394 C411 390 418 385 422 385 C432 385 441 393 451 412 C458 426 462 439 462 451 C462 474 450 487 432 499 C392 526 341 537 287 537 C114 537 34 401 34 258 C34 94 123 -9 286 -9 L286 -9 Z " />
<glyph glyph-name="d" unicode="d" horiz-adv-x="611" d="M480 -9 C538 -9 572 26 572 78 C572 96 566 97 553 97 L535 97 C522 97 513 106 513 123 L513 733 C513 755 500 764 448 764 C394 764 382 755 382 733 L382 491 C345 528 295 537 265 537 C104 537 34 405 34 259 C34 118 93 -9 255 -9 C300 -9 357 6 395 51 C409 15 441 -9 480 -9 L480 -9 Z M276 95 C200 95 166 159 166 258 C166 349 199 430 285 430 C341 430 380 399 382 345 L382 228 C382 189 375 157 360 135 C337 102 299 95 276 95 L276 95 Z " />
<glyph glyph-name="e" unicode="e" horiz-adv-x="555" d="M169 220 L479 220 C507 220 510 232 510 261 C510 428 430 537 274 537 C111 537 34 407 34 265 C34 73 151 -9 293 -9 C392 -9 479 40 479 121 C479 131 476 145 466 145 C461 145 455 142 448 137 C408 112 359 97 308 97 C237 97 174 132 169 220 L169 220 Z M381 308 L170 308 C176 374 209 433 278 433 C350 433 379 375 381 308 L381 308 Z " />
<glyph glyph-name="f" unicode="f" horiz-adv-x="426" d="M232 429 L296 429 C342 429 362 447 362 499 C362 527 352 528 333 528 L232 528 L232 567 C232 630 251 665 312 665 C334 665 352 659 371 659 C405 659 420 699 420 726 C420 741 417 747 400 753 C372 763 333 770 294 770 C237 770 189 753 154 719 C117 682 101 627 101 555 L101 528 L50 528 C30 528 22 522 22 477 C22 433 30 429 50 429 L101 429 L101 23 C101 1 114 -7 166 -7 C219 -7 232 1 232 23 L232 429 Z " />
<glyph glyph-name="g" unicode="g" horiz-adv-x="577" d="M510 17 L510 502 C510 524 499 533 447 533 C399 533 385 526 384 507 L383 485 C347 525 292 537 261 537 C103 537 34 409 34 264 C34 115 97 -1 265 -1 C298 -1 350 10 383 45 L383 7 C383 -92 325 -127 255 -127 C218 -127 181 -121 144 -104 C135 -99 127 -97 123 -97 C105 -97 95 -134 95 -155 C95 -187 116 -204 151 -217 C173 -225 216 -233 255 -233 C410 -233 510 -169 510 17 L510 17 Z M279 103 C203 103 166 164 166 264 C166 352 197 430 279 430 C344 430 384 389 384 314 L384 236 C384 197 376 165 362 143 C340 109 302 103 279 103 L279 103 Z " />
<glyph glyph-name="h" unicode="h" horiz-adv-x="596" d="M529 23 L529 330 C529 447 476 537 333 537 C281 537 233 518 198 485 L198 733 C198 755 185 764 133 764 C80 764 67 755 67 733 L67 23 C67 1 80 -7 133 -7 C185 -7 198 1 198 23 L198 337 C200 357 207 375 214 385 C237 416 273 428 303 428 C331 428 354 420 370 404 C390 385 398 362 398 318 L398 23 C398 1 411 -7 464 -7 C516 -7 529 1 529 23 L529 23 Z " />
<glyph glyph-name="i" unicode="i" horiz-adv-x="284" d="M208 23 L208 502 C208 524 194 533 142 533 C89 533 76 524 76 502 L76 23 C76 1 89 -7 142 -7 C194 -7 208 1 208 23 L208 23 Z M141 610 C185 610 222 645 222 688 C222 731 185 766 142 766 C97 766 61 731 61 688 C61 645 97 610 141 610 L141 610 Z " />
<glyph glyph-name="j" unicode="j" horiz-adv-x="343" d="M64 -233 C197 -233 256 -159 256 -27 L256 502 C256 524 242 533 190 533 C136 533 124 524 124 502 L124 -31 C124 -89 102 -128 47 -128 C34 -128 17 -125 2 -121 C-6 -118 -12 -116 -18 -116 C-36 -116 -39 -154 -39 -166 C-39 -221 16 -233 64 -233 L64 -233 Z M189 610 C233 610 270 645 270 688 C270 731 233 766 190 766 C145 766 109 731 109 688 C109 645 145 610 189 610 L189 610 Z " />
<glyph glyph-name="k" unicode="k" horiz-adv-x="526" d="M199 201 L334 38 C363 2 386 -7 436 -7 C481 -7 504 -1 504 16 C504 23 499 30 488 44 L275 287 L460 488 C471 500 474 507 474 514 C474 529 445 533 412 533 C360 533 338 527 311 495 L199 365 L199 733 C199 755 185 764 133 764 C80 764 67 755 67 733 L67 23 C67 1 80 -7 133 -7 C185 -7 199 1 199 23 L199 201 Z " />
<glyph glyph-name="l" unicode="l" horiz-adv-x="298" d="M161 -9 C222 -9 259 22 259 78 C259 96 254 97 239 97 L221 97 C208 97 199 106 199 123 L199 733 C199 755 185 764 133 764 C80 764 67 755 67 733 L67 89 C67 26 104 -9 161 -9 L161 -9 Z " />
<glyph glyph-name="m" unicode="m" horiz-adv-x="909" d="M842 23 L842 330 C842 447 792 537 649 537 C588 537 531 515 487 461 C459 507 409 537 328 537 C274 537 226 515 189 475 L187 503 C184 524 166 533 125 533 C74 533 67 523 67 499 L67 23 C67 1 80 -7 133 -7 C185 -7 198 1 198 23 L198 332 C200 353 206 372 216 386 C237 416 268 428 298 428 C324 428 344 421 361 408 C382 390 390 363 390 317 L390 23 C390 1 403 -7 456 -7 C508 -7 521 1 521 23 L521 326 C522 349 527 367 535 381 C554 414 586 428 619 428 C645 428 665 421 681 408 C703 390 710 363 710 317 L710 23 C710 1 726 -7 780 -7 C832 -7 842 1 842 23 L842 23 Z " />
<glyph glyph-name="n" unicode="n" horiz-adv-x="594" d="M527 23 L527 330 C527 447 475 537 332 537 C277 537 227 515 189 475 L185 503 C183 524 166 533 125 533 C74 533 67 523 67 499 L67 23 C67 1 80 -7 133 -7 C185 -7 198 1 198 23 L198 332 C200 353 206 372 216 385 C237 416 270 428 302 428 C326 428 349 421 364 409 C386 390 395 363 395 317 L395 23 C395 1 409 -7 461 -7 C514 -7 527 1 527 23 L527 23 Z " />
<glyph glyph-name="o" unicode="o" horiz-adv-x="572" d="M284 -9 C441 -9 533 111 533 264 C533 410 454 537 284 537 C112 537 34 410 34 264 C34 111 124 -9 284 -9 L284 -9 Z M284 96 C211 96 168 169 168 264 C168 354 204 431 284 431 C362 431 398 354 398 264 C398 169 355 96 284 96 L284 96 Z " />
<glyph glyph-name="p" unicode="p" horiz-adv-x="588" d="M203 34 C240 -1 286 -9 316 -9 C476 -9 548 125 548 270 C548 412 491 537 328 537 C284 537 230 522 194 484 L192 505 C190 526 172 533 131 533 C78 533 73 523 73 499 L73 -197 C73 -219 85 -227 137 -227 C191 -227 203 -219 203 -197 L203 34 Z M298 98 C249 98 210 124 201 153 L201 332 C209 411 262 431 306 431 C381 431 416 369 416 270 C416 181 382 98 298 98 L298 98 Z " />
<glyph glyph-name="q" unicode="q" horiz-adv-x="584" d="M507 -101 L507 470 C507 490 497 500 476 508 C423 527 367 537 314 537 C149 537 34 436 34 260 C34 90 117 -9 244 -9 C292 -9 341 8 375 40 L375 -134 C375 -198 412 -233 469 -233 C531 -233 567 -201 567 -146 C567 -127 562 -126 547 -126 L529 -126 C516 -126 507 -117 507 -101 L507 -101 Z M276 97 C201 97 168 163 168 259 C168 384 231 433 318 433 C337 433 356 431 376 426 L376 183 C376 113 311 97 276 97 L276 97 Z " />
<glyph glyph-name="r" unicode="r" horiz-adv-x="392" d="M199 23 L199 225 C199 274 209 338 249 380 C266 398 287 409 315 412 C326 413 336 414 353 413 C373 412 381 414 381 437 C381 510 338 535 295 535 C250 535 211 498 193 433 L190 504 C189 526 170 533 128 533 C76 533 67 523 67 499 L67 23 C67 1 80 -7 133 -7 C185 -7 199 1 199 23 L199 23 Z " />
<glyph glyph-name="s" unicode="s" horiz-adv-x="483" d="M438 162 C438 270 344 299 261 319 C210 332 173 346 173 384 C173 410 195 435 250 435 C277 435 315 426 355 402 C363 398 369 393 375 393 C385 393 393 403 402 419 C411 433 414 447 414 458 C414 478 403 491 388 500 C346 525 304 537 246 537 C116 537 50 452 50 374 C50 260 141 233 223 212 C271 200 314 187 314 151 C314 107 269 94 226 94 C195 94 152 104 107 128 C99 133 94 136 88 136 C79 136 71 126 61 107 C55 93 50 78 50 66 C50 49 58 35 77 26 C118 7 174 -9 226 -9 C352 -9 438 46 438 162 L438 162 Z " />
<glyph glyph-name="t" unicode="t" horiz-adv-x="395" d="M235 429 L296 429 C342 429 362 447 362 499 C362 527 352 528 333 528 L235 528 L235 655 C235 677 221 686 169 686 C116 686 103 677 103 655 L103 528 L50 528 C30 528 22 522 22 477 C22 433 30 429 50 429 L103 429 L103 172 C103 114 106 73 127 40 C151 4 192 -12 249 -12 C312 -12 367 30 367 94 C367 105 363 111 354 111 C346 111 323 94 293 94 C267 94 251 104 245 117 C236 134 235 154 235 194 L235 429 Z " />
<glyph glyph-name="u" unicode="u" horiz-adv-x="592" d="M522 132 L522 502 C522 524 508 533 456 533 C402 533 390 524 390 502 L390 208 C390 185 383 165 374 150 C352 112 315 99 289 99 C261 99 238 107 221 122 C201 140 193 165 193 210 L193 502 C193 524 180 533 126 533 C74 533 61 524 61 502 L61 199 C61 82 114 -9 257 -9 C316 -9 366 15 399 55 C411 9 436 -9 469 -9 C515 -9 532 1 529 25 L522 132 Z " />
<glyph glyph-name="v" unicode="v" horiz-adv-x="543" d="M361 32 L522 493 C525 503 526 508 526 513 C526 526 512 533 470 533 C419 533 389 510 374 461 L275 124 L156 504 C149 527 128 533 84 533 C21 533 11 517 20 494 L188 34 C202 -6 225 -7 275 -7 C323 -7 347 -7 361 32 L361 32 Z " />
<glyph glyph-name="w" unicode="w" horiz-adv-x="793" d="M641 32 L772 489 C775 500 776 507 776 512 C776 525 764 533 726 533 C675 533 649 510 638 461 L564 128 L477 491 C467 533 448 533 401 533 C353 533 333 532 324 491 L239 133 L153 504 C147 528 128 533 83 533 C20 533 12 515 19 490 L154 34 C166 -8 184 -7 233 -7 C283 -7 306 -8 315 32 L397 384 L479 35 C488 -6 510 -7 560 -7 C609 -7 630 -8 641 32 L641 32 Z " />
<glyph glyph-name="x" unicode="x" horiz-adv-x="519" d="M323 275 L470 489 C476 497 478 503 478 509 C478 523 460 533 410 533 C362 533 350 524 338 504 L261 369 L180 504 C166 525 146 533 99 533 C54 533 36 525 36 510 C36 505 38 499 45 489 L192 273 L30 36 C25 28 22 23 22 17 C22 2 42 -7 89 -7 C137 -7 149 1 161 21 L256 178 L351 21 C363 1 385 -7 433 -7 C478 -7 497 0 497 15 C497 21 494 27 488 36 L323 275 Z " />
<glyph glyph-name="y" unicode="y" horiz-adv-x="562" d="M367 18 L535 493 C538 503 540 508 540 512 C540 526 526 533 484 533 C432 533 402 513 388 464 L295 157 L181 505 C173 528 153 533 107 533 C45 533 35 517 44 494 L233 -9 C220 -45 203 -79 184 -98 C162 -121 140 -130 109 -130 C93 -130 71 -125 56 -120 C47 -116 40 -113 34 -113 C17 -113 11 -152 11 -165 C11 -192 27 -209 47 -219 C61 -227 90 -233 122 -233 C173 -233 232 -222 275 -170 C321 -113 338 -61 367 18 L367 18 Z " />
<glyph glyph-name="z" unicode="z" horiz-adv-x="460" d="M366 0 C412 0 432 19 432 71 C432 101 422 103 403 103 L187 103 L402 422 C417 443 423 459 423 487 C423 522 409 528 388 528 L68 528 C49 528 39 527 39 498 C39 446 59 427 105 427 L261 427 L45 105 C31 85 22 68 22 41 C22 7 37 0 58 0 L366 0 Z " />
<glyph glyph-name="braceleft" unicode="&#x7b;" horiz-adv-x="346" d="M146 307 C197 319 221 361 221 429 L221 610 C221 640 237 658 275 658 C304 658 330 662 330 719 C330 758 324 764 302 764 L252 764 C197 764 156 750 126 713 C106 687 95 651 95 605 L95 419 C95 399 84 369 51 359 C29 352 22 349 22 307 C22 266 29 262 51 255 C84 244 95 214 95 194 L95 2 C95 -44 106 -78 126 -104 C156 -142 197 -155 252 -155 L302 -155 C324 -155 330 -150 330 -112 C330 -54 304 -50 275 -50 C237 -50 221 -31 221 -2 L221 180 C221 248 197 294 146 307 L146 307 Z " />
<glyph glyph-name="bar" unicode="&#x7c;" horiz-adv-x="211" d="M166 -205 L166 688 C166 710 155 719 105 719 C55 719 45 710 45 688 L45 -205 C45 -227 55 -235 105 -235 C155 -235 166 -227 166 -205 L166 -205 Z " />
<glyph glyph-name="braceright" unicode="&#x7d;" horiz-adv-x="346" d="M324 307 C324 349 317 352 295 359 C262 369 251 399 251 419 L251 605 C251 651 240 687 220 713 C190 750 150 764 94 764 L45 764 C22 764 17 758 17 719 C17 662 42 658 71 658 C109 658 125 640 125 610 L125 429 C125 361 150 319 200 307 C150 294 125 248 125 180 L125 -2 C125 -31 109 -50 71 -50 C42 -50 17 -54 17 -112 C17 -150 22 -155 45 -155 L94 -155 C150 -155 190 -142 220 -104 C240 -78 251 -44 251 2 L251 194 C251 214 262 244 295 255 C317 262 324 266 324 307 L324 307 Z " />
<glyph glyph-name="asciitilde" unicode="&#x7e;" horiz-adv-x="575" d="M379 248 C491 248 531 345 531 419 C531 439 519 450 474 450 C427 450 416 443 412 421 C408 393 400 360 369 360 C346 360 330 382 304 407 C275 436 239 451 195 451 C84 451 45 355 45 281 C45 260 56 249 102 249 C147 249 160 257 163 278 C168 307 175 341 207 341 C228 341 246 318 270 294 C300 265 335 248 379 248 L379 248 Z " />
<glyph glyph-name="Adieresis" unicode="&#xc4;" horiz-adv-x="660" d="M451 179 L499 22 C506 -1 528 -7 574 -7 C635 -7 648 8 640 31 L411 684 C396 724 380 726 329 726 C279 726 262 722 249 682 L20 31 C12 8 24 -7 87 -7 C133 -7 153 -1 160 22 L208 179 L451 179 Z M421 281 L239 281 L329 584 L421 281 Z M224 793 C267 793 300 826 300 869 C300 910 267 944 224 944 C183 944 149 910 149 869 C149 826 183 793 224 793 L224 793 Z M435 793 C478 793 511 826 511 869 C511 910 478 944 435 944 C394 944 360 910 360 869 C360 826 394 793 435 793 L435 793 Z " />
<glyph glyph-name="Aring" unicode="&#xc5;" horiz-adv-x="660" d="M451 179 L499 22 C506 -1 528 -7 574 -7 C635 -7 648 8 640 31 L411 684 C396 724 380 726 329 726 C279 726 262 722 249 682 L20 31 C12 8 24 -7 87 -7 C133 -7 153 -1 160 22 L208 179 L451 179 Z M421 281 L239 281 L329 584 L421 281 Z M329 762 C400 762 456 809 456 879 C456 947 400 994 329 994 C262 994 204 947 204 879 C204 809 262 762 329 762 L329 762 Z M329 839 C312 839 297 855 297 878 C297 900 312 917 329 917 C347 917 363 900 363 878 C363 855 347 839 329 839 L329 839 Z " />
<glyph glyph-name="Ccedilla" unicode="&#xc7;" horiz-adv-x="589" d="M361 -63 L382 -11 C421 -8 464 1 497 17 C533 32 541 57 541 79 C541 90 536 104 531 115 C521 135 513 141 505 141 C500 141 493 135 485 131 C446 109 400 101 360 101 C230 101 178 220 178 360 C178 508 244 621 361 621 C402 621 443 612 485 585 C493 580 498 576 504 576 C513 576 522 586 533 607 C541 620 544 633 544 647 C544 668 533 682 515 694 C472 719 410 732 357 732 C154 732 39 573 39 360 C39 178 108 20 293 -7 L271 -67 C261 -93 265 -111 296 -112 C330 -113 348 -124 348 -145 C348 -165 328 -174 301 -174 C285 -174 268 -170 259 -168 C239 -162 233 -166 223 -200 C212 -236 220 -240 239 -247 C261 -255 293 -260 319 -260 C397 -260 475 -228 475 -150 C475 -101 441 -61 376 -61 C370 -61 363 -63 361 -63 L361 -63 Z " />
<glyph glyph-name="Eacute" unicode="&#xc9;" horiz-adv-x="566" d="M458 0 C487 0 516 3 516 60 C516 102 510 108 489 108 L213 108 L213 308 L412 308 C441 308 470 311 470 369 C470 410 465 416 442 416 L213 416 L213 610 L454 610 C483 610 512 613 512 671 C512 713 506 719 485 719 L121 719 C97 719 78 700 78 677 L78 42 C78 19 97 0 121 0 L458 0 Z M374 953 C313 953 305 952 289 925 L222 814 C217 805 214 800 214 793 C214 780 229 774 266 774 C315 774 325 781 338 797 L428 906 C436 916 440 925 440 931 C440 952 419 953 374 953 L374 953 Z " />
<glyph glyph-name="Ntilde" unicode="&#xd1;" horiz-adv-x="712" d="M633 27 L633 695 C633 717 617 726 566 726 C517 726 502 717 502 695 L504 239 L227 676 C207 708 185 726 136 726 C83 726 78 714 78 691 L78 25 C78 1 95 -7 144 -7 C194 -7 210 1 210 25 L207 491 L485 44 C506 10 526 -7 575 -7 C630 -7 633 4 633 27 L633 27 Z M439 914 C437 893 435 867 416 867 C389 867 375 947 290 947 C191 947 167 868 167 803 C167 786 173 773 218 773 C265 773 270 783 272 804 C275 824 276 851 295 851 C323 851 336 771 421 771 C520 771 544 850 544 915 C544 931 538 945 494 945 C447 945 441 935 439 914 L439 914 Z " />
<glyph glyph-name="Odieresis" unicode="&#xd6;" horiz-adv-x="713" d="M356 -12 C575 -12 674 162 674 360 C674 565 560 732 356 732 C153 732 39 565 39 360 C39 162 136 -12 356 -12 L356 -12 Z M356 98 C238 98 180 222 180 360 C180 506 246 621 356 621 C466 621 532 506 532 360 C532 222 474 98 356 98 L356 98 Z M250 793 C293 793 326 826 326 869 C326 910 293 944 250 944 C209 944 175 910 175 869 C175 826 209 793 250 793 L250 793 Z M461 793 C504 793 537 826 537 869 C537 910 504 944 461 944 C420 944 386 910 386 869 C386 826 420 793 461 793 L461 793 Z " />
<glyph glyph-name="Udieresis" unicode="&#xdc;" horiz-adv-x="703" d="M352 -12 C457 -12 528 16 573 70 C619 125 630 199 630 297 L630 695 C630 717 617 726 563 726 C509 726 495 717 495 695 L496 307 C496 248 491 203 474 166 C454 124 413 99 352 99 C290 99 250 124 230 166 C212 203 210 248 210 307 L211 695 C211 717 195 726 142 726 C88 726 73 717 73 695 L73 297 C73 199 84 125 130 70 C174 16 246 -12 352 -12 L352 -12 Z M245 793 C288 793 321 826 321 869 C321 910 288 944 245 944 C204 944 170 910 170 869 C170 826 204 793 245 793 L245 793 Z M456 793 C499 793 532 826 532 869 C532 910 499 944 456 944 C415 944 381 910 381 869 C381 826 415 793 456 793 L456 793 Z " />
<glyph glyph-name="aacute" unicode="&#xe1;" horiz-adv-x="582" d="M510 118 L510 502 C510 524 499 533 447 533 C399 533 385 526 384 507 L383 485 C347 525 293 537 261 537 C102 537 34 405 34 258 C34 111 97 -9 264 -9 C300 -9 362 4 397 48 C407 8 429 -9 462 -9 C513 -9 522 1 519 25 L510 118 Z M279 95 C204 95 166 159 166 258 C166 347 197 431 279 430 C344 429 384 389 384 314 L384 228 C384 191 378 161 364 140 C343 104 304 95 279 95 L279 95 Z M365 761 C304 761 296 760 280 733 L213 622 C208 613 205 608 205 601 C205 588 220 582 257 582 C306 582 316 589 329 605 L419 714 C427 724 431 733 431 739 C431 760 410 761 365 761 L365 761 Z " />
<glyph glyph-name="agrave" unicode="&#xe0;" horiz-adv-x="582" d="M510 118 L510 502 C510 524 499 533 447 533 C399 533 385 526 384 507 L383 485 C347 525 293 537 261 537 C102 537 34 405 34 258 C34 111 97 -9 264 -9 C300 -9 362 4 397 48 C407 8 429 -9 462 -9 C513 -9 522 1 519 25 L510 118 Z M279 95 C204 95 166 159 166 258 C166 347 197 431 279 430 C344 429 384 389 384 314 L384 228 C384 191 378 161 364 140 C343 104 304 95 279 95 L279 95 Z M210 761 C166 761 144 760 144 739 C144 733 149 724 157 714 L246 605 C259 589 269 582 319 582 C355 582 370 588 370 601 C370 608 368 613 362 622 L295 733 C279 760 272 761 210 761 L210 761 Z " />
<glyph glyph-name="acircumflex" unicode="&#xe2;" horiz-adv-x="582" d="M510 118 L510 502 C510 524 499 533 447 533 C399 533 385 526 384 507 L383 485 C347 525 293 537 261 537 C102 537 34 405 34 258 C34 111 97 -9 264 -9 C300 -9 362 4 397 48 C407 8 429 -9 462 -9 C513 -9 522 1 519 25 L510 118 Z M279 95 C204 95 166 159 166 258 C166 347 197 431 279 430 C344 429 384 389 384 314 L384 228 C384 191 378 161 364 140 C343 104 304 95 279 95 L279 95 Z M386 734 C368 758 365 762 291 762 C218 762 214 758 196 734 L118 620 C113 611 109 605 109 599 C109 585 124 580 161 580 C210 580 220 586 233 603 L291 678 L349 603 C363 586 373 580 422 580 C459 580 473 585 473 599 C473 605 470 611 465 620 L386 734 Z " />
<glyph glyph-name="adieresis" unicode="&#xe4;" horiz-adv-x="582" d="M510 118 L510 502 C510 524 499 533 447 533 C399 533 385 526 384 507 L383 485 C347 525 293 537 261 537 C102 537 34 405 34 258 C34 111 97 -9 264 -9 C300 -9 362 4 397 48 C407 8 429 -9 462 -9 C513 -9 522 1 519 25 L510 118 Z M279 95 C204 95 166 159 166 258 C166 347 197 431 279 430 C344 429 384 389 384 314 L384 228 C384 191 378 161 364 140 C343 104 304 95 279 95 L279 95 Z M185 601 C228 601 261 634 261 677 C261 718 228 752 185 752 C144 752 110 718 110 677 C110 634 144 601 185 601 L185 601 Z M396 601 C439 601 472 634 472 677 C472 718 439 752 396 752 C355 752 321 718 321 677 C321 634 355 601 396 601 L396 601 Z " />
<glyph glyph-name="atilde" unicode="&#xe3;" horiz-adv-x="582" d="M510 118 L510 502 C510 524 499 533 447 533 C399 533 385 526 384 507 L383 485 C347 525 293 537 261 537 C102 537 34 405 34 258 C34 111 97 -9 264 -9 C300 -9 362 4 397 48 C407 8 429 -9 462 -9 C513 -9 522 1 519 25 L510 118 Z M279 95 C204 95 166 159 166 258 C166 347 197 431 279 430 C344 429 384 389 384 314 L384 228 C384 191 378 161 364 140 C343 104 304 95 279 95 L279 95 Z M374 722 C372 701 370 675 351 675 C324 675 310 755 225 755 C126 755 102 676 102 611 C102 594 108 581 153 581 C200 581 205 591 207 612 C210 632 211 659 230 659 C258 659 271 579 356 579 C455 579 479 658 479 723 C479 739 473 753 429 753 C382 753 376 743 374 722 L374 722 Z " />
<glyph glyph-name="aring" unicode="&#xe5;" horiz-adv-x="582" d="M510 118 L510 502 C510 524 499 533 447 533 C399 533 385 526 384 507 L383 485 C347 525 293 537 261 537 C102 537 34 405 34 258 C34 111 97 -9 264 -9 C300 -9 362 4 397 48 C407 8 429 -9 462 -9 C513 -9 522 1 519 25 L510 118 Z M279 95 C204 95 166 159 166 258 C166 347 197 431 279 430 C344 429 384 389 384 314 L384 228 C384 191 378 161 364 140 C343 104 304 95 279 95 L279 95 Z M290 570 C361 570 417 617 417 687 C417 755 361 802 290 802 C223 802 165 755 165 687 C165 617 223 570 290 570 L290 570 Z M290 647 C273 647 258 663 258 686 C258 708 273 725 290 725 C308 725 324 708 324 686 C324 663 308 647 290 647 L290 647 Z " />
<glyph glyph-name="ccedilla" unicode="&#xe7;" horiz-adv-x="507" d="M299 -53 L318 -7 C351 -4 392 6 423 25 C443 37 456 54 456 77 C456 86 454 98 448 111 C440 126 432 135 423 135 C419 135 410 130 403 126 C361 104 326 97 298 97 C217 97 166 159 166 258 C166 355 213 429 297 429 C334 429 367 419 404 394 C411 390 418 385 422 385 C432 385 441 393 451 412 C458 426 462 439 462 451 C462 474 450 487 432 499 C392 526 341 537 287 537 C114 537 34 401 34 258 C34 114 102 17 229 -4 L209 -57 C199 -83 203 -101 234 -102 C268 -103 286 -114 286 -135 C286 -155 266 -164 239 -164 C223 -164 206 -160 197 -158 C177 -152 171 -156 161 -190 C150 -226 158 -230 177 -237 C199 -245 231 -250 257 -250 C335 -250 413 -218 413 -140 C413 -91 379 -51 314 -51 C308 -51 301 -53 299 -53 L299 -53 Z " />
<glyph glyph-name="eacute" unicode="&#xe9;" horiz-adv-x="555" d="M169 220 L479 220 C507 220 510 232 510 261 C510 428 430 537 274 537 C111 537 34 407 34 265 C34 73 151 -9 293 -9 C392 -9 479 40 479 121 C479 131 476 145 466 145 C461 145 455 142 448 137 C408 112 359 97 308 97 C237 97 174 132 169 220 L169 220 Z M381 308 L170 308 C176 374 209 433 278 433 C350 433 379 375 381 308 L381 308 Z M359 761 C298 761 290 760 274 733 L207 622 C202 613 199 608 199 601 C199 588 214 582 251 582 C300 582 310 589 323 605 L413 714 C421 724 425 733 425 739 C425 760 404 761 359 761 L359 761 Z " />
<glyph glyph-name="egrave" unicode="&#xe8;" horiz-adv-x="555" d="M169 220 L479 220 C507 220 510 232 510 261 C510 428 430 537 274 537 C111 537 34 407 34 265 C34 73 151 -9 293 -9 C392 -9 479 40 479 121 C479 131 476 145 466 145 C461 145 455 142 448 137 C408 112 359 97 308 97 C237 97 174 132 169 220 L169 220 Z M381 308 L170 308 C176 374 209 433 278 433 C350 433 379 375 381 308 L381 308 Z M194 761 C150 761 128 760 128 739 C128 733 133 724 141 714 L230 605 C243 589 253 582 303 582 C339 582 354 588 354 601 C354 608 352 613 346 622 L279 733 C263 760 256 761 194 761 L194 761 Z " />
<glyph glyph-name="ecircumflex" unicode="&#xea;" horiz-adv-x="555" d="M169 220 L479 220 C507 220 510 232 510 261 C510 428 430 537 274 537 C111 537 34 407 34 265 C34 73 151 -9 293 -9 C392 -9 479 40 479 121 C479 131 476 145 466 145 C461 145 455 142 448 137 C408 112 359 97 308 97 C237 97 174 132 169 220 L169 220 Z M381 308 L170 308 C176 374 209 433 278 433 C350 433 379 375 381 308 L381 308 Z M372 734 C354 758 351 762 277 762 C204 762 200 758 182 734 L104 620 C99 611 95 605 95 599 C95 585 110 580 147 580 C196 580 206 586 219 603 L277 678 L335 603 C349 586 359 580 408 580 C445 580 459 585 459 599 C459 605 456 611 451 620 L372 734 Z " />
<glyph glyph-name="edieresis" unicode="&#xeb;" horiz-adv-x="555" d="M169 220 L479 220 C507 220 510 232 510 261 C510 428 430 537 274 537 C111 537 34 407 34 265 C34 73 151 -9 293 -9 C392 -9 479 40 479 121 C479 131 476 145 466 145 C461 145 455 142 448 137 C408 112 359 97 308 97 C237 97 174 132 169 220 L169 220 Z M381 308 L170 308 C176 374 209 433 278 433 C350 433 379 375 381 308 L381 308 Z M171 601 C214 601 247 634 247 677 C247 718 214 752 171 752 C130 752 96 718 96 677 C96 634 130 601 171 601 L171 601 Z M382 601 C425 601 458 634 458 677 C458 718 425 752 382 752 C341 752 307 718 307 677 C307 634 341 601 382 601 L382 601 Z " />
<glyph glyph-name="iacute" unicode="&#xed;" horiz-adv-x="284" d="M208 23 L208 502 C208 524 195 533 143 533 C89 533 76 524 76 502 L76 23 C76 1 89 -7 143 -7 C195 -7 208 1 208 23 L208 23 Z M223 761 C162 761 154 760 138 733 L71 622 C66 613 63 608 63 601 C63 588 78 582 115 582 C164 582 174 589 187 605 L277 714 C285 724 289 733 289 739 C289 760 268 761 223 761 L223 761 Z " />
<glyph glyph-name="igrave" unicode="&#xec;" horiz-adv-x="284" d="M208 23 L208 502 C208 524 195 533 143 533 C89 533 76 524 76 502 L76 23 C76 1 89 -7 143 -7 C195 -7 208 1 208 23 L208 23 Z M56 761 C12 761 -10 760 -10 739 C-10 733 -5 724 3 714 L92 605 C105 589 115 582 165 582 C201 582 216 588 216 601 C216 608 214 613 208 622 L141 733 C125 760 118 761 56 761 L56 761 Z " />
<glyph glyph-name="icircumflex" unicode="&#xee;" horiz-adv-x="284" d="M208 23 L208 502 C208 524 195 533 143 533 C89 533 76 524 76 502 L76 23 C76 1 89 -7 143 -7 C195 -7 208 1 208 23 L208 23 Z M237 734 C219 758 216 762 142 762 C69 762 65 758 47 734 L-31 620 C-36 611 -40 605 -40 599 C-40 585 -25 580 12 580 C61 580 71 586 84 603 L142 678 L200 603 C214 586 224 580 273 580 C310 580 324 585 324 599 C324 605 321 611 316 620 L237 734 Z " />
<glyph glyph-name="idieresis" unicode="&#xef;" horiz-adv-x="284" d="M208 23 L208 502 C208 524 195 533 143 533 C89 533 76 524 76 502 L76 23 C76 1 89 -7 143 -7 C195 -7 208 1 208 23 L208 23 Z M36 601 C79 601 112 634 112 677 C112 718 79 752 36 752 C-5 752 -39 718 -39 677 C-39 634 -5 601 36 601 L36 601 Z M247 601 C290 601 323 634 323 677 C323 718 290 752 247 752 C206 752 172 718 172 677 C172 634 206 601 247 601 L247 601 Z " />
<glyph glyph-name="ntilde" unicode="&#xf1;" horiz-adv-x="594" d="M527 23 L527 330 C527 447 475 537 332 537 C277 537 227 515 189 475 L185 503 C183 524 166 533 125 533 C74 533 67 523 67 499 L67 23 C67 1 80 -7 133 -7 C185 -7 198 1 198 23 L198 332 C200 353 206 372 216 385 C237 416 270 428 302 428 C326 428 349 421 364 409 C386 390 395 363 395 317 L395 23 C395 1 409 -7 461 -7 C514 -7 527 1 527 23 L527 23 Z M380 722 C378 701 376 675 357 675 C330 675 316 755 231 755 C132 755 108 676 108 611 C108 594 114 581 159 581 C206 581 211 591 213 612 C216 632 217 659 236 659 C264 659 277 579 362 579 C461 579 485 658 485 723 C485 739 479 753 435 753 C388 753 382 743 380 722 L380 722 Z " />
<glyph glyph-name="oacute" unicode="&#xf3;" horiz-adv-x="572" d="M284 -9 C441 -9 533 111 533 264 C533 410 454 537 284 537 C112 537 34 410 34 264 C34 111 124 -9 284 -9 L284 -9 Z M284 96 C211 96 168 169 168 264 C168 354 204 431 284 431 C362 431 398 354 398 264 C398 169 355 96 284 96 L284 96 Z M373 761 C312 761 304 760 288 733 L221 622 C216 613 213 608 213 601 C213 588 228 582 265 582 C314 582 324 589 337 605 L427 714 C435 724 439 733 439 739 C439 760 418 761 373 761 L373 761 Z " />
<glyph glyph-name="ograve" unicode="&#xf2;" horiz-adv-x="572" d="M284 -9 C441 -9 533 111 533 264 C533 410 454 537 284 537 C112 537 34 410 34 264 C34 111 124 -9 284 -9 L284 -9 Z M284 96 C211 96 168 169 168 264 C168 354 204 431 284 431 C362 431 398 354 398 264 C398 169 355 96 284 96 L284 96 Z M209 761 C165 761 143 760 143 739 C143 733 148 724 156 714 L245 605 C258 589 268 582 318 582 C354 582 369 588 369 601 C369 608 367 613 361 622 L294 733 C278 760 271 761 209 761 L209 761 Z " />
<glyph glyph-name="ocircumflex" unicode="&#xf4;" horiz-adv-x="572" d="M284 -9 C441 -9 533 111 533 264 C533 410 454 537 284 537 C112 537 34 410 34 264 C34 111 124 -9 284 -9 L284 -9 Z M284 96 C211 96 168 169 168 264 C168 354 204 431 284 431 C362 431 398 354 398 264 C398 169 355 96 284 96 L284 96 Z M381 734 C363 758 360 762 286 762 C213 762 209 758 191 734 L113 620 C108 611 104 605 104 599 C104 585 119 580 156 580 C205 580 215 586 228 603 L286 678 L344 603 C358 586 368 580 417 580 C454 580 468 585 468 599 C468 605 465 611 460 620 L381 734 Z " />
<glyph glyph-name="odieresis" unicode="&#xf6;" horiz-adv-x="572" d="M284 -9 C441 -9 533 111 533 264 C533 410 454 537 284 537 C112 537 34 410 34 264 C34 111 124 -9 284 -9 L284 -9 Z M284 96 C211 96 168 169 168 264 C168 354 204 431 284 431 C362 431 398 354 398 264 C398 169 355 96 284 96 L284 96 Z M180 601 C223 601 256 634 256 677 C256 718 223 752 180 752 C139 752 105 718 105 677 C105 634 139 601 180 601 L180 601 Z M391 601 C434 601 467 634 467 677 C467 718 434 752 391 752 C350 752 316 718 316 677 C316 634 350 601 391 601 L391 601 Z " />
<glyph glyph-name="otilde" unicode="&#xf5;" horiz-adv-x="572" d="M284 -9 C441 -9 533 111 533 264 C533 410 454 537 284 537 C112 537 34 410 34 264 C34 111 124 -9 284 -9 L284 -9 Z M284 96 C211 96 168 169 168 264 C168 354 204 431 284 431 C362 431 398 354 398 264 C398 169 355 96 284 96 L284 96 Z M369 722 C367 701 365 675 346 675 C319 675 305 755 220 755 C121 755 97 676 97 611 C97 594 103 581 148 581 C195 581 200 591 202 612 C205 632 206 659 225 659 C253 659 266 579 351 579 C450 579 474 658 474 723 C474 739 468 753 424 753 C377 753 371 743 369 722 L369 722 Z " />
<glyph glyph-name="uacute" unicode="&#xfa;" horiz-adv-x="592" d="M522 132 L522 502 C522 524 508 533 456 533 C402 533 390 524 390 502 L390 208 C390 185 383 165 374 150 C352 112 315 99 289 99 C261 99 238 107 221 122 C201 140 193 165 193 210 L193 502 C193 524 180 533 126 533 C74 533 61 524 61 502 L61 199 C61 82 114 -9 257 -9 C316 -9 366 15 399 55 C411 9 436 -9 469 -9 C515 -9 532 1 529 25 L522 132 Z M383 761 C322 761 314 760 298 733 L231 622 C226 613 223 608 223 601 C223 588 238 582 275 582 C324 582 334 589 347 605 L437 714 C445 724 449 733 449 739 C449 760 428 761 383 761 L383 761 Z " />
<glyph glyph-name="ugrave" unicode="&#xf9;" horiz-adv-x="592" d="M522 132 L522 502 C522 524 508 533 456 533 C402 533 390 524 390 502 L390 208 C390 185 383 165 374 150 C352 112 315 99 289 99 C261 99 238 107 221 122 C201 140 193 165 193 210 L193 502 C193 524 180 533 126 533 C74 533 61 524 61 502 L61 199 C61 82 114 -9 257 -9 C316 -9 366 15 399 55 C411 9 436 -9 469 -9 C515 -9 532 1 529 25 L522 132 Z M216 761 C172 761 150 760 150 739 C150 733 155 724 163 714 L252 605 C265 589 275 582 325 582 C361 582 376 588 376 601 C376 608 374 613 368 622 L301 733 C285 760 278 761 216 761 L216 761 Z " />
<glyph glyph-name="ucircumflex" unicode="&#xfb;" horiz-adv-x="592" d="M522 132 L522 502 C522 524 508 533 456 533 C402 533 390 524 390 502 L390 208 C390 185 383 165 374 150 C352 112 315 99 289 99 C261 99 238 107 221 122 C201 140 193 165 193 210 L193 502 C193 524 180 533 126 533 C74 533 61 524 61 502 L61 199 C61 82 114 -9 257 -9 C316 -9 366 15 399 55 C411 9 436 -9 469 -9 C515 -9 532 1 529 25 L522 132 Z M391 734 C373 758 370 762 296 762 C223 762 219 758 201 734 L123 620 C118 611 114 605 114 599 C114 585 129 580 166 580 C215 580 225 586 238 603 L296 678 L354 603 C368 586 378 580 427 580 C464 580 478 585 478 599 C478 605 475 611 470 620 L391 734 Z " />
<glyph glyph-name="udieresis" unicode="&#xfc;" horiz-adv-x="592" d="M522 132 L522 502 C522 524 508 533 456 533 C402 533 390 524 390 502 L390 208 C390 185 383 165 374 150 C352 112 315 99 289 99 C261 99 238 107 221 122 C201 140 193 165 193 210 L193 502 C193 524 180 533 126 533 C74 533 61 524 61 502 L61 199 C61 82 114 -9 257 -9 C316 -9 366 15 399 55 C411 9 436 -9 469 -9 C515 -9 532 1 529 25 L522 132 Z M190 601 C233 601 266 634 266 677 C266 718 233 752 190 752 C149 752 115 718 115 677 C115 634 149 601 190 601 L190 601 Z M401 601 C444 601 477 634 477 677 C477 718 444 752 401 752 C360 752 326 718 326 677 C326 634 360 601 401 601 L401 601 Z " />
<glyph glyph-name="dagger" unicode="&#x2020;" horiz-adv-x="550" d="M340 385 L446 384 C475 384 505 389 505 446 C505 487 499 495 477 495 L340 495 L342 695 C342 717 326 726 273 726 C219 726 204 717 204 695 L206 495 L71 495 C50 495 45 487 45 446 C45 389 74 384 103 384 L206 385 L209 -124 C209 -147 220 -155 273 -155 C325 -155 336 -147 336 -124 L340 385 Z " />
<glyph glyph-name="degree" unicode="&#xb0;" horiz-adv-x="344" d="M172 470 C273 470 333 538 333 622 C333 706 273 774 172 774 C71 774 11 706 11 622 C11 538 71 470 172 470 L172 470 Z M172 561 C142 561 124 592 124 622 C124 653 142 684 172 684 C201 684 221 653 221 622 C221 591 201 561 172 561 L172 561 Z " />
<glyph glyph-name="cent" unicode="&#xa2;" horiz-adv-x="508" d="M338 94 C366 98 395 107 420 122 C440 134 454 151 454 175 C454 194 439 232 421 232 C417 232 409 227 402 223 C360 202 324 197 296 197 C218 197 166 258 166 356 C166 457 214 528 297 528 C334 528 370 515 405 493 C413 488 419 484 424 484 C435 484 443 496 452 512 C459 525 464 540 464 550 C464 572 451 588 433 599 C408 614 375 626 341 631 L341 694 C341 716 331 726 278 726 C226 726 216 716 216 694 L216 627 C89 595 34 479 34 356 C34 221 96 124 212 98 L212 25 C212 2 222 -7 276 -7 C328 -7 338 2 338 25 L338 94 Z " />
<glyph glyph-name="sterling" unicode="&#xa3;" horiz-adv-x="522" d="M201 111 C244 153 252 206 252 264 L252 316 L389 316 C412 316 418 323 418 365 C418 408 412 414 389 414 L249 414 L248 476 C247 566 277 623 354 623 C384 623 413 614 446 596 C455 592 460 590 466 590 C476 590 484 600 491 619 C496 631 499 643 499 653 C499 675 487 694 457 707 C424 723 382 732 342 732 C287 732 233 717 194 686 C145 647 117 590 117 475 L117 414 L52 414 C29 414 22 408 22 365 C22 323 28 316 51 316 L120 316 L120 265 C120 197 104 144 60 111 C39 94 34 80 34 48 C34 -3 59 0 88 0 L440 0 C469 0 498 4 498 61 C498 103 493 111 471 111 L201 111 Z " />
<glyph glyph-name="section" unicode="&#xa7;" horiz-adv-x="534" d="M394 147 C454 175 489 226 489 286 C489 503 206 433 206 567 C206 610 250 629 288 629 C319 629 352 618 384 594 C393 588 400 585 407 585 C423 585 443 622 443 649 C443 670 431 688 404 703 C371 720 328 732 281 732 C147 732 74 651 74 569 C74 502 98 462 141 435 C83 404 45 356 45 285 C45 85 328 145 328 10 C328 -36 284 -58 233 -58 C200 -58 160 -46 125 -23 C115 -17 108 -15 103 -15 C85 -15 66 -52 66 -77 C66 -96 75 -113 95 -125 C132 -147 189 -162 240 -162 C367 -162 464 -102 464 15 C464 77 438 120 394 147 L394 147 Z M305 190 C233 212 174 235 174 295 C174 337 194 369 229 390 C289 367 361 355 361 286 C361 246 341 212 305 190 L305 190 Z " />
<glyph glyph-name="bullet" unicode="&#x2022;" horiz-adv-x="338" d="M152 230 C230 230 294 292 294 367 C294 442 230 504 152 504 C75 504 11 442 11 367 C11 292 75 230 152 230 L152 230 Z " />
<glyph glyph-name="paragraph" unicode="&#xb6;" horiz-adv-x="684" d="M404 -124 L404 570 C404 592 420 609 445 609 L580 609 C609 609 639 612 639 670 C639 712 633 719 611 719 L302 719 C155 719 45 614 45 474 C45 340 149 240 287 230 L287 -124 C287 -145 297 -155 346 -155 C393 -155 404 -145 404 -124 L404 -124 Z M572 -124 L572 543 C572 564 562 574 515 574 C466 574 457 564 457 543 L457 -124 C457 -145 466 -155 515 -155 C562 -155 572 -145 572 -124 L572 -124 Z " />
<glyph glyph-name="germandbls" unicode="&#xdf;" horiz-adv-x="628" d="M394 -11 C439 -11 480 -1 514 18 C563 47 589 96 589 156 C589 258 522 296 460 332 C428 351 400 372 400 411 C400 436 413 456 431 477 C460 510 493 546 493 604 C493 706 411 770 288 770 C144 770 67 679 67 544 L67 23 C67 1 76 -7 128 -7 C181 -7 192 1 192 23 L191 518 C191 573 201 621 237 650 C251 662 271 669 296 669 C332 669 371 651 371 602 C371 577 357 558 342 541 C311 507 275 474 275 408 C275 307 346 276 403 242 C436 223 469 203 469 160 C469 115 431 92 393 92 C357 92 325 105 294 125 C284 132 277 135 270 135 C262 135 255 127 247 112 C239 97 237 84 237 70 C237 45 254 29 285 15 C318 -1 357 -11 394 -11 L394 -11 Z " />
<glyph glyph-name="registered" unicode="&#xae;" horiz-adv-x="402" d="M201 479 C298 479 380 560 380 658 C380 755 298 837 201 837 C103 837 22 755 22 658 C22 560 103 479 201 479 L201 479 Z M201 524 C127 524 67 584 67 658 C67 732 127 792 201 792 C275 792 335 732 335 658 C335 584 275 524 201 524 L201 524 Z M256 658 C271 665 284 681 284 701 C284 727 273 745 251 754 C241 758 222 761 198 761 L142 761 C132 761 126 754 126 745 L126 573 C126 565 132 562 150 562 C168 562 175 565 175 573 L175 637 L192 637 C226 637 230 629 232 599 L235 574 C236 565 241 562 260 562 C280 562 287 565 286 574 L281 602 C279 618 278 647 256 658 L256 658 Z M175 679 L175 719 L194 719 C223 719 236 718 236 700 C236 679 209 679 195 679 L175 679 Z " />
<glyph glyph-name="copyright" unicode="&#xa9;" horiz-adv-x="881" d="M440 -16 C659 -16 837 162 837 380 C837 599 659 776 440 776 C222 776 45 599 45 380 C45 162 222 -16 440 -16 L440 -16 Z M440 52 C258 52 112 199 112 380 C112 562 258 708 440 708 C621 708 767 562 767 380 C767 199 621 52 440 52 L440 52 Z M639 303 C645 330 614 332 589 332 C551 332 542 326 537 309 C524 260 494 225 440 225 C363 225 337 298 336 369 C334 442 352 537 440 537 C495 537 526 503 536 458 C540 441 552 435 589 435 C613 435 643 439 640 464 C626 563 544 629 440 629 C296 629 225 505 229 369 C232 248 299 137 440 137 C548 137 619 208 639 303 L639 303 Z " />
<glyph glyph-name="trademark" unicode="&#x2122;" horiz-adv-x="524" d="M153 782 L225 781 C233 781 239 789 239 810 C239 832 233 834 225 834 L25 834 C17 834 11 832 11 810 C11 789 17 781 25 781 L95 782 L95 592 C95 584 103 579 124 579 C145 579 153 584 153 592 L153 782 Z M513 592 L513 821 C513 832 505 838 481 838 C457 838 442 837 435 814 L384 674 L334 814 C326 837 312 838 287 838 C264 838 256 832 256 821 L256 592 C256 584 266 579 287 579 C309 579 315 584 315 592 L314 719 L357 591 C360 584 365 579 385 579 C407 579 410 584 412 591 L455 719 L454 592 C454 584 464 579 484 579 C506 579 513 584 513 592 L513 592 Z " />
<glyph glyph-name="acute" unicode="&#xb4;" horiz-adv-x="266" d="M180 761 C119 761 111 760 95 733 L28 622 C23 613 20 608 20 601 C20 588 35 582 72 582 C121 582 131 589 144 605 L234 714 C242 724 246 733 246 739 C246 760 225 761 180 761 L180 761 Z " />
<glyph glyph-name="dieresis" unicode="&#xa8;" horiz-adv-x="402" d="M95 601 C138 601 171 634 171 677 C171 718 138 752 95 752 C54 752 20 718 20 677 C20 634 54 601 95 601 L95 601 Z M306 601 C349 601 382 634 382 677 C382 718 349 752 306 752 C265 752 231 718 231 677 C231 634 265 601 306 601 L306 601 Z " />
<glyph glyph-name="notequal" unicode="&#x2260;" horiz-adv-x="609" d="M534 209 C554 209 564 219 564 264 C564 308 554 319 534 319 L340 319 L376 404 L534 404 C554 404 564 414 564 459 C564 504 554 515 534 515 L428 515 L468 604 C478 627 476 641 419 641 C375 641 367 631 360 613 L316 515 L74 515 C52 515 44 504 44 459 C44 414 52 404 74 404 L268 404 L229 319 L74 319 C52 319 44 308 44 264 C44 219 52 209 74 209 L179 209 L137 118 C127 96 132 82 189 82 C232 82 240 92 248 109 L290 209 L534 209 Z " />
<glyph glyph-name="AE" unicode="&#xc6;" horiz-adv-x="842" d="M734 0 C763 0 792 3 792 60 C792 102 786 108 765 108 L523 108 L523 309 L688 309 C717 309 746 311 746 369 C746 410 741 414 718 414 L523 414 L523 610 L729 610 C758 610 787 613 787 671 C787 713 782 719 761 719 L405 719 C363 719 352 714 333 679 L-28 32 C-40 10 -29 -7 28 -7 C76 -7 94 3 104 21 L259 311 L398 311 L398 42 C398 19 416 0 439 0 L734 0 Z M398 412 L313 412 L399 576 L398 412 Z " />
<glyph glyph-name="Oslash" unicode="&#xd8;" horiz-adv-x="713" d="M356 -12 C575 -12 674 162 674 360 C674 485 631 595 551 662 L575 716 C585 738 579 752 523 752 C483 752 470 747 464 733 L456 715 C424 726 392 732 356 732 C153 732 39 565 39 360 C39 236 77 121 160 52 L134 -2 C124 -25 132 -39 188 -39 C236 -39 242 -30 250 -11 L256 2 C286 -8 318 -12 356 -12 L356 -12 Z M221 188 C193 233 180 294 180 360 C180 506 246 621 356 621 C376 621 394 617 411 610 L221 188 Z M302 108 L490 531 C517 486 532 427 532 360 C532 222 474 98 356 98 C335 98 318 102 302 108 L302 108 Z " />
<glyph glyph-name="infinity" unicode="&#x221e;" horiz-adv-x="753" d="M550 147 C642 147 731 221 731 360 C731 505 633 576 535 576 C451 576 408 536 372 478 C334 535 288 576 204 576 C111 576 22 503 22 365 C22 219 120 147 218 147 C302 147 345 188 381 247 C419 190 465 147 550 147 L550 147 Z M218 260 C172 260 130 294 130 362 C130 423 165 457 204 457 C258 457 293 421 319 367 C297 316 269 260 218 260 L218 260 Z M550 268 C493 268 460 302 432 357 C455 409 484 464 535 464 C581 464 624 430 624 363 C624 300 588 268 550 268 L550 268 Z " />
<glyph glyph-name="plusminus" unicode="&#xb1;" horiz-adv-x="609" d="M528 83 C548 83 558 92 558 136 C558 181 548 190 528 190 L79 190 C58 190 49 181 49 136 C49 92 58 83 79 83 L528 83 Z M364 379 L528 379 C548 379 558 388 558 432 C558 477 548 486 528 486 L364 486 L364 610 C364 632 354 642 303 642 C252 642 242 632 242 610 L242 486 L79 486 C58 486 49 477 49 432 C49 388 58 379 79 379 L242 379 L242 255 C242 232 252 223 303 223 C354 223 364 232 364 255 L364 379 Z " />
<glyph glyph-name="lessequal" unicode="&#x2264;" horiz-adv-x="609" d="M525 83 C546 83 555 92 555 136 C555 181 546 190 525 190 L87 190 C66 190 57 181 57 136 C57 92 66 83 87 83 L525 83 Z M225 432 L538 546 C550 551 556 557 556 571 C556 580 553 593 546 610 C534 641 526 651 513 651 C508 651 499 648 494 646 L79 487 C56 478 52 464 52 432 C52 400 57 385 79 376 L494 218 C499 216 508 212 514 212 C526 212 535 223 546 254 C553 271 556 285 556 294 C556 306 550 313 538 317 L225 432 Z " />
<glyph glyph-name="greaterequal" unicode="&#x2265;" horiz-adv-x="609" d="M522 83 C543 83 552 92 552 136 C552 181 543 190 522 190 L84 190 C63 190 54 181 54 136 C54 92 63 83 84 83 L522 83 Z M384 432 L70 317 C59 313 52 306 52 294 C52 285 56 271 63 254 C74 223 83 212 95 212 C101 212 109 216 115 218 L529 376 C553 385 556 400 556 432 C556 464 553 478 529 487 L115 646 C109 648 101 651 96 651 C83 651 75 641 63 610 C56 593 52 580 52 571 C52 557 59 551 70 546 L384 432 Z " />
<glyph glyph-name="yen" unicode="&#xa5;" horiz-adv-x="605" d="M370 25 L366 232 L499 232 C526 232 534 238 534 281 C534 324 526 331 499 331 L390 331 L418 389 L505 389 C532 389 540 395 540 438 C540 480 532 488 505 488 L466 488 L562 687 C564 693 566 699 566 704 C566 718 550 726 506 726 C449 726 424 707 404 657 L300 403 L184 697 C175 720 155 726 109 726 C46 726 32 708 42 686 L137 488 L98 488 C71 488 64 480 64 438 C64 395 71 389 98 389 L184 389 L212 331 L104 331 C77 331 69 324 69 281 C69 238 77 232 104 232 L232 232 L230 25 C230 1 247 -7 300 -7 C354 -7 370 1 370 25 L370 25 Z " />
<glyph glyph-name="uni00B5" unicode="&#xb5;" horiz-adv-x="593" d="M400 55 C412 9 437 -7 469 -7 C516 -7 533 3 531 27 L522 133 L522 502 C522 524 508 533 456 533 C403 533 391 524 391 502 L391 210 C391 187 384 164 374 150 C351 113 315 99 287 99 C213 99 193 155 193 216 L193 502 C193 524 180 533 127 533 C75 533 61 524 61 502 L61 199 L56 -197 C56 -219 69 -227 122 -227 C175 -227 190 -219 189 -197 L179 19 C208 0 238 -9 274 -9 C327 -9 373 16 400 55 L400 55 Z " />
<glyph glyph-name="ordfeminine" unicode="&#xaa;" horiz-adv-x="398" d="M335 279 C355 279 369 280 369 325 C369 371 355 372 335 372 L95 372 C75 372 63 371 63 325 C63 280 75 279 95 279 L335 279 Z M176 401 C210 401 248 412 274 441 C283 410 302 403 326 403 C369 403 375 412 374 432 L372 487 L372 739 C372 758 364 767 322 767 C288 767 275 762 273 748 L270 732 C247 758 211 770 180 770 C99 770 22 706 22 583 C22 461 95 401 176 401 L176 401 Z M203 485 C161 485 137 522 137 582 C137 632 156 686 207 686 C229 686 254 675 268 652 L268 548 C268 497 225 485 203 485 L203 485 Z " />
<glyph glyph-name="ordmasculine" unicode="&#xba;" horiz-adv-x="412" d="M323 279 C343 279 356 280 356 325 C356 371 343 372 323 372 L92 372 C71 372 59 371 59 325 C59 280 71 279 92 279 L323 279 Z M206 401 C321 401 390 483 390 584 C390 682 331 770 206 770 C80 770 22 682 22 584 C22 483 92 401 206 401 L206 401 Z M206 491 C164 491 140 533 140 584 C140 634 160 679 206 679 C252 679 273 634 273 584 C273 533 248 491 206 491 L206 491 Z " />
<glyph glyph-name="ae" unicode="&#xe6;" horiz-adv-x="910" d="M524 220 L834 220 C862 220 866 233 866 261 C866 428 784 537 629 537 C571 537 525 519 489 493 L487 514 C486 529 471 535 436 535 C398 535 386 528 385 512 L383 485 C347 525 293 537 261 537 C102 537 34 405 34 258 C34 111 97 -9 264 -9 C297 -9 350 6 384 39 C388 4 405 -7 439 -7 C476 -7 487 1 488 18 L489 39 C534 7 591 -10 648 -10 C695 -10 739 1 772 21 C810 45 834 82 834 121 C834 131 831 145 821 145 C817 145 810 142 803 137 C763 112 714 97 663 97 C593 97 531 132 524 220 L524 220 Z M279 95 C204 95 166 159 166 258 C166 347 197 431 279 430 C344 429 384 389 384 313 L384 228 C384 190 376 159 362 137 C340 103 303 95 279 95 L279 95 Z M736 308 L524 308 C532 375 563 433 633 433 C663 433 686 423 703 407 C725 383 735 347 736 308 L736 308 Z " />
<glyph glyph-name="oslash" unicode="&#xf8;" horiz-adv-x="572" d="M204 3 C228 -4 254 -9 284 -9 C441 -9 533 111 533 264 C533 352 504 433 443 484 L466 528 C476 550 470 562 417 562 C370 562 365 553 356 535 L353 528 C332 534 308 537 284 537 C112 537 34 410 34 264 C34 178 61 103 115 52 L88 -2 C78 -22 84 -36 137 -36 C184 -36 189 -27 198 -10 L204 3 Z M249 99 L380 362 C394 334 402 299 402 264 C402 168 359 94 284 94 C270 94 259 96 249 99 L249 99 Z M181 176 C170 202 163 231 163 264 C163 356 202 435 285 435 C293 435 300 433 308 431 L181 176 Z " />
<glyph glyph-name="questiondown" unicode="&#xbf;" horiz-adv-x="430" d="M256 315 C208 315 198 307 197 286 L195 250 C194 206 166 191 102 144 C60 114 11 61 11 -17 C11 -88 36 -134 75 -164 C115 -194 169 -208 225 -208 C264 -208 313 -197 347 -178 C372 -164 385 -145 385 -123 C385 -111 382 -98 375 -86 C364 -65 356 -58 346 -58 C340 -58 334 -61 325 -67 C289 -90 259 -99 229 -99 C183 -99 145 -76 145 -18 C145 41 183 74 222 99 C261 126 315 159 315 240 L315 286 C315 306 305 315 256 315 L256 315 Z M255 535 C210 535 175 500 175 458 C175 414 210 380 255 380 C298 380 334 414 334 458 C334 500 298 535 255 535 L255 535 Z " />
<glyph glyph-name="exclamdown" unicode="&#xa1;" horiz-adv-x="270" d="M124 380 C168 380 203 414 203 457 C203 500 168 535 124 535 C79 535 45 500 45 457 C45 414 79 380 124 380 L124 380 Z M124 -208 C182 -208 199 -198 198 -173 L179 281 C178 303 173 315 124 315 C74 315 70 303 69 281 L49 -173 C48 -199 65 -208 124 -208 L124 -208 Z " />
<glyph glyph-name="logicalnot" unicode="&#xac;" horiz-adv-x="609" d="M564 195 L564 423 C564 469 536 475 516 475 L74 475 C52 475 44 465 44 420 C44 375 52 366 74 366 L442 366 L442 195 C442 172 451 163 503 163 C554 163 564 172 564 195 L564 195 Z " />
<glyph glyph-name="radical" unicode="&#x221a;" horiz-adv-x="609" d="M345 -184 L618 725 C619 731 620 736 620 742 C620 761 603 767 560 767 C512 767 499 761 493 738 L266 -67 L163 300 C157 321 145 330 123 330 L-26 330 C-47 330 -57 323 -55 288 C-50 230 -18 222 11 222 L57 222 L183 -185 C197 -226 217 -227 265 -227 C312 -227 333 -226 345 -184 L345 -184 Z " />
<glyph glyph-name="guillemotleft" unicode="&#xab;" horiz-adv-x="507" d="M141 298 L219 430 C227 442 235 461 235 481 C235 499 229 519 211 534 C201 542 192 546 185 546 C175 546 170 540 162 528 L34 356 C16 332 11 324 11 300 C11 277 16 268 34 245 L162 71 C170 60 178 55 185 55 C192 55 201 58 211 66 C229 80 235 101 235 120 C235 140 227 159 219 171 L141 298 Z M369 298 L447 430 C455 442 462 461 462 481 C462 499 457 519 439 534 C429 542 420 546 413 546 C403 546 398 540 390 528 L261 356 C244 332 239 324 239 300 C239 277 244 268 261 245 L390 71 C398 60 405 55 413 55 C420 55 429 58 439 66 C457 80 462 101 462 120 C462 140 455 159 447 171 L369 298 Z " />
<glyph glyph-name="guillemotright" unicode="&#xbb;" horiz-adv-x="507" d="M366 298 L288 171 C280 159 273 140 273 120 C273 101 278 80 296 66 C306 58 315 55 322 55 C330 55 337 60 345 71 L474 245 C491 268 496 277 496 300 C496 324 491 332 474 356 L345 528 C337 540 332 546 322 546 C315 546 306 542 296 534 C278 519 273 499 273 481 C273 461 280 442 288 430 L366 298 Z M139 298 L60 171 C52 159 45 140 45 120 C45 101 50 80 68 66 C78 58 87 55 94 55 C102 55 109 60 117 71 L246 245 C264 268 268 277 268 300 C268 324 264 332 246 356 L117 528 C109 540 104 546 94 546 C87 546 78 542 68 534 C50 519 45 499 45 481 C45 461 52 442 60 430 L139 298 Z " />
<glyph glyph-name="ellipsis" unicode="&#x2026;" horiz-adv-x="755" d="M125 -11 C171 -11 207 23 207 67 C207 112 171 146 125 146 C80 146 45 112 45 67 C45 23 80 -11 125 -11 L125 -11 Z M378 -11 C422 -11 459 23 459 67 C459 112 422 146 378 146 C332 146 296 112 296 67 C296 23 332 -11 378 -11 L378 -11 Z M629 -11 C675 -11 710 23 710 67 C710 112 675 146 629 146 C584 146 548 112 548 67 C548 23 584 -11 629 -11 L629 -11 Z " />
<glyph glyph-name="uni00A0" unicode="&#xa0;" horiz-adv-x="257" d="" />
<glyph glyph-name="Agrave" unicode="&#xc0;" horiz-adv-x="660" d="M451 179 L499 22 C506 -1 528 -7 574 -7 C635 -7 648 8 640 31 L411 684 C396 724 380 726 329 726 C279 726 262 722 249 682 L20 31 C12 8 24 -7 87 -7 C133 -7 153 -1 160 22 L208 179 L451 179 Z M421 281 L239 281 L329 584 L421 281 Z M246 953 C202 953 180 952 180 931 C180 925 185 916 193 906 L282 797 C295 781 305 774 355 774 C391 774 406 780 406 793 C406 800 404 805 398 814 L331 925 C315 952 308 953 246 953 L246 953 Z " />
<glyph glyph-name="Atilde" unicode="&#xc3;" horiz-adv-x="660" d="M451 179 L499 22 C506 -1 528 -7 574 -7 C635 -7 648 8 640 31 L411 684 C396 724 380 726 329 726 C279 726 262 722 249 682 L20 31 C12 8 24 -7 87 -7 C133 -7 153 -1 160 22 L208 179 L451 179 Z M421 281 L239 281 L329 584 L421 281 Z M413 914 C411 893 409 867 390 867 C363 867 349 947 264 947 C165 947 141 868 141 803 C141 786 147 773 192 773 C239 773 244 783 246 804 C249 824 250 851 269 851 C297 851 310 771 395 771 C494 771 518 850 518 915 C518 931 512 945 468 945 C421 945 415 935 413 914 L413 914 Z " />
<glyph glyph-name="Otilde" unicode="&#xd5;" horiz-adv-x="713" d="M356 -12 C575 -12 674 162 674 360 C674 565 560 732 356 732 C153 732 39 565 39 360 C39 162 136 -12 356 -12 L356 -12 Z M356 98 C238 98 180 222 180 360 C180 506 246 621 356 621 C466 621 532 506 532 360 C532 222 474 98 356 98 L356 98 Z M440 914 C438 893 436 867 417 867 C390 867 376 947 291 947 C192 947 168 868 168 803 C168 786 174 773 219 773 C266 773 271 783 273 804 C276 824 277 851 296 851 C324 851 337 771 422 771 C521 771 545 850 545 915 C545 931 539 945 495 945 C448 945 442 935 440 914 L440 914 Z " />
<glyph glyph-name="OE" unicode="&#x152;" horiz-adv-x="958" d="M643 108 L643 308 L803 308 C832 308 861 311 861 369 C861 410 856 416 834 416 L643 416 L643 610 L844 610 C873 610 904 613 904 671 C904 713 898 719 876 719 L556 719 C535 719 516 704 515 685 L514 655 C470 704 411 732 334 732 C140 732 39 565 39 360 C39 162 124 -12 334 -12 C413 -12 471 16 514 61 L515 35 C516 15 535 0 556 0 L849 0 C878 0 908 3 908 60 C908 102 903 108 880 108 L643 108 Z M336 99 C227 99 176 221 176 360 C176 505 235 620 336 620 C439 620 495 505 495 360 C495 221 447 99 336 99 L336 99 Z " />
<glyph glyph-name="oe" unicode="&#x153;" horiz-adv-x="930" d="M669 -9 C766 -9 855 38 855 121 C855 131 852 145 842 145 C837 145 831 142 824 137 C784 112 734 97 685 97 C612 97 551 132 545 220 L856 220 C882 220 886 233 886 261 C886 428 805 537 649 537 C569 537 509 505 470 451 C429 505 367 537 284 537 C112 537 34 410 34 264 C34 111 124 -9 284 -9 C363 -9 427 20 469 78 C517 16 595 -9 669 -9 L669 -9 Z M756 308 L545 308 C553 374 584 433 655 433 C727 433 754 374 756 308 L756 308 Z M284 96 C211 96 168 169 168 264 C168 354 204 431 284 431 C361 431 398 356 398 262 C398 166 354 96 284 96 L284 96 Z " />
<glyph glyph-name="endash" unicode="&#x2013;" horiz-adv-x="554" d="M475 308 C502 308 509 323 509 365 C509 408 502 423 475 423 L79 423 C52 423 45 408 45 365 C45 323 52 308 79 308 L475 308 Z " />
<glyph glyph-name="emdash" unicode="&#x2014;" horiz-adv-x="1031" d="M952 311 C978 311 986 323 986 365 C986 408 978 421 952 421 L79 421 C52 421 45 408 45 365 C45 323 52 311 79 311 L952 311 Z " />
<glyph glyph-name="quotedblleft" unicode="&#x201c;" horiz-adv-x="477" d="M359 604 C355 650 382 684 417 708 C429 717 432 724 432 729 C432 745 412 751 399 751 C362 751 319 729 288 689 C259 652 242 604 242 552 C242 493 275 446 337 446 C383 446 419 484 419 529 C419 562 397 596 359 604 L359 604 Z M139 604 C134 650 162 685 195 708 C209 717 211 724 211 729 C211 745 192 751 179 751 C141 751 98 729 67 689 C39 652 22 604 22 552 C22 493 55 446 116 446 C163 446 199 484 199 529 C199 562 175 596 139 604 L139 604 Z " />
<glyph glyph-name="quotedblright" unicode="&#x201d;" horiz-adv-x="477" d="M338 591 C342 545 315 512 280 487 C268 478 265 471 265 466 C265 450 285 445 298 445 C335 445 378 466 409 506 C438 543 455 591 455 643 C455 703 422 750 360 750 C314 750 278 712 278 666 C278 633 300 599 338 591 L338 591 Z M117 591 C122 545 94 510 60 487 C47 478 45 471 45 466 C45 450 64 445 77 445 C115 445 157 466 189 506 C217 543 233 591 233 643 C233 703 201 750 140 750 C93 750 57 712 57 666 C57 633 80 599 117 591 L117 591 Z " />
<glyph glyph-name="quoteleft" unicode="&#x2018;" horiz-adv-x="256" d="M139 604 C134 650 162 685 195 708 C209 717 211 724 211 729 C211 745 192 751 179 751 C141 751 98 729 67 689 C39 652 22 604 22 552 C22 493 55 446 116 446 C163 446 199 484 199 529 C199 562 175 596 139 604 L139 604 Z " />
<glyph glyph-name="quoteright" unicode="&#x2019;" horiz-adv-x="256" d="M117 591 C122 545 94 510 60 487 C47 478 45 471 45 466 C45 450 64 445 77 445 C115 445 157 466 189 506 C217 543 233 591 233 643 C233 703 201 750 140 750 C93 750 57 712 57 666 C57 633 80 599 117 591 L117 591 Z " />
<glyph glyph-name="divide" unicode="&#xf7;" horiz-adv-x="609" d="M304 82 C349 82 384 116 384 160 C384 203 349 238 304 238 C259 238 223 203 223 160 C223 116 259 82 304 82 L304 82 Z M534 306 C554 306 564 316 564 361 C564 407 554 417 534 417 L74 417 C52 417 44 407 44 361 C44 316 52 306 74 306 L534 306 Z M304 486 C349 486 384 521 384 564 C384 608 349 642 304 642 C259 642 223 608 223 564 C223 521 259 486 304 486 L304 486 Z " />
<glyph glyph-name="ydieresis" unicode="&#xff;" horiz-adv-x="562" d="M367 18 L535 493 C538 503 540 508 540 512 C540 526 526 533 484 533 C432 533 402 513 388 464 L295 157 L181 505 C173 528 153 533 107 533 C45 533 35 517 44 494 L233 -9 C220 -45 203 -79 184 -98 C162 -121 140 -130 109 -130 C93 -130 71 -125 56 -120 C47 -116 40 -113 34 -113 C17 -113 11 -152 11 -165 C11 -192 27 -209 47 -219 C61 -227 90 -233 122 -233 C173 -233 232 -222 275 -170 C321 -113 338 -61 367 18 L367 18 Z M183 601 C226 601 259 634 259 677 C259 718 226 752 183 752 C142 752 108 718 108 677 C108 634 142 601 183 601 L183 601 Z M394 601 C437 601 470 634 470 677 C470 718 437 752 394 752 C353 752 319 718 319 677 C319 634 353 601 394 601 L394 601 Z " />
<glyph glyph-name="Ydieresis" unicode="&#x178;" horiz-adv-x="574" d="M351 280 L558 687 C562 694 563 698 563 704 C563 718 546 726 503 726 C446 726 422 707 401 657 L293 402 L159 697 C149 720 128 726 83 726 C19 726 4 708 16 686 L218 286 L214 25 C214 1 231 -7 285 -7 C338 -7 354 1 354 25 L351 280 Z M181 793 C224 793 257 826 257 869 C257 910 224 944 181 944 C140 944 106 910 106 869 C106 826 140 793 181 793 L181 793 Z M392 793 C435 793 468 826 468 869 C468 910 435 944 392 944 C351 944 317 910 317 869 C317 826 351 793 392 793 L392 793 Z " />
<glyph glyph-name="fraction" unicode="&#x2044;" horiz-adv-x="378" d="M1 19 L491 687 C497 695 500 701 500 708 C500 719 488 726 448 726 C398 726 392 717 379 699 L-113 35 C-118 28 -123 20 -123 12 C-123 0 -109 -7 -69 -7 C-18 -7 -11 2 1 19 L1 19 Z " />
<glyph glyph-name="Euro" unicode="&#x20ac;" horiz-adv-x="660" d="M275 235 L466 235 C483 235 491 240 491 279 C491 317 483 324 466 324 L259 324 C258 337 258 345 258 357 C258 367 258 376 259 390 L466 390 C483 390 491 395 491 435 C491 472 483 479 466 479 L275 479 C300 565 356 620 440 620 C477 620 516 612 555 589 C563 584 569 580 574 580 C584 580 593 589 604 610 C611 623 615 638 615 651 C615 672 607 687 585 697 C540 719 483 732 433 732 C361 732 296 709 247 671 C190 627 152 560 134 479 L70 479 C52 479 45 472 45 435 C45 395 52 390 70 390 L122 390 C121 376 121 367 121 357 C121 345 121 337 122 324 L70 324 C52 324 45 317 45 279 C45 240 52 235 70 235 L133 235 C164 93 254 -12 436 -12 C479 -12 531 -3 571 15 C601 28 614 49 614 75 C614 87 611 99 605 112 C595 133 586 137 579 137 C574 137 566 133 558 128 C519 107 477 101 439 101 C351 101 298 155 275 235 L275 235 Z " />
<glyph glyph-name="guilsinglleft" unicode="&#x2039;" horiz-adv-x="280" d="M142 298 L220 430 C228 442 236 461 236 481 C236 499 230 519 212 534 C202 542 193 546 187 546 C176 546 171 540 163 528 L34 356 C16 332 11 324 11 300 C11 277 16 268 34 245 L163 71 C171 60 179 55 187 55 C193 55 202 58 212 66 C230 80 236 101 236 120 C236 140 228 159 220 171 L142 298 Z " />
<glyph glyph-name="guilsinglright" unicode="&#x203a;" horiz-adv-x="280" d="M139 298 L60 171 C52 159 45 140 45 120 C45 101 50 80 68 66 C78 58 87 55 94 55 C102 55 109 60 117 71 L247 245 C265 268 269 277 269 300 C269 324 265 332 247 356 L117 528 C109 540 104 546 94 546 C87 546 78 542 68 534 C50 519 45 499 45 481 C45 461 52 442 60 430 L139 298 Z " />
<glyph glyph-name="uniFB01" unicode="&#xfb01;" horiz-adv-x="621" d="M540 23 L540 491 C540 514 533 528 503 528 L232 528 L232 570 C232 627 244 663 283 663 C296 663 311 658 323 658 C357 658 371 703 371 728 C371 745 369 750 351 756 C324 765 284 770 255 770 C210 770 170 757 144 731 C111 694 101 636 101 563 L101 528 L50 528 C30 528 22 522 22 477 C22 433 30 429 50 429 L101 429 L101 23 C101 1 114 -7 166 -7 C219 -7 232 1 232 23 L232 429 L408 429 L408 23 C408 1 421 -7 474 -7 C526 -7 540 1 540 23 L540 23 Z M472 610 C517 610 554 645 554 688 C554 731 517 766 474 766 C429 766 393 731 393 688 C393 645 429 610 472 610 L472 610 Z " />
<glyph glyph-name="uniFB02" unicode="&#xfb02;" horiz-adv-x="639" d="M502 -9 C563 -9 600 22 600 78 C600 96 594 97 580 97 L562 97 C548 97 540 106 540 123 L540 704 C540 723 535 732 517 738 C472 755 392 770 332 770 C260 770 199 758 160 725 C118 690 101 634 101 555 L101 528 L50 528 C30 528 22 522 22 477 C22 433 30 429 50 429 L101 429 L101 23 C101 1 114 -7 166 -7 C219 -7 232 1 232 23 L232 429 L285 429 C331 429 340 447 340 499 C340 527 330 528 311 528 L232 528 L232 566 C232 647 277 668 331 668 C355 668 382 663 408 658 L408 90 C408 27 445 -9 502 -9 L502 -9 Z " />
<glyph glyph-name="daggerdbl" unicode="&#x2021;" horiz-adv-x="550" d="M338 67 L443 65 C472 64 502 68 502 126 C502 168 496 173 475 173 L336 173 L333 289 L336 405 L446 404 C475 404 505 408 505 465 C505 506 499 513 477 513 L338 513 L342 695 C342 717 326 726 273 726 C219 726 204 717 204 695 L207 513 L71 513 C50 513 45 506 45 465 C45 408 74 404 103 404 L209 405 L213 289 L209 173 L75 173 C52 173 47 168 47 126 C47 68 77 64 106 65 L207 67 L204 -124 C204 -147 219 -155 273 -155 C326 -155 342 -147 342 -124 L338 67 Z " />
<glyph glyph-name="periodcentered" unicode="&#xb7;" horiz-adv-x="251" d="M125 281 C171 281 207 316 207 360 C207 404 171 439 125 439 C80 439 45 404 45 360 C45 316 80 281 125 281 L125 281 Z " />
<glyph glyph-name="quotesinglbase" unicode="&#x201a;" horiz-adv-x="267" d="M106 -11 C111 -57 83 -92 49 -115 C36 -124 34 -131 34 -136 C34 -152 52 -157 66 -157 C104 -157 146 -136 178 -96 C206 -59 222 -11 222 41 C222 101 190 147 128 147 C82 147 46 109 46 64 C46 31 69 -3 106 -11 L106 -11 Z " />
<glyph glyph-name="quotedblbase" unicode="&#x201e;" horiz-adv-x="488" d="M327 -11 C331 -57 304 -90 269 -115 C257 -124 254 -131 254 -136 C254 -152 274 -157 287 -157 C324 -157 366 -136 398 -96 C427 -59 443 -11 443 41 C443 101 411 147 349 147 C303 147 267 109 267 64 C267 31 289 -3 327 -11 L327 -11 Z M106 -11 C111 -57 83 -92 49 -115 C36 -124 34 -131 34 -136 C34 -152 52 -157 66 -157 C104 -157 146 -136 178 -96 C206 -59 222 -11 222 41 C222 101 190 147 128 147 C82 147 46 109 46 64 C46 31 69 -3 106 -11 L106 -11 Z " />
<glyph glyph-name="perthousand" unicode="&#x2030;" horiz-adv-x="1128" d="M197 314 C325 314 379 410 379 522 C379 639 317 732 197 732 C78 732 17 639 17 522 C17 410 73 314 197 314 L197 314 Z M197 407 C153 407 136 461 136 522 C136 585 156 639 197 639 C239 639 258 585 258 522 C258 461 241 407 197 407 L197 407 Z M617 -12 C726 -12 771 69 771 164 C771 262 719 342 617 342 C516 342 464 262 464 164 C464 69 512 -12 617 -12 L617 -12 Z M615 71 C583 71 572 114 572 160 C572 208 585 249 615 249 C645 249 659 208 659 160 C659 114 647 71 615 71 L615 71 Z M957 -12 C1066 -12 1111 69 1111 164 C1111 262 1059 342 957 342 C857 342 804 262 804 164 C804 69 852 -12 957 -12 L957 -12 Z M955 71 C924 71 911 114 911 160 C911 208 926 249 955 249 C985 249 999 208 999 160 C999 114 987 71 955 71 L955 71 Z M327 11 L653 701 C663 724 657 738 601 738 C553 738 550 728 541 709 L213 19 C203 -2 210 -18 266 -18 C314 -18 319 -7 327 11 L327 11 Z " />
<glyph glyph-name="Acircumflex" unicode="&#xc2;" horiz-adv-x="660" d="M451 179 L499 22 C506 -1 528 -7 574 -7 C635 -7 648 8 640 31 L411 684 C396 724 380 726 329 726 C279 726 262 722 249 682 L20 31 C12 8 24 -7 87 -7 C133 -7 153 -1 160 22 L208 179 L451 179 Z M421 281 L239 281 L329 584 L421 281 Z M425 926 C407 950 404 954 330 954 C257 954 253 950 235 926 L157 812 C152 803 148 797 148 791 C148 777 163 772 200 772 C249 772 259 778 272 795 L330 870 L388 795 C402 778 412 772 461 772 C498 772 512 777 512 791 C512 797 509 803 504 812 L425 926 Z " />
<glyph glyph-name="Ecircumflex" unicode="&#xca;" horiz-adv-x="566" d="M458 0 C487 0 516 3 516 60 C516 102 510 108 489 108 L213 108 L213 308 L412 308 C441 308 470 311 470 369 C470 410 465 416 442 416 L213 416 L213 610 L454 610 C483 610 512 613 512 671 C512 713 506 719 485 719 L121 719 C97 719 78 700 78 677 L78 42 C78 19 97 0 121 0 L458 0 Z M386 926 C368 950 365 954 291 954 C218 954 214 950 196 926 L118 812 C113 803 109 797 109 791 C109 777 124 772 161 772 C210 772 220 778 233 795 L291 870 L349 795 C363 778 373 772 422 772 C459 772 473 777 473 791 C473 797 470 803 465 812 L386 926 Z " />
<glyph glyph-name="Aacute" unicode="&#xc1;" horiz-adv-x="660" d="M451 179 L499 22 C506 -1 528 -7 574 -7 C635 -7 648 8 640 31 L411 684 C396 724 380 726 329 726 C279 726 262 722 249 682 L20 31 C12 8 24 -7 87 -7 C133 -7 153 -1 160 22 L208 179 L451 179 Z M421 281 L239 281 L329 584 L421 281 Z M407 953 C346 953 338 952 322 925 L255 814 C250 805 247 800 247 793 C247 780 262 774 299 774 C348 774 358 781 371 797 L461 906 C469 916 473 925 473 931 C473 952 452 953 407 953 L407 953 Z " />
<glyph glyph-name="Edieresis" unicode="&#xcb;" horiz-adv-x="566" d="M458 0 C487 0 516 3 516 60 C516 102 510 108 489 108 L213 108 L213 308 L412 308 C441 308 470 311 470 369 C470 410 465 416 442 416 L213 416 L213 610 L454 610 C483 610 512 613 512 671 C512 713 506 719 485 719 L121 719 C97 719 78 700 78 677 L78 42 C78 19 97 0 121 0 L458 0 Z M182 793 C225 793 258 826 258 869 C258 910 225 944 182 944 C141 944 107 910 107 869 C107 826 141 793 182 793 L182 793 Z M393 793 C436 793 469 826 469 869 C469 910 436 944 393 944 C352 944 318 910 318 869 C318 826 352 793 393 793 L393 793 Z " />
<glyph glyph-name="Egrave" unicode="&#xc8;" horiz-adv-x="566" d="M458 0 C487 0 516 3 516 60 C516 102 510 108 489 108 L213 108 L213 308 L412 308 C441 308 470 311 470 369 C470 410 465 416 442 416 L213 416 L213 610 L454 610 C483 610 512 613 512 671 C512 713 506 719 485 719 L121 719 C97 719 78 700 78 677 L78 42 C78 19 97 0 121 0 L458 0 Z M214 953 C170 953 148 952 148 931 C148 925 153 916 161 906 L250 797 C263 781 273 774 323 774 C359 774 374 780 374 793 C374 800 372 805 366 814 L299 925 C283 952 276 953 214 953 L214 953 Z " />
<glyph glyph-name="Iacute" unicode="&#xcd;" horiz-adv-x="305" d="M221 25 L221 695 C221 717 206 726 152 726 C98 726 84 717 84 695 L84 25 C84 1 98 -7 152 -7 C206 -7 221 1 221 25 L221 25 Z M233 953 C172 953 164 952 148 925 L81 814 C76 805 73 800 73 793 C73 780 88 774 125 774 C174 774 184 781 197 797 L287 906 C295 916 299 925 299 931 C299 952 278 953 233 953 L233 953 Z " />
<glyph glyph-name="Icircumflex" unicode="&#xce;" horiz-adv-x="305" d="M221 25 L221 695 C221 717 206 726 152 726 C98 726 84 717 84 695 L84 25 C84 1 98 -7 152 -7 C206 -7 221 1 221 25 L221 25 Z M248 926 C230 950 227 954 153 954 C80 954 76 950 58 926 L-20 812 C-25 803 -29 797 -29 791 C-29 777 -14 772 23 772 C72 772 82 778 95 795 L153 870 L211 795 C225 778 235 772 284 772 C321 772 335 777 335 791 C335 797 332 803 327 812 L248 926 Z " />
<glyph glyph-name="Idieresis" unicode="&#xcf;" horiz-adv-x="305" d="M221 25 L221 695 C221 717 206 726 152 726 C98 726 84 717 84 695 L84 25 C84 1 98 -7 152 -7 C206 -7 221 1 221 25 L221 25 Z M47 793 C90 793 123 826 123 869 C123 910 90 944 47 944 C6 944 -28 910 -28 869 C-28 826 6 793 47 793 L47 793 Z M258 793 C301 793 334 826 334 869 C334 910 301 944 258 944 C217 944 183 910 183 869 C183 826 217 793 258 793 L258 793 Z " />
<glyph glyph-name="Igrave" unicode="&#xcc;" horiz-adv-x="305" d="M221 25 L221 695 C221 717 206 726 152 726 C98 726 84 717 84 695 L84 25 C84 1 98 -7 152 -7 C206 -7 221 1 221 25 L221 25 Z M71 953 C27 953 5 952 5 931 C5 925 10 916 18 906 L107 797 C120 781 130 774 180 774 C216 774 231 780 231 793 C231 800 229 805 223 814 L156 925 C140 952 133 953 71 953 L71 953 Z " />
<glyph glyph-name="Oacute" unicode="&#xd3;" horiz-adv-x="713" d="M356 -12 C575 -12 674 162 674 360 C674 565 560 732 356 732 C153 732 39 565 39 360 C39 162 136 -12 356 -12 L356 -12 Z M356 98 C238 98 180 222 180 360 C180 506 246 621 356 621 C466 621 532 506 532 360 C532 222 474 98 356 98 L356 98 Z M443 953 C382 953 374 952 358 925 L291 814 C286 805 283 800 283 793 C283 780 298 774 335 774 C384 774 394 781 407 797 L497 906 C505 916 509 925 509 931 C509 952 488 953 443 953 L443 953 Z " />
<glyph glyph-name="Ocircumflex" unicode="&#xd4;" horiz-adv-x="713" d="M356 -12 C575 -12 674 162 674 360 C674 565 560 732 356 732 C153 732 39 565 39 360 C39 162 136 -12 356 -12 L356 -12 Z M356 98 C238 98 180 222 180 360 C180 506 246 621 356 621 C466 621 532 506 532 360 C532 222 474 98 356 98 L356 98 Z M451 926 C433 950 430 954 356 954 C283 954 279 950 261 926 L183 812 C178 803 174 797 174 791 C174 777 189 772 226 772 C275 772 285 778 298 795 L356 870 L414 795 C428 778 438 772 487 772 C524 772 538 777 538 791 C538 797 535 803 530 812 L451 926 Z " />
<glyph glyph-name="uniF8FF" unicode="&#xf8ff;" horiz-adv-x="1074" d="M988 336 L987 342 L983 346 L981 351 L976 353 L975 357 L971 361 L966 361 L961 362 L960 366 L958 369 L955 372 L955 373 L951 374 L951 378 C951 382 948 385 947 389 L940 396 L937 396 L937 397 L935 397 L930 397 L923 396 L922 397 L919 397 L913 391 L909 390 L906 387 L906 385 L905 382 L897 377 L897 381 L898 388 L898 390 L898 391 L897 391 L897 398 L895 400 L895 407 L895 413 L892 419 L884 424 L883 428 L880 429 L877 432 L873 433 L870 436 L870 437 L863 441 L863 442 L857 442 L856 443 L853 442 L853 441 L850 440 L845 440 L843 440 L841 438 L838 432 L834 432 C830 430 827 427 825 423 L825 422 L822 423 L822 427 L823 433 L822 433 L822 436 L820 439 C819 441 820 448 820 450 L817 452 C815 457 811 461 808 464 L806 468 L804 470 L801 471 L799 475 L793 473 L787 475 L786 474 L781 474 L781 473 L778 473 L776 473 L774 471 L771 471 L767 470 L767 469 C761 469 756 465 751 461 L750 458 L747 457 L745 456 C745 450 739 448 739 440 L739 437 L738 437 L737 430 L735 427 C732 425 730 422 727 419 C726 415 725 412 723 408 L720 408 L718 411 L717 411 L717 416 L718 416 L718 422 L717 422 C717 424 718 430 719 432 L720 434 C716 447 718 445 721 457 L722 457 L722 463 L721 463 L721 474 L718 475 L717 477 L716 484 L715 487 C710 490 708 494 706 498 C704 499 701 500 699 500 L699 501 L694 501 L692 501 L688 503 C682 503 680 495 674 494 L671 490 L666 489 L661 480 L657 479 L656 476 L655 474 L651 474 L650 473 L650 469 C644 462 639 452 639 443 L635 442 L634 448 L635 448 L635 455 L636 455 L636 460 L637 460 L637 461 L638 463 L639 468 L641 470 L641 476 L641 479 C644 483 646 487 647 493 L647 500 L648 500 L648 503 L648 508 L649 508 L649 514 L652 517 L652 521 L651 521 L651 524 L652 524 L652 530 L653 530 L653 536 L652 536 C652 541 651 546 651 550 L651 551 L650 551 L650 554 L649 562 L650 562 L649 566 C644 572 635 574 628 579 L623 579 L623 578 L620 578 L618 578 L618 579 L614 578 L610 578 L610 577 L606 575 L601 575 L601 574 L600 574 L586 559 C586 558 585 555 585 553 L582 549 L580 545 L578 543 L576 536 L573 534 L571 529 L570 529 L570 528 L568 524 L565 523 C555 508 544 492 540 474 L537 472 L536 469 L535 465 L535 464 L527 451 L526 447 L521 439 L521 436 L516 427 L512 427 L511 427 C512 439 519 449 519 461 L519 465 L520 465 L522 470 L522 473 L523 473 L523 475 L524 479 L524 482 L527 485 L527 488 C527 496 532 503 532 511 L533 517 L534 517 L536 520 L536 522 L535 522 L532 551 L532 552 L531 552 L526 562 L524 563 L520 563 L515 571 L511 572 L511 573 L505 572 L502 572 L502 571 L493 571 C489 566 485 561 479 557 L478 555 L474 555 L474 554 C471 551 470 548 469 544 L468 544 C466 537 462 530 461 523 C452 515 448 503 441 493 L441 490 L440 490 L436 483 L435 480 L434 480 L434 472 L433 471 C433 467 433 462 431 458 L426 451 L425 451 L421 444 L420 444 L420 447 L419 448 L419 452 L418 452 L418 455 L416 459 L415 459 L409 465 L404 466 L404 467 L401 468 L392 466 L392 465 L383 460 C377 455 374 449 370 443 L368 443 L370 453 L371 453 L371 455 L371 456 L372 456 L372 462 L367 467 L366 472 L364 475 L361 477 L360 481 L353 484 L353 485 C349 489 344 491 339 494 C333 494 327 493 323 489 L323 488 C321 485 317 483 314 481 L308 471 C307 467 302 465 302 461 L296 452 L295 449 L293 444 L292 444 L291 441 L289 439 L287 434 L286 432 L285 428 L283 423 C282 415 277 408 273 402 L270 403 L267 404 L259 410 L258 412 L255 412 L252 416 L250 416 L246 416 L243 419 L240 420 L234 420 L223 414 L219 413 L219 414 L215 414 L213 413 L208 408 L208 407 L202 400 L200 396 L199 396 L198 392 L196 391 L194 386 C191 384 188 381 186 377 L183 376 L179 377 L172 385 C171 386 169 387 167 387 L162 387 L162 388 L160 388 L159 389 L158 389 L154 389 C146 389 139 382 135 375 L135 371 L128 367 L128 363 L127 363 L126 358 L120 351 L116 351 L114 348 L112 348 L112 347 L109 347 L109 346 L104 346 L101 344 L100 344 L98 339 L97 339 L93 329 L93 327 L88 321 C88 319 87 315 86 313 L86 312 L89 307 L89 304 L90 301 L91 301 L92 296 L96 292 L99 292 L102 292 L105 289 L114 294 L116 294 L116 293 L123 292 L127 296 L129 292 L135 287 L135 284 L136 284 L137 281 L137 276 L138 276 L138 270 L140 262 L146 255 L146 248 L150 242 L152 242 L156 238 L156 237 L160 236 L168 232 C169 232 171 233 173 232 L173 233 L181 235 C185 239 188 244 193 247 L193 248 L196 251 L199 252 L201 255 L207 266 L210 266 L215 259 L216 255 L223 251 L225 251 L225 250 C229 252 233 252 236 252 L236 253 L240 254 L243 258 L245 258 L246 258 L246 257 L248 255 L248 251 L249 251 L249 250 L249 246 L248 245 L248 238 L248 235 L246 231 L246 230 L245 226 L246 226 L246 223 L252 217 L252 215 L251 215 L251 211 L252 211 L252 209 L252 208 L253 208 L255 200 L259 197 C263 195 266 192 269 189 L272 189 L272 188 L276 189 L278 189 L282 192 L288 190 L295 197 L296 201 C299 204 303 206 305 210 L310 212 L316 206 L315 203 L321 197 L322 197 L322 191 L323 191 L323 190 L323 188 L324 188 L324 183 L325 183 L325 182 L326 181 L327 178 C330 174 334 171 338 168 L341 168 L341 169 L345 169 C349 172 353 176 358 176 L358 177 C364 178 366 185 371 188 C373 193 376 197 379 201 L381 195 L380 195 L380 193 L381 193 L381 184 L380 184 L380 176 L381 176 L382 172 L382 169 L383 169 L383 167 L385 162 L385 161 L386 161 L386 157 L389 154 L389 152 L390 152 L390 151 L391 144 L397 143 L397 142 L400 140 L400 139 L402 139 C403 137 405 134 407 133 L409 133 L409 132 L413 132 L413 131 L415 129 L421 128 L420 128 L426 131 L426 130 L427 130 L428 129 L429 129 L429 128 L433 129 L435 131 L442 132 L446 137 L446 138 L447 138 L451 141 L454 141 L458 147 L458 151 L466 162 L466 167 L467 167 C468 171 470 175 472 179 L477 180 L479 183 L479 188 L480 188 L480 192 C482 196 482 200 484 204 L485 204 L485 205 L488 210 L488 216 L487 216 C488 219 490 222 492 225 L493 225 L493 226 L493 231 C498 234 501 243 504 248 L506 250 C506 256 511 262 515 266 L517 266 L517 262 L515 259 L514 258 L514 256 L514 255 L513 255 L513 249 L512 249 L511 246 L511 245 L510 245 L511 241 L510 239 L510 236 L510 235 L511 235 L511 230 L507 223 L507 220 L506 220 L506 215 L505 215 L502 208 L502 202 L500 200 L500 195 L499 194 L499 189 L498 186 L498 185 L497 185 C498 178 498 171 498 163 L497 163 L497 159 L496 159 C496 157 495 155 495 152 L495 150 L494 150 L494 148 L493 142 L493 138 L492 138 C492 130 491 125 495 118 L495 116 L496 116 L496 110 L497 110 L498 107 L501 104 L506 103 L507 103 L508 99 L513 97 L515 93 C518 90 522 88 527 88 L528 89 L532 89 L532 90 L537 91 L553 99 C557 105 562 109 567 113 L569 120 L573 121 C574 125 575 132 580 135 C580 140 583 145 587 148 L588 151 L589 153 L590 157 L593 164 L594 164 L594 168 C599 172 602 184 604 190 L605 190 C609 197 609 200 609 209 L610 209 L610 212 L614 218 L614 221 L618 225 L619 229 L618 229 L618 232 L619 232 L619 235 L622 237 L622 240 L626 245 L630 243 L629 240 L628 235 L628 229 L630 229 L629 224 L628 223 L627 218 L626 218 C626 213 627 208 629 204 L635 200 L636 196 L644 187 L648 187 L652 186 L655 186 L659 186 L659 187 L665 187 L666 188 L668 191 L670 190 L679 196 L679 200 L684 203 L685 203 L687 206 L692 209 L692 210 L693 218 L694 221 C696 225 698 229 701 232 L701 234 L702 234 L702 237 L703 240 L711 246 L714 257 L717 260 L718 266 L718 268 L720 271 L724 270 L729 273 L731 267 L732 266 L732 262 L733 262 L733 258 L732 257 C732 252 732 246 737 244 L737 243 L739 239 L740 239 L741 236 L746 232 L751 231 L754 231 C755 231 760 229 761 229 L762 229 L762 228 L763 228 L768 227 L772 227 L773 227 L773 228 C778 230 780 233 784 237 L787 238 L795 245 L803 260 L811 262 C811 258 812 257 811 252 L819 243 L820 239 L824 234 L824 233 L828 232 L833 227 L836 227 L839 224 C844 223 846 224 850 225 C856 225 859 230 862 234 L868 236 L869 240 L874 243 L874 244 L875 244 L876 244 L876 245 L877 245 L880 248 L883 259 L886 261 L886 262 L887 262 L889 263 L890 263 L890 264 L901 262 L904 263 L905 264 L909 264 L909 265 L913 265 L921 270 L921 271 L924 272 L931 278 L931 281 L932 281 C935 285 938 289 942 293 L945 302 L952 306 L956 306 L958 306 L958 307 L959 307 L970 306 L972 310 L976 311 L978 311 L982 311 L984 313 L985 316 L987 324 L988 327 L987 327 C987 329 987 331 988 333 L988 336 Z M885 382 C885 373 883 364 879 356 C863 319 851 366 851 382 C851 410 885 411 885 382 L885 382 Z M884 317 C884 295 852 295 852 317 C852 338 884 338 884 317 L884 317 Z M848 366 C848 358 837 362 832 346 C823 323 816 276 783 276 C772 276 761 282 761 295 C761 302 766 309 773 309 C787 309 784 292 789 292 C791 292 792 295 792 297 C792 308 769 354 765 356 C761 358 759 359 759 364 C759 378 808 380 808 366 C808 357 800 365 806 350 C807 347 809 344 812 344 C815 344 817 347 818 350 C824 364 815 359 815 367 C815 377 848 379 848 366 L848 366 Z M754 317 C754 306 735 301 726 301 C693 301 701 336 701 359 C668 360 719 391 728 391 C737 391 735 380 735 374 L749 374 C753 374 754 375 754 370 C754 364 756 359 749 359 C745 359 734 361 734 355 L734 330 C734 311 754 335 754 317 L754 317 Z M684 393 C684 378 645 372 645 390 C645 404 684 408 684 393 L684 393 Z M693 311 C693 297 644 298 644 312 C644 317 650 317 651 321 C653 324 652 338 652 342 C652 360 644 353 644 361 C644 371 673 376 681 376 C685 376 685 375 685 371 L685 325 C685 316 693 318 693 311 L693 311 Z M640 310 C640 298 595 298 595 310 C595 313 597 315 599 318 C602 325 604 353 591 353 C587 353 585 350 585 345 C585 338 584 327 586 320 C586 316 590 315 590 310 C590 301 573 302 567 302 C562 302 544 303 544 311 C544 316 547 316 549 319 C553 323 552 349 552 354 C552 358 553 377 550 379 C546 382 543 382 543 387 C543 392 547 394 551 395 C560 399 570 402 580 402 C585 402 585 398 585 394 C585 389 584 365 586 363 C593 371 598 376 609 376 C645 376 628 326 635 318 C637 315 640 314 640 310 L640 310 Z M516 376 C557 376 552 301 513 301 C505 301 499 306 496 306 C496 306 495 304 495 303 C495 289 508 295 508 286 C508 272 454 272 454 286 C454 291 458 292 462 294 C465 297 464 318 464 322 C464 325 464 348 462 350 C459 352 453 351 453 358 C453 367 482 376 490 376 C497 376 492 367 496 367 C498 367 503 376 516 376 L516 376 Z M455 316 C455 305 432 296 424 304 C422 305 420 308 418 308 C416 308 410 301 399 301 C363 301 367 353 416 344 C416 357 415 374 401 357 C395 350 381 344 381 358 C381 372 404 376 414 376 C449 376 447 361 447 334 C447 329 446 323 451 321 C453 320 455 319 455 316 L455 316 Z M377 358 C377 348 370 340 360 340 C356 340 351 342 348 345 C347 347 346 350 344 350 C341 350 342 337 342 335 C342 330 341 321 346 319 C350 317 353 316 353 311 C353 297 301 298 301 312 C301 319 307 318 308 323 C309 326 309 343 309 347 C309 350 310 352 307 354 C298 359 300 365 308 369 C316 373 327 375 336 375 C345 375 339 365 343 365 C345 365 345 368 346 369 C349 374 353 375 358 375 C368 375 377 369 377 358 L377 358 Z M297 305 C297 268 216 269 216 296 C216 302 220 305 225 307 C210 314 216 328 229 333 C223 337 219 344 219 351 C219 369 238 376 253 376 C261 376 268 373 275 373 C284 373 290 379 292 379 C304 379 293 362 289 358 C293 331 263 327 244 329 C236 326 249 321 252 321 C267 321 297 330 297 305 L297 305 Z M512 335 C512 356 497 360 495 350 C494 343 494 336 494 329 C494 314 512 317 512 335 L512 335 Z M416 331 C416 338 405 335 405 326 C405 316 416 311 416 331 L416 331 Z M262 350 C262 370 247 369 247 354 C247 335 262 334 262 350 L262 350 Z M266 296 C266 299 264 300 262 300 C258 300 254 299 250 299 C246 299 241 300 237 301 C234 287 266 286 266 296 L266 296 Z " />
<glyph glyph-name="Ograve" unicode="&#xd2;" horiz-adv-x="713" d="M356 -12 C575 -12 674 162 674 360 C674 565 560 732 356 732 C153 732 39 565 39 360 C39 162 136 -12 356 -12 L356 -12 Z M356 98 C238 98 180 222 180 360 C180 506 246 621 356 621 C466 621 532 506 532 360 C532 222 474 98 356 98 L356 98 Z M285 953 C241 953 219 952 219 931 C219 925 224 916 232 906 L321 797 C334 781 344 774 394 774 C430 774 445 780 445 793 C445 800 443 805 437 814 L370 925 C354 952 347 953 285 953 L285 953 Z " />
<glyph glyph-name="Uacute" unicode="&#xda;" horiz-adv-x="703" d="M352 -12 C457 -12 528 16 573 70 C619 125 630 199 630 297 L630 695 C630 717 617 726 563 726 C509 726 495 717 495 695 L496 307 C496 248 491 203 474 166 C454 124 413 99 352 99 C290 99 250 124 230 166 C212 203 210 248 210 307 L211 695 C211 717 195 726 142 726 C88 726 73 717 73 695 L73 297 C73 199 84 125 130 70 C174 16 246 -12 352 -12 L352 -12 Z M441 953 C380 953 372 952 356 925 L289 814 C284 805 281 800 281 793 C281 780 296 774 333 774 C382 774 392 781 405 797 L495 906 C503 916 507 925 507 931 C507 952 486 953 441 953 L441 953 Z " />
<glyph glyph-name="Ucircumflex" unicode="&#xdb;" horiz-adv-x="703" d="M352 -12 C457 -12 528 16 573 70 C619 125 630 199 630 297 L630 695 C630 717 617 726 563 726 C509 726 495 717 495 695 L496 307 C496 248 491 203 474 166 C454 124 413 99 352 99 C290 99 250 124 230 166 C212 203 210 248 210 307 L211 695 C211 717 195 726 142 726 C88 726 73 717 73 695 L73 297 C73 199 84 125 130 70 C174 16 246 -12 352 -12 L352 -12 Z M446 926 C428 950 425 954 351 954 C278 954 274 950 256 926 L178 812 C173 803 169 797 169 791 C169 777 184 772 221 772 C270 772 280 778 293 795 L351 870 L409 795 C423 778 433 772 482 772 C519 772 533 777 533 791 C533 797 530 803 525 812 L446 926 Z " />
<glyph glyph-name="Ugrave" unicode="&#xd9;" horiz-adv-x="703" d="M352 -12 C457 -12 528 16 573 70 C619 125 630 199 630 297 L630 695 C630 717 617 726 563 726 C509 726 495 717 495 695 L496 307 C496 248 491 203 474 166 C454 124 413 99 352 99 C290 99 250 124 230 166 C212 203 210 248 210 307 L211 695 C211 717 195 726 142 726 C88 726 73 717 73 695 L73 297 C73 199 84 125 130 70 C174 16 246 -12 352 -12 L352 -12 Z M272 953 C228 953 206 952 206 931 C206 925 211 916 219 906 L308 797 C321 781 331 774 381 774 C417 774 432 780 432 793 C432 800 430 805 424 814 L357 925 C341 952 334 953 272 953 L272 953 Z " />
<glyph glyph-name="dotlessi" unicode="&#x131;" horiz-adv-x="284" d="M208 23 L208 502 C208 524 195 533 143 533 C89 533 76 524 76 502 L76 23 C76 1 89 -7 143 -7 C195 -7 208 1 208 23 L208 23 Z " />
<glyph glyph-name="circumflex" unicode="&#x2c6;" horiz-adv-x="404" d="M297 734 C279 758 276 762 202 762 C129 762 125 758 107 734 L29 620 C24 611 20 605 20 599 C20 585 35 580 72 580 C121 580 131 586 144 603 L202 678 L260 603 C274 586 284 580 333 580 C370 580 384 585 384 599 C384 605 381 611 376 620 L297 734 Z " />
<glyph glyph-name="tilde" unicode="&#x2dc;" horiz-adv-x="417" d="M292 722 C290 701 288 675 269 675 C242 675 228 755 143 755 C44 755 20 676 20 611 C20 594 26 581 71 581 C118 581 123 591 125 612 C128 632 129 659 148 659 C176 659 189 579 274 579 C373 579 397 658 397 723 C397 739 391 753 347 753 C300 753 294 743 292 722 L292 722 Z " />
<glyph glyph-name="macron" unicode="&#xaf;" horiz-adv-x="394" d="M340 607 C367 607 374 623 374 666 C374 708 367 725 340 725 L55 725 C28 725 20 708 20 666 C20 623 28 607 55 607 L340 607 Z " />
<glyph glyph-name="breve" unicode="&#x2d8;" horiz-adv-x="400" d="M200 582 C314 582 372 651 379 725 C381 750 367 758 322 758 C275 758 266 754 259 727 C248 684 223 672 200 672 C178 672 152 684 141 727 C134 754 125 758 78 758 C34 758 19 750 21 725 C28 651 86 582 200 582 L200 582 Z " />
<glyph glyph-name="dotaccent" unicode="&#x2d9;" horiz-adv-x="205" d="M102 588 C148 588 185 623 185 669 C185 715 148 752 102 752 C56 752 20 715 20 669 C20 623 56 588 102 588 L102 588 Z " />
<glyph glyph-name="ring" unicode="&#x2da;" horiz-adv-x="292" d="M145 570 C216 570 272 617 272 687 C272 755 216 802 145 802 C78 802 20 755 20 687 C20 617 78 570 145 570 L145 570 Z M145 647 C128 647 113 663 113 686 C113 708 128 725 145 725 C163 725 179 708 179 686 C179 663 163 647 145 647 L145 647 Z " />
<glyph glyph-name="cedilla" unicode="&#xb8;" horiz-adv-x="297" d="M163 -63 L189 0 C195 13 190 23 175 23 L127 23 C112 23 104 19 99 2 L73 -67 C63 -93 67 -111 98 -112 C132 -113 150 -124 150 -145 C150 -165 130 -174 103 -174 C87 -174 70 -170 61 -168 C41 -162 35 -166 25 -200 C14 -236 22 -240 41 -247 C63 -255 95 -260 121 -260 C199 -260 277 -228 277 -150 C277 -101 243 -61 178 -61 C172 -61 165 -63 163 -63 L163 -63 Z " />
<glyph glyph-name="hungarumlaut" unicode="&#x2dd;" horiz-adv-x="456" d="M177 760 C115 760 109 757 93 731 L28 620 C23 611 20 604 20 599 C20 585 32 580 68 580 C118 580 128 586 141 603 L228 712 C236 722 240 731 240 737 C240 757 221 760 177 760 L177 760 Z M372 760 C311 760 304 757 288 731 L226 620 C220 611 218 604 218 599 C218 586 229 580 266 580 C315 580 325 586 339 603 L424 712 C431 722 436 731 436 737 C436 757 417 760 372 760 L372 760 Z " />
<glyph glyph-name="ogonek" unicode="&#x2db;" horiz-adv-x="251" d="M144 -115 C144 -75 177 -39 208 -19 C229 -6 231 2 231 9 C231 18 223 25 189 25 C160 25 139 18 119 7 C67 -22 20 -79 20 -134 C20 -223 88 -256 185 -256 C204 -256 215 -249 219 -217 C225 -181 218 -174 197 -170 C158 -162 144 -135 144 -115 L144 -115 Z " />
<glyph glyph-name="caron" unicode="&#x2c7;" horiz-adv-x="404" d="M376 720 C381 729 384 735 384 742 C384 755 370 761 333 761 C284 761 274 754 260 737 L202 662 L144 737 C131 754 121 761 72 761 C35 761 20 755 20 742 C20 735 24 729 29 720 L107 607 C125 582 129 579 202 579 C276 579 279 582 297 607 L376 720 Z " />
<glyph glyph-name="brokenbar" unicode="&#xa6;" horiz-adv-x="211" d="M166 -205 L166 161 C166 184 155 193 105 193 C55 193 45 184 45 161 L45 -205 C45 -227 55 -235 105 -235 C155 -235 166 -227 166 -205 L166 -205 Z M166 321 L166 687 C166 710 155 719 105 719 C55 719 45 710 45 687 L45 321 C45 299 55 291 105 291 C155 291 166 299 166 321 L166 321 Z " />
<glyph glyph-name="Eth" unicode="&#xd0;" horiz-adv-x="715" d="M342 0 C429 0 503 22 552 64 C632 130 670 240 670 360 C670 484 630 590 551 655 C500 696 422 719 335 719 L153 719 C130 719 111 700 111 677 L111 426 L57 426 C30 426 22 408 22 365 C22 323 30 306 57 306 L111 306 L111 42 C111 19 130 0 153 0 L342 0 Z M246 102 L246 306 L342 306 C369 306 378 323 378 365 C378 408 369 426 342 426 L246 426 L246 615 L286 615 C384 615 420 607 458 574 C508 533 531 455 531 360 C531 273 508 197 462 153 C423 116 380 102 292 102 L246 102 Z " />
<glyph glyph-name="multiply" unicode="&#xd7;" horiz-adv-x="609" d="M305 280 L437 149 C445 141 449 136 457 136 C467 136 479 144 500 165 C522 187 529 199 529 209 C529 218 526 222 518 230 L386 362 L518 494 C525 500 529 507 529 515 C529 525 522 537 502 557 C480 579 468 586 457 586 C449 586 443 582 437 575 L305 443 L173 575 C165 583 160 586 152 586 C142 586 130 579 108 557 C88 537 79 525 79 515 C79 507 84 502 92 494 L223 362 L92 230 C84 222 79 218 79 209 C79 199 88 187 109 165 C130 144 143 136 153 136 C161 136 165 141 173 149 L305 280 Z " />
<glyph glyph-name="Yacute" unicode="&#xdd;" horiz-adv-x="574" d="M351 280 L558 687 C562 694 563 698 563 704 C563 718 546 726 503 726 C446 726 422 707 401 657 L293 402 L159 697 C149 720 128 726 83 726 C19 726 4 708 16 686 L218 286 L214 25 C214 1 231 -7 285 -7 C338 -7 354 1 354 25 L351 280 Z M384 953 C323 953 315 952 299 925 L232 814 C227 805 224 800 224 793 C224 780 239 774 276 774 C325 774 335 781 348 797 L438 906 C446 916 450 925 450 931 C450 952 429 953 384 953 L384 953 Z " />
<glyph glyph-name="Thorn" unicode="&#xde;" horiz-adv-x="612" d="M214 137 L314 137 C484 137 567 221 567 363 C567 505 484 588 314 588 L214 588 L214 695 C214 717 200 726 146 726 C93 726 78 717 78 695 L78 25 C78 1 93 -7 146 -7 C200 -7 214 1 214 25 L214 137 Z M214 242 L214 483 L309 483 C386 483 429 436 429 363 C429 289 386 242 309 242 L214 242 Z " />
<glyph glyph-name="eth" unicode="&#xf0;" horiz-adv-x="591" d="M286 -9 C403 -9 546 66 546 315 C546 483 479 607 363 672 L376 710 C385 735 374 747 337 761 C300 773 284 771 275 746 L261 709 C239 713 216 715 192 715 C164 715 137 713 112 708 C92 705 87 697 87 682 C87 674 89 661 92 650 C97 623 114 609 136 609 C157 609 188 612 225 607 L211 569 C202 544 211 531 248 518 C286 505 302 509 311 533 L323 567 C371 533 400 471 411 409 C373 445 319 461 277 461 C139 461 45 363 45 227 C45 105 123 -9 286 -9 L286 -9 Z M284 98 C210 98 179 166 179 228 C179 311 236 355 295 355 C352 355 410 318 410 260 C410 180 359 98 284 98 L284 98 Z " />
<glyph glyph-name="yacute" unicode="&#xfd;" horiz-adv-x="562" d="M367 18 L535 493 C538 503 540 508 540 512 C540 526 526 533 484 533 C432 533 402 513 388 464 L295 157 L181 505 C173 528 153 533 107 533 C45 533 35 517 44 494 L233 -9 C220 -45 203 -79 184 -98 C162 -121 140 -130 109 -130 C93 -130 71 -125 56 -120 C47 -116 40 -113 34 -113 C17 -113 11 -152 11 -165 C11 -192 27 -209 47 -219 C61 -227 90 -233 122 -233 C173 -233 232 -222 275 -170 C321 -113 338 -61 367 18 L367 18 Z M388 761 C327 761 319 760 303 733 L236 622 C231 613 228 608 228 601 C228 588 243 582 280 582 C329 582 339 589 352 605 L442 714 C450 724 454 733 454 739 C454 760 433 761 388 761 L388 761 Z " />
<glyph glyph-name="thorn" unicode="&#xfe;" horiz-adv-x="582" d="M198 34 C235 -1 280 -9 311 -9 C470 -9 543 125 543 270 C543 412 486 537 323 537 C278 537 227 522 191 486 L189 694 C189 716 180 726 127 726 C75 726 67 717 67 694 L67 -197 C67 -219 79 -227 132 -227 C185 -227 198 -219 198 -197 L198 34 Z M195 153 L195 332 C203 411 257 431 300 431 C375 431 410 369 410 270 C410 181 376 98 293 98 C244 98 204 124 195 153 L195 153 Z " />
<glyph glyph-name="Lslash" unicode="&#x141;" horiz-adv-x="563" d="M248 112 L248 365 L324 388 C355 397 359 407 359 456 C359 503 351 512 324 504 L248 483 L248 695 C248 717 233 726 180 726 C126 726 112 717 112 695 L112 443 L57 428 C26 419 22 408 22 359 C22 312 30 303 57 311 L112 326 L112 42 C112 19 131 0 154 0 L470 0 C499 0 529 6 529 63 C529 104 524 112 502 112 L248 112 Z " />
<glyph glyph-name="lslash" unicode="&#x142;" horiz-adv-x="357" d="M237 364 L290 380 C322 389 325 399 325 448 C325 495 317 504 289 496 L237 480 L237 733 C237 755 223 764 171 764 C118 764 105 755 105 733 L105 441 L57 427 C26 418 22 408 22 359 C22 313 30 304 58 312 L105 325 L105 90 C105 27 142 -9 199 -9 C260 -9 297 22 297 78 C297 96 292 97 277 97 L259 97 C246 97 237 106 237 123 L237 364 Z " />
<glyph glyph-name="Scaron" unicode="&#x160;" horiz-adv-x="564" d="M260 -12 C391 -12 508 50 508 193 C508 319 423 373 290 437 C247 458 202 488 202 532 C202 586 244 622 297 622 C338 622 375 613 417 588 C424 582 432 579 436 579 C446 579 454 591 464 609 C474 624 477 640 477 650 C477 671 461 686 447 694 C403 718 349 732 294 732 C159 732 68 647 68 526 C68 416 135 373 228 327 C299 293 372 261 372 191 C372 128 318 97 261 97 C207 97 160 116 115 145 C107 151 102 154 96 154 C88 154 79 146 66 124 C56 107 50 90 50 78 C50 60 59 48 78 36 C127 4 198 -12 260 -12 L260 -12 Z M456 912 C461 921 464 927 464 934 C464 947 450 953 413 953 C364 953 354 946 340 929 L282 854 L224 929 C211 946 201 953 152 953 C115 953 100 947 100 934 C100 927 104 921 109 912 L187 799 C205 774 209 771 282 771 C356 771 359 774 377 799 L456 912 Z " />
<glyph glyph-name="scaron" unicode="&#x161;" horiz-adv-x="483" d="M438 162 C438 270 344 299 261 319 C210 332 173 346 173 384 C173 410 195 435 250 435 C277 435 315 426 355 402 C363 398 369 393 375 393 C385 393 393 403 402 419 C411 433 414 447 414 458 C414 478 403 491 388 500 C346 525 304 537 246 537 C116 537 50 452 50 374 C50 260 141 233 223 212 C271 200 314 187 314 151 C314 107 269 94 226 94 C195 94 152 104 107 128 C99 133 94 136 88 136 C79 136 71 126 61 107 C55 93 50 78 50 66 C50 49 58 35 77 26 C118 7 174 -9 226 -9 C352 -9 438 46 438 162 L438 162 Z M415 720 C420 729 423 735 423 742 C423 755 409 761 372 761 C323 761 313 754 299 737 L241 662 L183 737 C170 754 160 761 111 761 C74 761 59 755 59 742 C59 735 63 729 68 720 L146 607 C164 582 168 579 241 579 C315 579 318 582 336 607 L415 720 Z " />
<glyph glyph-name="Zcaron" unicode="&#x17d;" horiz-adv-x="580" d="M203 111 L509 595 C522 614 531 629 531 658 C531 713 505 719 476 719 L89 719 C68 719 63 712 63 670 C63 612 92 608 121 608 L369 608 L60 123 C49 105 39 89 39 61 C39 6 65 0 94 0 L483 0 C512 0 541 4 541 61 C541 103 535 111 514 111 L203 111 Z M478 912 C483 921 486 927 486 934 C486 947 472 953 435 953 C386 953 376 946 362 929 L304 854 L246 929 C233 946 223 953 174 953 C137 953 122 947 122 934 C122 927 126 921 131 912 L209 799 C227 774 231 771 304 771 C378 771 381 774 399 799 L478 912 Z " />
<glyph glyph-name="zcaron" unicode="&#x17e;" horiz-adv-x="460" d="M366 0 C412 0 432 19 432 71 C432 101 422 103 403 103 L187 103 L402 422 C417 443 423 459 423 487 C423 522 409 528 388 528 L68 528 C49 528 39 527 39 498 C39 446 59 427 105 427 L261 427 L45 105 C31 85 22 68 22 41 C22 7 37 0 58 0 L366 0 Z M415 720 C420 729 423 735 423 742 C423 755 409 761 372 761 C323 761 313 754 299 737 L241 662 L183 737 C170 754 160 761 111 761 C74 761 59 755 59 742 C59 735 63 729 68 720 L146 607 C164 582 168 579 241 579 C315 579 318 582 336 607 L415 720 Z " />
<glyph glyph-name="minus" unicode="&#x2212;" horiz-adv-x="609" d="M534 306 C554 306 564 316 564 361 C564 407 554 417 534 417 L74 417 C52 417 44 407 44 361 C44 316 52 306 74 306 L534 306 Z " />
<glyph glyph-name="uniFFFD" unicode="&#xfffd;" horiz-adv-x="1000" d="M501 -185 L951 267 L501 719 L49 267 L501 -185 Z M487 -71 C459 -71 437 -48 437 -20 C437 8 459 30 487 30 C515 30 537 8 537 -20 C537 -48 515 -71 487 -71 L487 -71 Z M508 116 L447 116 C445 133 444 149 444 163 C444 258 482 291 525 319 C568 348 595 371 595 419 C595 463 558 492 513 492 C486 492 455 484 398 455 L372 506 C420 535 469 553 520 553 C655 553 670 460 670 422 C670 349 627 306 561 265 C521 240 507 205 507 146 C507 137 507 126 508 116 L508 116 Z " />
</font>
</svg>
