<svg xmlns="http://www.w3.org/2000/svg" width="24" height="24" viewBox="0 0 24 24"><title>  Inclusions&#x2F;ic_bottleofwine</title><defs><path d="M16.3 0.9C16.4 0.9 16.5 1 16.5 1.1L16.5 2.2C16.5 2.3 16.4 2.4 16.3 2.4L16.3 2.4 16.3 6.2 16.3 6.5C16.3 6.9 16.4 7.3 16.5 7.6 16.8 8.2 17.7 8.6 17.8 10.1L17.8 10.3 17.8 22.4C17.8 22.6 17.8 22.7 17.6 22.9 17.6 22.9 17.4 23 17.3 23L17.2 23 12.8 23C12.5 23 12.2 22.8 12.2 22.5L12.2 22.4 12.2 10.3C12.2 8.7 13.2 8.2 13.5 7.7 13.6 7.4 13.7 7 13.7 6.5L13.7 6.2 13.7 2.4 13.7 2.4C13.6 2.4 13.5 2.3 13.5 2.2L13.5 1.1C13.5 1 13.6 0.9 13.7 0.9L16.3 0.9ZM10.2 13.7L10.2 16.7C10.2 18.2 9.1 19.5 7.7 19.7L7.7 19.7 7.7 21.7 9.2 21.7 9.2 22.7 5.2 22.7 5.2 21.7 6.7 21.7 6.7 19.7C5.3 19.5 4.2 18.2 4.2 16.7L4.2 16.7 4.2 13.7 10.2 13.7ZM16.8 11.4L13.2 11.4 13.2 18.4 16.8 18.4 16.8 11.4ZM9.2 14.7L5.2 14.7 5.2 16.2 9.2 16.2 9.2 16.2 9.2 14.7Z"/></defs><g fill="none"><polygon points="0 0 24 0 24 24 0 24"/><mask fill="white"><use xlink:href="#path-1"/></mask><use xlink:href="#path-1" fill="#143441"/></g></svg>
