<svg width="24px" height="24px" viewBox="0 0 24 24" version="1.1" xmlns="http://www.w3.org/2000/svg" xmlns:xlink="http://www.w3.org/1999/xlink">
    <defs>
        <path d="M16.2029844,10.6617432 C19.5209844,10.6617432 22.2089844,13.3497432 22.2089844,16.6617432 C22.2089844,19.9737432 19.5209844,22.6617432 16.2029844,22.6617432 C12.8909844,22.6617432 10.2089844,19.9737432 10.2089844,16.6617432 C10.2089844,13.3497432 12.8909844,10.6617432 16.2029844,10.6617432 Z M8,1.33825684 L8,3.33825684 L16,3.33825684 L16,1.33825684 L18,1.33825684 L18,3.33825684 L19,3.33825684 C20.05,3.33825684 20.9177686,4.15829816 20.9944872,5.18956225 L21,5.33825684 L21.0006959,11.4626234 C20.4140799,10.9317845 19.7391618,10.4967224 19.0006101,10.1821057 L19,8.33825684 L5,8.33825684 L5,19.3382568 L9.50209691,19.3386425 C9.78256432,20.0708556 10.1797322,20.7453047 10.6708393,21.3392287 L5,21.3382568 C3.94045455,21.3382568 3.08136364,20.5182155 3.00545361,19.4869514 L3,19.3382568 L3.01,5.33825684 C3.01,4.28825684 3.81181818,3.42048824 4.85012303,3.34376961 L5,3.33825684 L6,3.33825684 L6,1.33825684 L8,1.33825684 Z M16.2463379,12.3672974 C13.8530188,12.3672974 11.9145386,14.3057776 11.9145386,16.6990967 C11.9145386,19.0924158 13.8530188,21.030896 16.2463379,21.030896 C18.639657,21.030896 20.5781372,19.0924158 20.5781372,16.6990967 C20.5781372,14.3057776 18.639657,12.3672974 16.2463379,12.3672974 Z M17.0010986,13.4364014 L17.0010752,16.5764014 L19.4460742,17.9886837 L18.6960742,19.2877218 L15.4970752,17.4407788 L15.5010752,17.4334014 L15.5010986,13.4364014 L17.0010986,13.4364014 Z" id="path-1"></path>
    </defs>
    <g id="Action/ic_deposit-pay" stroke="none" stroke-width="1" fill="none" fill-rule="evenodd">
        <polygon id="Bounds" points="0 0 24 0 24 24 0 24"></polygon>
        <mask id="mask-2" fill="white">
            <use xlink:href="#path-1"></use>
        </mask>
        <use id="Combined-Shape" fill="#000000" xlink:href="#path-1"></use>
    </g>
</svg>