<svg width="24" height="24" xmlns="http://www.w3.org/2000/svg"><path d="M16.5 9.031V6.91l2.61-2.61A10.462 10.462 0 0 0 12 1.527c-5.799 0-10.5 4.7-10.5 10.5 0 2.742 1.052 5.24 2.773 7.11L7.5 15.91v2.121l-2.134 2.135A10.457 10.457 0 0 0 12 22.526c5.799 0 10.5-4.7 10.5-10.5 0-2.516-.885-4.825-2.361-6.634L16.5 9.032zM12 0c6.627 0 12 5.373 12 12s-5.373 12-12 12S0 18.627 0 12 5.373 0 12 0zm.406 18.738v1.241c0 .18-.144.324-.324.324h-.467a.323.323 0 0 1-.324-.324v-1.223C9.527 18.504 8.25 17.1 8.25 15.499v-.828c0-.18.144-.323.324-.323h.81c.18 0 .323.143.323.323v.63c0 1.044.63 1.871 1.584 2.087v-5.002l-1.476-.971c-1.061-.684-1.511-1.566-1.511-2.717 0-1.745 1.062-3.185 2.987-3.419V4.074c0-.18.144-.324.324-.324h.467c.18 0 .324.144.324.324v1.205c1.907.234 2.969 1.674 2.969 3.419v.144c0 .18-.144.324-.324.324h-.81a.323.323 0 0 1-.323-.324v-.27c0-.918-.522-1.71-1.512-1.925v4.732l1.44.9c1.151.737 1.511 1.655 1.511 2.95 0 1.781-1.187 3.239-2.95 3.509zM9.743 8.572v.324c0 .791.594 1.17 1.476 1.727l.072.054V6.63c-1.062.216-1.548 1.025-1.548 1.943zm4.157 6.837v-.396c0-.827-.252-1.115-1.26-1.763l-.234-.144v4.264c.936-.234 1.494-1.061 1.494-1.96z"/></svg>
