<svg width="24px" height="24px" viewBox="0 0 24 24" version="1.1" xmlns="http://www.w3.org/2000/svg" xmlns:xlink="http://www.w3.org/1999/xlink">
    <defs>
        <path d="M20.7417091,9.9702718 L21.8840582,14.2335767 L20.1402406,13.2261695 C18.8073465,17.0411085 15.1768693,19.7777778 10.9072087,19.7777778 C7.32856918,19.7777778 4.19895896,17.8552548 2.49485724,14.9866882 L4.35230342,14.4899151 C5.78402724,16.5761084 8.18582196,17.9444444 10.9072087,17.9444444 C14.4990666,17.9444444 17.534183,15.5607501 18.5169425,12.2889767 L16.4784043,11.1126209 L20.7417091,9.9702718 Z M11.7668821,4.40272352 L11.7668821,5.74105686 C13.0441043,6.05272352 13.685771,7.01827908 13.7285488,8.06939019 L13.7285488,8.06939019 L12.3779932,8.06939019 C12.3413265,7.3055013 11.9379932,6.78605686 10.8502154,6.78605686 C9.81743764,6.78605686 9.20021542,7.2505013 9.20021542,7.91661241 C9.20021542,8.49716797 9.64632653,8.86994575 11.0335488,9.2305013 C12.420771,9.59105686 13.905771,10.1838346 13.905771,11.9193902 C13.905771,13.172168 12.9585488,13.8627235 11.7668821,14.0888346 L11.7668821,14.0888346 L11.7668821,15.4027235 L9.93354876,15.4027235 L9.93354876,14.0766124 C8.76021542,13.8260569 7.7579932,13.0743902 7.68465987,11.7360569 L7.68465987,11.7360569 L9.02910431,11.7360569 C9.09632653,12.457168 9.59132653,13.0193902 10.8502154,13.0193902 C12.200771,13.0193902 12.5002154,12.347168 12.5002154,11.9255013 C12.5002154,11.357168 12.1946599,10.8193902 10.6668821,10.4527235 C8.96188209,10.0432791 7.79465987,9.3405013 7.79465987,7.92883464 C7.79465987,6.74939019 8.7479932,5.97939019 9.93354876,5.72272352 L9.93354876,5.72272352 L9.93354876,4.40272352 L11.7668821,4.40272352 Z M10.9072087,0.222222222 C14.1715384,0.222222222 17.062251,1.82186742 18.8382219,4.28003324 L16.9114751,4.7976008 C15.4548294,3.11789727 13.3050807,2.05555556 10.9072087,2.05555556 C7.67846674,2.05555556 4.89958964,3.98165598 3.65690902,6.74752522 L5.60761832,7.87411902 L1.18502919,9.05914821 L-1.55619961e-12,4.63655908 L2.06180518,5.82761385 C3.62737531,2.51444616 6.99960321,0.222222222 10.9072087,0.222222222 Z" id="path-1"></path>
    </defs>
    <g id="Action/ic_free-cancellation" stroke="none" stroke-width="1" fill="none" fill-rule="evenodd">
        <g id="Color" transform="translate(1.000000, 2.000000)">
            <mask id="mask-2" fill="white">
                <use xlink:href="#path-1"></use>
            </mask>
            <use id="Mask" fill="#000000" xlink:href="#path-1"></use>
        </g>
    </g>
</svg>