<svg width="24" height="24" xmlns="http://www.w3.org/2000/svg"><path d="M10.5 6v1.5H21V6h.995A2 2 0 0 1 24 7.992v11.016c0 1.1-.897 1.992-2.005 1.992H2.005A2 2 0 0 1 0 19.008V7.992C0 6.892.897 6 2.005 6H10.5zm-9 2.502v9.996c0 .546.447 1.002.999 1.002H21.5c.56 0 .999-.449.999-1.002V8.502c0-.546-.447-1.002-.999-1.002H2.5A.995.995 0 0 0 1.5 8.502zM1.5 15h21v1.5h-21V15zm15-4.5v-3c.011.183.079.116 0 0h3V6h-3c.079.026.011-.04 0 0V3H15v3c-.011-.04-.077.026 0 0h-3v1.5h3c-.077.116-.011.183 0 0v3h1.5z"/></svg>
