<?xml version="1.0" encoding="UTF-8"?>
<svg width="24px" height="24px" viewBox="0 0 24 24" version="1.1" xmlns="http://www.w3.org/2000/svg" xmlns:xlink="http://www.w3.org/1999/xlink">
    <g stroke="none" stroke-width="1" fill="none" fill-rule="evenodd">
        <g id="classic-reward">
            <polygon id="Path" points="0 0 24 0 24 24 0 24"></polygon>
            <path d="M12,2 C16.418278,2 20,5.581722 20,10 C20,12.1067841 19.1856223,14.0233601 17.8544921,15.4521029 L19.9103991,19.9773979 C20.2153078,20.6483375 19.7156482,21.3920481 19.0038536,21.3914381 L18.8897884,21.3850372 L16.6016081,21.1313075 L15.2268927,22.6669812 C14.7585708,23.1901365 13.9249007,23.0750191 13.6032513,22.4782562 L13.5519834,22.3679772 L12.003,18.456 L10.4817338,22.3631419 C10.2273422,23.0158491 9.40901734,23.2016247 8.89787895,22.7585115 L8.81104416,22.6737539 L7.40411717,21.1306726 L5.11021159,21.3850372 C4.37772805,21.4662602 3.82619881,20.7601577 4.04805719,20.0838214 L4.08960088,19.9773979 L6.14550794,15.4521029 C4.81437769,14.0233601 4,12.1067841 4,10 C4,5.581722 7.581722,2 12,2 L12,2 Z M12,4 C8.6862915,4 6,6.6862915 6,10 C6,13.3137085 8.6862915,16 12,16 C15.3137085,16 18,13.3137085 18,10 C18,6.6862915 15.3137085,4 12,4 Z M12.2617553,7.16813811 L12.9986092,8.79921052 L14.7458618,8.98015336 C14.9912513,9.00556553 15.0913275,9.30905289 14.9091862,9.47544511 L13.6223515,10.6510122 L13.9902956,12.3704431 C14.0421475,12.6127511 13.7821365,12.8017305 13.567667,12.6776151 L12.0012977,11.7711427 L10.4349283,12.6776151 C10.2204589,12.8017305 9.96044784,12.6127511 10.0122998,12.3704431 L10.3802438,10.6510122 L9.0934091,9.47544511 C8.91126783,9.30905289 9.01134403,9.00556553 9.25673359,8.98015336 L11.0039861,8.79921052 L11.74084,7.16813811 C11.8421176,6.94395396 12.1604778,6.94395396 12.2617553,7.16813811 L12.2617553,7.16813811 Z" id="Shape" fill="#000000" fill-rule="nonzero"></path>
        </g>
    </g>
</svg>