<svg xmlns="http://www.w3.org/2000/svg" width="24" height="24">
  <path d="M10.4 8.5l-.3 2c0 .1 0 .1.1.2h.2l1.9-1 1.9 1h.2c.1 0 .1-.1.1-.2l-.3-2 1.4-1.4s.1-.1 0-.2c0-.1-.1-.1-.1-.1l-2-.3-.8-1.7c0-.1-.1-.1-.2-.1s-.1 0-.2.1l-.8 1.7-2 .3c-.4 0-.5.1-.5.1v.2l1.4 1.4z M8.5 18.6l1.8 3.9 3-8.3c3-.5 5.3-3.2 5.3-6.4 0-3.6-2.9-6.5-6.5-6.5S5.6 4.2 5.6 7.8c0 1.8.7 3.4 1.8 4.5-1.5 4.1-2.9 8.1-2.9 8.1l4-1.8zM6.9 7.9c0-2.9 2.4-5.3 5.3-5.3s5.3 2.4 5.3 5.3-2.4 5.3-5.3 5.3-5.3-2.4-5.3-5.3z M15.5 18.6l3.9 1.9-2.4-6.7c-.9.7-2 1.3-3.2 1.6-.6 1.6-1.4 3.9-1.4 3.9l1.2 3.3 1.9-4z" />
</svg>