<svg width="24" height="24" xmlns="http://www.w3.org/2000/svg"><path d="m23.81 22.683c.0199.0199.0398.0199.06.0199.04 0 .0601 0 .1001-.04.0399-.04.0399-.1199 0-.1599-2.3803-2.5005-5.3006-4.5206-8.561-5.8206-1.0001-.4001-1.0001-.4001-1.0001-.4001-.5201-.2202-.8601-.7201-.8601-1.3002.06-2.1402 5.1005-1.7001 5.6207-2.7203.08-.18.08-.18.08-.18-1.0401-.9001-2.2605-1.5601-3.6204-1.9401-.0199.06-.0602.2999.2198.76.3004.4801-.32 1.2601-1.24.4202-.0801-.0602-.0801-.0602-.0801-.0602-6.68067-6.12068-9.76081-2.08025-14.301286-9.20081-.040031-.06016-.099965-.08007-.160125-.04004-.05993358.04004-.0800623.09997-.05993369.1599 3.58041469 8.62095 10.90114469 6.80077 11.76124469 14.84165.04.3001.2601.54.56.5801 4.0603.64 8.0209 2.3202 11.4613 5.0805z" /></svg>
