<svg width="24" height="24" xmlns="http://www.w3.org/2000/svg"><g fill="none" fill-rule="evenodd"><path d="M0 0h24v24H0z"/><path d="M15.856 12.994c2.19 1.064 3.454 2.994 4.091 4.609.402 1.016.487 2.582.495 3.722v.383c-.003.484-.017.847-.017.99a881.33 881.33 0 01-10.704 0l.005-2.578v-.536-2.546a24.656 24.656 0 00-.005-.504c-.008-.212.116-.393.371-.542l2.377-1.696c1.339-.104 2.468-.538 3.387-1.302zM8.103 13c1.084.665 1.794 1.025 2.129 1.08-.496.312-1.329.866-1.753 1.237-.313.273-.302.25-.318.731-.02.552-.038 2.77-.058 6.656H3.626c-.14-1.786-.065-3.273.228-4.46.44-1.78 1.195-2.848 2.017-3.623.547-.518 1.292-1.058 2.232-1.62zm3.936 6.081a.749.749 0 100 1.497.749.749 0 000-1.497zm0-2.53a.749.749 0 100 1.498.749.749 0 000-1.498zm4.537-9.134a4.62 4.62 0 11-9.126.058c1.993-.021 3.095-.036 4.114-.046l.405-.004c.675-.005 1.36-.009 2.296-.01h1.042c.382 0 .802 0 1.27.002zm-4.563-6.129c1.366.045 3.282.34 3.894.575.613.235.68.441.718 1.235.025.528.019 1.484-.02 2.867L7.42 5.901c-.006-.404-.01-.771-.01-1.103l-.001-.47c.002-.74.02-1.255.053-1.546.08-.699.208-.825.719-.937.51-.112 2.466-.6 3.832-.556z" fill="#000"/></g></svg>