<svg xmlns="http://www.w3.org/2000/svg" width="24" height="24" viewBox="0 0 24 24"><title>  Inclusions&#x2F;ic_gift2</title><defs><path d="M8.5 12L8.5 21.2 3 21.2C2.3 21.2 1.6 20.6 1.5 19.8L1.5 19.7 1.5 12 8.5 12ZM18.5 12L18.5 19.7C18.5 20.5 17.9 21.1 17.1 21.2L17 21.2 11.5 21.2 11.5 12 18.5 12ZM15.7 1.7C16.8 2.9 16.8 4.9 15.7 6 15.6 6.1 15.5 6.2 15.4 6.3L18.2 6.3C19 6.3 19.7 7 19.7 7.8L19.7 10.3C19.7 10.8 19.3 11.1 18.9 11.1L11.5 11.1 11.5 7.6 8.5 7.6 8.5 11.1 1.1 11.1C0.7 11.1 0.3 10.8 0.3 10.3L0.3 7.8C0.3 7 1 6.3 1.8 6.3L4.4 6.3 4.2 6.2C3 5.1 2.9 3.3 3.9 2 5 0.7 6.9 0.5 8.2 1.6 9 2.2 9.7 3.3 10 4.4 10.2 3.3 10.7 2.3 11.3 1.7 12.5 0.5 14.5 0.5 15.7 1.7ZM12.3 2.8C11.7 3.4 11.1 5.1 11.7 5.7 12.3 6.4 13.9 5.7 14.6 5.1 15.2 4.4 15.2 3.4 14.6 2.8 13.9 2.2 12.9 2.2 12.3 2.8ZM5.1 3C4.6 3.7 4.7 4.7 5.4 5.2 6 5.8 7.8 6.2 8.3 5.5 8.9 4.8 8 3.3 7.4 2.8 6.7 2.2 5.7 2.3 5.1 3Z"/></defs><g fill="none"><polygon points="0 0 24 0 24 24 0 24"/><g transform="translate(2 1)"><mask fill="white"><use xlink:href="#path-1"/></mask><use xlink:href="#path-1" fill="#D8D8D8"/><g mask="url(#mask-2)"><rect x="-2" y="-1" width="24" height="24"/></g></g></g></svg>
