<svg xmlns="http://www.w3.org/2000/svg" width="56" height="50">
  <defs>
    <linearGradient id="a" x1="24.9561532%" x2="99.8540448%" y1="49.8759067%" y2="49.8759067%">
      <stop offset="0%" stop-color="#FFF" stop-opacity="0"/>
      <stop offset="28.5827463%" stop-color="#EDEDED" stop-opacity=".282"/>
      <stop offset="88.6%" stop-color="#BDBDBD" stop-opacity=".848"/>
      <stop offset="100%" stop-color="#AFAFAF"/>
    </linearGradient>
    <linearGradient id="b" x1="54.9086034%" x2="54.9086036%" y1="50%" y2="8.01565574%">
      <stop offset="0%" stop-color="#FFF" stop-opacity="0"/>
      <stop offset="51.203092%" stop-color="#E0E0E0" stop-opacity=".2617"/>
      <stop offset="66.5486203%" stop-color="#C5C5C5" stop-opacity=".5493"/>
      <stop offset="82.4154944%" stop-color="#B5B5B5" stop-opacity=".8047"/>
      <stop offset="100%" stop-color="#AFAFAF"/>
    </linearGradient>
    <linearGradient id="c" x1=".03930636%" x2="90.0479769%" y1="50.1715078%" y2="50.1715078%">
      <stop offset="0%" stop-color="#FFF" stop-opacity="0"/>
      <stop offset="8.390792%" stop-color="#F1F1F1" stop-opacity=".09323102"/>
      <stop offset="24.8264859%" stop-color="#D4D4D4" stop-opacity=".3246"/>
      <stop offset="44.5314557%" stop-color="silver" stop-opacity=".5548"/>
      <stop offset="70.32%" stop-color="#B3B3B3" stop-opacity=".7814"/>
      <stop offset="100%" stop-color="#AFAFAF"/>
    </linearGradient>
  </defs>
  <g fill="none" fill-rule="evenodd">
    <path fill="#FFF" d="M55.4366085 48.7533594c.0496632.0372475.1117423.0620791.1738214.0620791.062079 0 .1365739-.0248316.198653-.0744949.1117423-.1117423.1241581-.2855637.0124158-.4097219-5.5498688-5.8354324-12.3289031-10.4913626-19.9397969-13.5580686l-2.3217572-.931186c-1.1919181-.4842168-2.0237776-1.6637191-1.9865302-3.0170428.1241581-4.9663255 11.8819338-3.9606446 13.0738519-6.3444808l.2110688-.4097219c-2.4210837-2.061025-5.2891366-3.6254176-8.4551691-4.4945245-.0248317.1241581-.0993266.6952855.53388 1.7506297.6952855 1.1422549-.7697805 2.9549637-2.9053005.9932651l-.1738214-.1614056C18.3009095 7.90533212 11.1245691 17.3289348.57112743.7662392V.7538234C.48421673.61724943.31039534.580002.1738214.6669127.04966326.74140758.01241581.89039734.06207907 1.01455548 8.3930901 21.1281738 25.4275866 16.8571338 27.4513642 35.6050126c.0744949.6828698.5959591 1.2291656 1.2788289 1.3409079 9.4732659 1.4898977 18.6857997 5.3884632 26.7064154 11.8074389z"/>
    <path fill="url(#a)" d="M.58354325.1862372C12.5275561 19.1079374 25.3158443 9.77124544 27.46378 35.0374264 25.4524182 16.2895477 8.40550592 20.5605876.07449488.4469693.02483163.32281116.06207907.1738214.18623721.0993265c.12415813-.0869107.29797953-.04966325.39730604.0869107z" transform="translate(0 .580002)"/>
    <path fill="url(#b)" d="M41.1460068 23.2299876s-2.6073209.1241581-4.196545-2.470747c.4718009.7697805-.0496633 1.8623721-1.1050075 1.8623721v3.9606446c1.7133823-.4966326 3.6626651-.8070279 5.3015525-1.1422549v-2.2100148z" transform="translate(0 .580002)"/>
    <path fill="url(#c)" d="M30.6918916 36.7135613c8.7779804 1.6885507 17.2828128 5.4753739 24.732301 11.4597961-16.6123588-14.2036909-24.1860052-11.6336175-24.732301-11.4597961z" transform="translate(0 .580002)"/>
  </g>
</svg>