<svg xmlns="http://www.w3.org/2000/svg" width="82" height="78" viewBox="0 0 82 78">
    <defs>
        <linearGradient id="prefix__a" x1="89.373%" x2="-10.018%" y1="60.562%" y2="60.562%">
            <stop offset="0%" stop-color="#168196"/>
            <stop offset="100%" stop-color="#166979"/>
        </linearGradient>
    </defs>
    <g fill="none" fill-rule="evenodd">
        <path fill="url(#prefix__a)" d="M6.793 12.073c9.85-14.105 25.045-15.85 45.585-5.237 30.81 15.921 39.816 48.517 16.348 62.362-23.467 13.844-44.95 10.566-59.498-4.302-11.43-14.634-12.242-32.242-2.435-52.823z"/>
        <path fill="#FFF" fill-rule="nonzero" d="M18.621 39.872c3.275 0 5.475 2.026 5.475 5.273v.39h-2.933v-.365c0-1.538-.953-2.564-2.59-2.564-1.565 0-2.518 1.05-2.518 2.661v5.738c0 1.61.953 2.66 2.517 2.66 1.638 0 2.591-1.025 2.591-2.563v-.44h2.933v.465c0 3.247-2.2 5.273-5.475 5.273-3.324 0-5.621-2.05-5.621-5.347v-5.835c0-3.295 2.029-5.346 5.621-5.346zm22.754.244v10.889c0 1.61.904 2.66 2.468 2.66 1.54 0 2.469-1.05 2.469-2.66v-10.89h3.03v10.938c0 3.296-2.224 5.347-5.499 5.347-3.275 0-5.499-2.05-5.499-5.347V40.116h3.03zm-11.34 0v13.306h6.28v2.734H26.98v-16.04h3.055zm28.619 0c2.957 0 5.035 1.66 5.035 4.224 0 1.733-.831 2.93-2.322 3.54v.024c1.735.586 2.713 1.904 2.713 3.809 0 2.734-2.078 4.443-5.01 4.443h-6.257v-16.04h5.84zm-.073 9.13h-2.738v4.444h2.713c1.515 0 2.395-.854 2.395-2.222 0-1.318-.904-2.221-2.37-2.221zm-.318-6.664h-2.42v4.15h2.444c1.418 0 2.298-.757 2.298-2.124 0-1.294-.905-2.026-2.322-2.026zM26.726 23c2.416 0 4.073 1.48 4.073 3.857v4.21c0 2.378-1.657 3.858-4.073 3.858-2.433 0-4.09-1.48-4.09-3.858v-4.21c0-2.377 1.463-3.857 4.09-3.857zm33.326 0c2.292 0 3.826 1.303 3.826 3.417v.247h-2.15v-.335c0-.898-.653-1.515-1.676-1.515-1.005 0-1.57.546-1.57 1.286 0 .458.248 1.004 1.094 1.303l1.64.6c1.446.528 2.91 1.25 2.91 3.381 0 2.096-1.57 3.54-3.968 3.54-2.38 0-4.056-1.303-4.056-3.416v-.388h2.17v.476c0 .933.687 1.497 1.833 1.497 1.217 0 1.869-.617 1.869-1.462 0-.722-.423-1.216-1.27-1.515l-1.763-.67c-1.622-.598-2.592-1.55-2.592-3.187 0-1.78 1.393-3.259 3.703-3.259zm-42.9.176c2.31 0 4.002 1.497 4.002 3.752 0 2.378-1.692 3.875-4.002 3.875h-1.834v3.945h-2.204V23.176h4.038zm18.108 0v11.572h-2.204V23.176h2.204zm4.462 0l4.02 7.134v-7.134h2.01v11.572h-1.799l-4.108-7.31v7.31h-2.01V23.176h1.887zm15.375 0v1.973H52.33v9.6h-2.187v-9.6h-2.786v-1.973h7.741zm-28.37 1.797c-1.2 0-1.888.757-1.888 1.92v4.139c0 1.162.688 1.92 1.887 1.92 1.182 0 1.87-.758 1.87-1.92v-4.14c0-1.162-.688-1.92-1.87-1.92zm-9.77.123h-1.64v3.787h1.64c1.217 0 1.958-.74 1.958-1.902 0-1.145-.74-1.885-1.957-1.885z"/>
    </g>
</svg>
