<svg width="35" height="24" xmlns="http://www.w3.org/2000/svg"><g fill="none" fill-rule="evenodd"><path d="M31.292 23.907H3.634A3.146 3.146 0 0 1 .49 20.761V3.146A3.146 3.146 0 0 1 3.634 0h27.658a3.146 3.146 0 0 1 3.146 3.146V20.76a3.146 3.146 0 0 1-3.146 3.146" fill="#006FCF"/><path d="M34.415 19.194v-5.56H13.369l-.536.759-.531-.76H6.25v5.926h6.029l.525-.77.543.77h3.773v-1.278h-.04c.47 0 .896-.085 1.274-.225v1.503h2.632v-.861l.662.861h11.42c.328 0 .636-.055.912-.156.156-.056.301-.126.435-.209zm-4.157-7.6h2.547V5.667h-2.718v.948l-.605-.948h-2.37v1.199l-.53-1.199h-3.917c-.189 0-.372.014-.55.042a3.078 3.078 0 0 0-.766.226c-.122.056-.24.121-.351.196V5.667H8.214l-.348 1.034-.354-1.034H4.537v1.211L4 5.668H1.574L.489 8.201v3.392h1.718l.32-.85h.605l.326.85h13.223v-.862l.663.862h3.654v-.431a2.454 2.454 0 0 0 .597.28c.128.042.257.073.387.096.21.039.42.055.62.055h2.187l.32-.85h.605l.325.85h3.666v-.88l.553.88z" fill="#F7F7F7"/><path d="M10.378 15.409v-.811H7.18v3.997h3.198v-.805H8.14v-.805h2.187v-.8H8.14v-.776h2.238zm3.329 3.186h1.199L13.3 16.579l1.593-1.981H13.73l-.983 1.268-.976-1.268h-1.199l1.599 1.998-1.593 1.999h1.164l.983-1.285.982 1.285zm1.41-3.997v3.997h.959v-1.32h1.205c.874 0 1.416-.57 1.416-1.341 0-.793-.531-1.336-1.382-1.336h-2.198zm2.615 1.342c0 .268-.171.49-.508.49h-1.148v-.981h1.148c.337 0 .508.217.508.49zm2.444 1.216h.45l1.194 1.439h1.193l-1.33-1.473c.68-.126 1.085-.617 1.085-1.256 0-.748-.531-1.268-1.382-1.268h-2.17v3.997h.96v-1.44zm1.124-1.742c.343 0 .526.223.526.498 0 .273-.183.49-.526.49h-1.124v-.988H21.3zm5.356-.005v-.811H23.46v3.997h3.197v-.805h-2.238v-.805h2.187v-.8h-2.187v-.776h2.238zm2.632 2.386h-2.05v.8h2.021c.863 0 1.377-.525 1.377-1.274 0-.713-.463-1.13-1.24-1.13h-.924c-.229 0-.389-.149-.389-.383 0-.24.16-.4.389-.4h1.735l.354-.81H28.5c-.862 0-1.376.525-1.376 1.245 0 .736.485 1.159 1.245 1.159h.919c.228 0 .394.148.394.388 0 .245-.166.405-.394.405zm3.803 0h-2.05v.8h2.02c.863 0 1.377-.525 1.377-1.274 0-.713-.462-1.13-1.239-1.13h-.925c-.229 0-.388-.149-.388-.383 0-.24.16-.4.388-.4h1.735l.355-.81h-2.061c-.863 0-1.376.525-1.376 1.245 0 .736.485 1.159 1.245 1.159h.919c.228 0 .393.148.393.388 0 .245-.165.405-.393.405zM4.109 10.63h1.079L3.48 6.631H2.219L.506 10.63h1.022l.337-.856h1.901l.343.856zM2.52 8.122l.292-.748.29.748.355.885H2.173l.348-.885zm3.82-.223l-.023-1.08 1.108 3.81h.868l1.108-3.786-.023 1.05v2.735h.93V6.632H8.62l-.76 2.832-.764-2.832H5.41v3.997h.93V7.9zm7.954-.457v-.81h-3.198v3.996h3.198v-.816h-2.238v-.794h2.186v-.8h-2.186v-.776h2.238zm1.661 1.747h.451l1.194 1.44h1.193l-1.33-1.474c.68-.126 1.085-.617 1.085-1.256 0-.748-.532-1.268-1.382-1.268h-2.17v3.997h.959V9.19zm1.125-1.741c.342 0 .525.223.525.497s-.183.49-.525.49h-1.125V7.45h1.125zm2.015 3.18h.96V6.632h-.96v3.997zm3.409 0h.052l.393-.85h-.29c-.658 0-1.046-.412-1.046-1.12v-.057c0-.634.348-1.107 1.034-1.107h1.039v-.863h-1.12c-1.232 0-1.906.828-1.906 1.965v.068c0 1.188.69 1.958 1.844 1.964zm4.185 0h1.079l-1.707-3.997H24.8l-1.713 3.997h1.022l.337-.856h1.901l.343.856zm-1.587-2.506l.291-.748.29.748.355.885h-1.284l.348-.885zm3.825.114l-.011-.331.2.33 1.53 2.393h1.119V6.632h-.936v2.313l.011.297-.177-.297-1.496-2.313h-1.176v3.997h.936V8.237z" fill="#006FCF"/></g></svg>