<svg height="48" viewBox="0 0 48 48" width="48" xmlns="http://www.w3.org/2000/svg"><g fill="none" fill-rule="evenodd"><path d="m0 0h48v48h-48z" fill="none"/><g transform="translate(16.745365 8.121239)"><path d="m19.2546345 19.3787615 11 10.5" stroke="#323232" stroke-linecap="round" stroke-linejoin="round" stroke-width="2"/><circle cx="11.254635" cy="11.878762" r="11" stroke="#323232" stroke-linecap="round" stroke-linejoin="round" stroke-width="2"/><path d="m15.7919501 5.28902852c2.0917741 1.44302016 3.4626844 3.85627993 3.4626844 6.58973298 0 4.418278-3.581722 8-8 8-1.47784919 0-2.86210414-.4007247-4.05003422-1.0994433 5.11336112-.7066918 9.05003422-5.0938946 9.05003422-10.40055673 0-1.04571948-.1528681-2.05573471-.4374764-3.00891777z" fill="#8de2e0"/></g><g stroke="#323232" stroke-linecap="round" stroke-width="2" transform="translate(1 11.5)"><path d="m0 .5h9"/><path d="m0 8.5h7"/><path d="m0 16.5h9"/><path d="m0 24.5h15"/></g></g></svg>