<?xml version="1.0" encoding="UTF-8"?>
<svg width="48px" height="48px" viewBox="0 0 48 48" version="1.1" xmlns="http://www.w3.org/2000/svg" xmlns:xlink="http://www.w3.org/1999/xlink">
    <title>no-fees</title>
    <g id="no-fees" stroke="none" stroke-width="1" fill="none" fill-rule="evenodd">
        <g id="icon-no-fees">
            <rect id="Bounds" fill-opacity="0" fill="#FFFFFF" x="0" y="0" width="48" height="48"></rect>
            <path d="M41.8488721,11.136538 C44.5325197,14.8535999 46.0001,19.3176814 46.0001,24.0009 C46.0001,36.1503467 36.1502228,45.9999 24.0001,45.9999 C19.7813789,45.9999 15.7363281,44.8093421 12.2472648,42.6008564 C11.7806082,42.305475 11.6417623,41.6877213 11.9371436,41.2210648 C12.232525,40.7544082 12.8502787,40.6155623 13.3169352,40.9109436 C16.488353,42.918368 20.1629763,43.9999 24.0001,43.9999 C35.045668,43.9999 44.0001,35.0457625 44.0001,24.0009 C44.0001,19.7415185 42.6669395,15.6863149 40.2273279,12.307262 C39.9040414,11.8594849 40.004961,11.2344144 40.452738,10.9111279 C40.9005151,10.5878414 41.5255856,10.688761 41.8488721,11.136538 Z M39.2718,6.3148353 C39.6503165,5.91266155 40.2831909,5.89348354 40.6853647,6.27200001 C41.0875384,6.65051648 41.1067165,7.28339095 40.7282,7.6855647 L40.7282,7.6855647 L8.72819999,41.6855647 C8.34968352,42.0877384 7.71680905,42.1069165 7.3146353,41.7284 C6.91246155,41.3498835 6.89328354,40.7170091 7.27180001,40.3148353 L7.27180001,40.3148353 L39.2718,6.3148353 Z M24.0004,2.0004 C28.2093075,2.0004 32.2468461,3.18574723 35.7293341,5.38487389 C36.1963053,5.67975754 36.3358098,6.2973629 36.0409261,6.76433408 C35.7460425,7.23130525 35.1284371,7.37080976 34.6614659,7.07592611 C31.496311,5.07718941 27.8285428,4.0004 24.0004,4.0004 C12.9540375,4.0004 4.0004,12.954332 4.0004,24.0004 C4.0004,28.2367407 5.3187448,32.2715335 7.73307923,35.6386887 C8.0549018,36.087519 7.95194166,36.7122567 7.50311131,37.0340792 C7.05428097,37.3559018 6.42954334,37.2529417 6.10772077,36.8041113 C3.45168251,33.0998635 2.0004,28.658215 2.0004,24.0004 C2.0004,11.8497772 11.8494533,2.0004 24.0004,2.0004 Z" id="Shape" fill="#323232" fill-rule="nonzero"></path>
            <path d="M28.2051,23.9089 C29.2471,24.7389 30.0201,25.9139 30.0201,27.7919 C30.0201,30.7879 28.0881,32.8599 25.1201,33.2229 L25.1201,33.2229 L25.1201,36.0239 L22.9361,36.0239 L22.9361,33.1679 C21.9441,33.0329 21.0831,32.7079 20.3661,32.2389 L20.3661,32.2389 L22.1411,30.3519 C22.6431,30.6809 23.2941,30.8719 24.0841,30.8719 C26.0721,30.8719 27.1921,29.6959 27.1921,28.0989 C27.1921,27.1499 26.8271,26.4999 26.2301,26.0079 L26.2301,26.0079 L28.2051,23.9089 Z M25.1199,11.5802 L25.1199,14.4082 C26.1839,14.5612 27.1029,14.9582 27.8359,15.5462 L27.8359,15.5462 L26.0369,17.4592 C25.5629,17.0032 24.8929,16.7322 24.0559,16.7322 C22.2919,16.7322 21.3119,17.7402 21.3119,19.1122 C21.3119,19.9032 21.7289,20.6762 22.5449,21.1682 L22.5449,21.1682 L20.5849,23.2512 C19.3309,22.3542 18.5119,21.1062 18.5119,19.3072 C18.5119,16.8162 20.2199,14.8562 22.9359,14.4082 L22.9359,14.4082 L22.9359,11.5802 L25.1199,11.5802 Z" id="Shape" fill="#E40000"></path>
        </g>
    </g>
</svg>