<svg width="64" height="64" xmlns="http://www.w3.org/2000/svg"><g fill="none" fill-rule="evenodd"><path d="M0 0h64v64H0z"/><g fill-rule="nonzero"><path fill="none" d="M8 8h48v48H8z"/><path d="M33.951 54.92c-.18.919-.86 1.413-1.951 1.413-1.09 0-1.77-.494-1.951-1.412C26 54.544 26 52.836 26 50c0-.552.512-1 1.143-1h9.714c.631 0 1.143.448 1.143 1 0 2.836 0 4.544-4.049 4.92z" fill="#E40000"/><path d="M52.358 27c.355 0 .642.447.642 1 0 .553-.287 1-.642 1h-3.716c-.355 0-.642-.447-.642-1 0-.553.287-1 .642-1h3.716zm-37 0c.355 0 .642.447.642 1 0 .553-.287 1-.642 1h-3.716c-.355 0-.642-.447-.642-1 0-.553.287-1 .642-1h3.716zM31 8.642c0-.355.447-.642 1-.642.553 0 1 .287 1 .642v3.716c0 .355-.447.642-1 .642-.553 0-1-.287-1-.642V8.642zm14.607 4.837c.25-.25.77-.138 1.16.253.392.391.505.91.254 1.161l-2.628 2.628c-.25.25-.77.138-1.16-.253-.392-.391-.505-.91-.254-1.161l2.628-2.628zm-27.214 0l2.628 2.628c.25.25.138.77-.253 1.16-.391.392-.91.505-1.161.254l-2.628-2.628c-.25-.25-.138-.77.253-1.16.391-.392.91-.505 1.161-.254zM46.607 42.52l-2.628-2.628c-.25-.25-.138-.77.253-1.16.391-.392.91-.505 1.161-.254l2.628 2.628c.25.25.138.77-.253 1.16-.391.392-.91.505-1.161.254zm-29.214 0c-.25.25-.77.138-1.16-.253-.392-.391-.505-.91-.254-1.161l2.628-2.628c.25-.25.77-.138 1.16.253.392.391.505.91.254 1.161l-2.628 2.628zM28 46a1 1 0 01-2 0v-1c0-1.739-.565-3.15-1.707-4.293-.213-.212-1.12-1.078-1.127-1.085-.526-.509-.947-.94-1.358-1.402C19.355 35.46 18 32.298 18 28c0-7.394 6.265-13 14-13s14 5.606 14 13c0 4.298-1.355 7.46-3.808 10.22-.411.463-.832.893-1.358 1.402-.008.007-.914.873-1.127 1.085-.39.39-.71.848-.969 1.365a7.223 7.223 0 00-.646 2.038c-.07.416-.092.731-.092.89v1a1 1 0 01-2 0v-1c0-.985.235-2.393.95-3.822a7.196 7.196 0 011.343-1.885c.232-.232 1.159-1.117 1.15-1.11.493-.475.881-.872 1.254-1.292C42.842 34.478 44 31.776 44 28c0-6.237-5.323-11-12-11s-12 4.763-12 11c0 3.776 1.158 6.478 3.303 8.891.373.42.76.817 1.253 1.293-.008-.008.92.877 1.151 1.109C27.231 40.817 28 42.739 28 45v1z" fill="#323232"/><path d="M41 33c5-10-6-16-11-14 6.667 2 10.333 6.667 11 14z" fill="#8DE2E0"/></g></g></svg>