<svg width="47" height="40" xmlns="http://www.w3.org/2000/svg"><g transform="translate(-1 -3)" fill="none" fill-rule="evenodd"><rect fill="#FFF" x="2" y="10" width="44" height="29" rx="2"/><g fill-rule="nonzero"><path d="M17.024 14.009V9.897c0-1.333 2-1.333 2 0v4.112c0 1.333-2 1.333-2 0zM10 39.061v2.917c0 1.333-2 1.333-2 0V39.06c0-1.333 2-1.333 2 0zm30 0v2.917c0 1.333-2 1.333-2 0V39.06c0-1.333 2-1.333 2 0z" fill="#323232"/><path d="M21.005 30.926h-6.051a.957.957 0 01-.957-.957v-9.076c0-.254.1-.497.28-.677l3.026-3.025a.957.957 0 011.353 0l3.025 3.025c.18.18.28.423.28.677v9.076a.957.957 0 01-.956.957z" fill="#E40000"/><path d="M3 12.981v23.03a2 2 0 002 2h38.039a2 2 0 002-2V13.026a2 2 0 00-1.998-2L5.002 10.98a2 2 0 00-2.002 2zm40.043-3.955a4 4 0 013.996 4V36.01a4 4 0 01-4 4H5a4 4 0 01-4-4V12.98a4 4 0 014-4l38.043.045z" fill="#323232"/><path d="M19.02 9.897a1 1 0 01-2 0V6.21C17.02 4.434 18.478 3 20.268 3h7.494c1.79 0 3.248 1.434 3.248 3.211v3.686a1 1 0 01-2 0V6.21c0-.665-.555-1.211-1.248-1.211h-7.494c-.693 0-1.248.546-1.248 1.211v3.686zm-11.027.437c0-.526.448-.953 1-.953s1 .427 1 .953v28.094c0 .526-.448.953-1 .953s-1-.427-1-.953V10.334zm30.028 0c0-.526.448-.953 1-.953.553 0 1 .427 1 .953v28.094c0 .526-.447.953-1 .953-.552 0-1-.427-1-.953V10.334z" fill="#323232"/></g></g></svg>