<svg width="35" height="24" xmlns="http://www.w3.org/2000/svg"><g fill="none" fill-rule="evenodd"><path d="M31.048 23.907H3.39a3.146 3.146 0 0 1-3.146-3.146V3.146A3.146 3.146 0 0 1 3.39 0h27.658a3.146 3.146 0 0 1 3.146 3.146V20.76a3.146 3.146 0 0 1-3.146 3.146" fill="#36495D"/><path fill="#F16522" d="M14.367 17.078h5.703V6.828h-5.703z"/><path d="M14.73 11.954c0-2.08.973-3.932 2.489-5.125a6.518 6.518 0 1 0 0 10.25 6.508 6.508 0 0 1-2.49-5.125" fill="#E41B24"/><path d="M27.562 15.992v-.252h-.067l-.075.174-.076-.174h-.066v.252h.046v-.19l.071.164h.049l.071-.165v.191h.047zm-.419 0v-.21h.085v-.042h-.216v.043h.085v.21h.046zm.622-4.039a6.518 6.518 0 0 1-10.546 5.125 6.506 6.506 0 0 0 2.49-5.125c0-2.08-.974-3.93-2.49-5.125a6.518 6.518 0 0 1 10.546 5.125z" fill="#F89E1C"/></g></svg>