<svg height="42" viewBox="0 0 48 42" width="48" xmlns="http://www.w3.org/2000/svg"><g fill="none" fill-rule="evenodd" transform="translate(0 -2.5)"><path d="m0 0h48v48h-48z" fill="none"/><path d="m36 20c6.627417 0 12 5.372583 12 12s-5.372583 12-12 12c-6.0395849 0-11.0370638-4.4617858-11.8760724-10.2689929.6580944-.3734533 1.2884964-.7875318 1.8888817-1.239356.2556285 5.2947052 4.629335 9.5083489 9.9871907 9.5083489 5.5228475 0 10-4.4771525 10-10s-4.4771525-10-10-10c-1.22751 0-2.403363.2211698-3.489883.6258335.175472-.7229578.3053763-1.4638775.387217-2.2192152.9886372-.2656639 2.0291908-.4066183 3.102666-.4066183zm.7089347 6v1.3883162c1.3333333.1924398 2.2268041 1.1408934 2.2268041 2.5429553v.1786941h-1.3883161v-.2336769c0-.7835052-.5085911-1.3470791-1.3608248-1.3470791-.8659793 0-1.347079.4948454-1.347079 1.1683849 0 .4536082.2611684.9072165.8109966 1.1271478l1.3058419.5360824c1.0171821.4123712 2.1580756.9896908 2.1580756 2.5979382 0 1.4707904-.9484536 2.4879725-2.4054983 2.6666667v1.3745704h-1.0721649v-1.4020619c-1.4158076-.1924398-2.3367698-1.1271477-2.3367698-2.5292096v-.2611684h1.3883162v.3161512c0 .8109966.5635738 1.3470791 1.5120274 1.3470791.9759451 0 1.5257732-.5773196 1.5257732-1.3608248 0-.742268-.4536082-1.113402-1.0996563-1.3883161l-1.2783505-.5223368c-1.0859107-.4398625-1.8831615-1.1546392-1.8831615-2.4054983 0-1.2233677.8384879-2.185567 2.1718213-2.4054982v-1.3883162zm-21.2089347-23c8.5604136 0 15.5 6.93958638 15.5 15.5 0 8.5604136-6.9395864 15.5-15.5 15.5-8.56041362 0-15.5-6.9395864-15.5-15.5 0-8.56041362 6.93958638-15.5 15.5-15.5zm0 2c-7.45584412 0-13.5 6.0441559-13.5 13.5s6.04415588 13.5 13.5 13.5c7.4558441 0 13.5-6.0441559 13.5-13.5s-6.0441559-13.5-13.5-13.5z" fill="#323232" fill-rule="nonzero"/><path d="m23.6370531 26.9846186c.0147426.0153814.0294852.0153814.0443953.0153814.0296527 0 .0445628 0 .0742155-.0309376.0294852-.0309375.0294852-.0926379 0-.1235754-1.7632462-1.9324616-3.9263849-3.4936724-6.3414876-4.4983566-.7408147-.3092009-.7408147-.3092009-.7408147-.3092009-.3853175-.170244-.6371141-.5565265-.6371141-1.004859.0443953-1.6540235 3.7781214-1.3138851 4.1634389-2.102356.0593054-.1391316.0593054-.1391316.0593054-.1391316-.7704674-.6956582-1.6744557-1.2056911-2.6818095-1.4993357-.0147426.0463189-.0445628.2317695.1628385.5872893.2224789.371076-.237054.9739215-.9185633.324757-.0593054-.0464937-.0593054-.0464937-.0593054-.0464937-4.9486488-4.730301-7.23023074-1.6077046-10.59354953-7.1107454-.02965269-.0464938-.07404796-.0618752-.11861076-.0309376-.04439527.0309376-.05930538.0772565-.04439527.1235755 2.65215679 6.6625877 8.07491366 5.2558899 8.71202766 11.4701452.0296527.2319443.1926587.4173949.4148026.4483324 3.007654.4946515 5.9414276 1.7931552 8.4898838 3.9264487z" fill="#e40000"/></g></svg>