<svg height="48" viewBox="0 0 48 48" width="48" xmlns="http://www.w3.org/2000/svg"><g fill="none" fill-rule="evenodd"><path d="m0 0h48v48h-48z" fill="none"/><circle cx="24" cy="24" r="21" stroke="#323232" stroke-width="2"/><path d="m36.4555797 35.9769279c.0221139.0230721.0442278.0230721.0665929.0230721.0444791 0 .0668442 0 .1113233-.0464063.0442277-.0464064.0442277-.1389569 0-.1853632-2.6448693-2.8986924-5.8895773-5.2405086-9.5122315-6.747535-1.1112221-.4638012-1.1112221-.4638012-1.1112221-.4638012-.5779761-.255366-.955671-.8347899-.955671-1.5072886.0665929-2.4810352 5.6671821-1.9708276 6.2451583-3.153534.0889581-.2086974.0889581-.2086974.0889581-.2086974-1.1557011-1.0434873-2.5116835-1.8085365-4.0227143-2.2490035-.0221138.0694784-.0668442.3476543.2442578.880934.3337184.5566139-.355581 1.4608822-1.377845.4871355-.088958-.0697406-.088958-.0697406-.088958-.0697406-7.4229733-7.0954514-10.8453462-2.4115568-15.8903243-10.6661181-.0444791-.0697406-.111072-.0928127-.1779162-.0464064-.0665929.0464064-.08895806.1158848-.0665929.1853632 3.9782352 9.9938816 12.1123704 7.8838349 13.0680415 17.2052178.044479.3479165.2889881.6260924.6222039.6724987 4.511481.7419772 8.9121414 2.6897327 12.7348256 5.889673z" fill="#e40000"/></g></svg>