<svg xmlns="http://www.w3.org/2000/svg" width="48" height="48" viewBox="0 0 48 48"><style>.a{fill:none;}</style><title>  icon-points-plus-pay</title><desc>  Created with Sketch.</desc><defs><circle cx="15.6" cy="15.8" r="15.5"/></defs><g class="a"><rect width="48" height="48" class="a"/><g transform="translate(-432 -48)translate(431 48)translate(25.036088 20.166792)"><path d="M12 22.8C18 22.8 23 17.9 23 11.8 23 5.8 18 0.8 12 0.8 5.9 0.8 1 5.8 1 11.8 1 17.9 5.9 22.8 12 22.8Z" style="stroke-width:2;stroke:#323232"/><text font-family="Ciutadella-Md, Ciutadella" font-size="14" style="fill:#323232;font-weight:400"><tspan x="8.6" y="16.3">  $</tspan></text></g><g stroke-width="2"><circle cx="15.6" cy="15.8" r="14.5" style="fill:#FFF;stroke-linejoin:square;stroke:#323232"/><circle cx="15.6" cy="15.8" r="16.5" stroke="#FFF"/></g><g fill="#E40000"><path d="M23.6 27C23.7 27 23.7 27 23.7 27 23.7 27 23.7 27 23.8 27 23.8 26.9 23.8 26.9 23.8 26.8 22 24.9 19.8 23.4 17.4 22.3 16.7 22 16.7 22 16.7 22 16.3 21.9 16 21.5 16 21 16.1 19.4 19.8 19.7 20.2 18.9 20.3 18.8 20.3 18.8 20.3 18.8 19.5 18.1 18.6 17.6 17.6 17.3 17.6 17.3 17.5 17.5 17.7 17.9 18 18.3 17.5 18.9 16.8 18.2 16.8 18.2 16.8 18.2 16.8 18.2 11.8 13.4 9.5 16.6 6.2 11 6.1 11 6.1 11 6 11 6 11 6 11.1 6 11.1 8.7 17.8 14.1 16.4 14.7 22.6 14.7 22.8 14.9 23 15.1 23.1 18.1 23.6 21.1 24.9 23.6 27L23.6 27"/></g></g></svg>
