<?xml version="1.0" encoding="UTF-8"?>
<svg width="48px" height="48px" viewBox="0 0 48 48" version="1.1" xmlns="http://www.w3.org/2000/svg" xmlns:xlink="http://www.w3.org/1999/xlink">
    <!-- Generator: Sketch 54.1 (76490) - https://sketchapp.com -->
    <title>classic rewards</title>
    <desc>Created with Sketch.</desc>
    <g id="classic-rewards" stroke="none" stroke-width="1" fill="none" fill-rule="evenodd">
        <rect id="size-guide" opacity="0" x="0" y="0" width="48" height="48"></rect>
        <g id="Icon/Awards" transform="translate(3.291711, 2.291711)">
            <g id="medal" transform="translate(0.037029, 0.018515)">
                <path d="M20.6730871,30.3280429 C28.4709592,30.3280429 34.7923836,24.0066185 34.7923836,16.2087464 C34.7923836,8.41087429 28.4709592,2.08944994 20.6730871,2.08944994 C12.875215,2.08944994 6.55379062,8.41087429 6.55379062,16.2087464 C6.55379062,24.0066185 12.875215,30.3280429 20.6730871,30.3280429 Z M20.6730871,32.3280429 C11.7706455,32.3280429 4.55379062,25.111188 4.55379062,16.2087464 C4.55379062,7.30630479 11.7706455,0.0894499384 20.6730871,0.0894499384 C29.5755287,0.0894499384 36.7923836,7.30630479 36.7923836,16.2087464 C36.7923836,25.111188 29.5755287,32.3280429 20.6730871,32.3280429 Z" id="Oval" fill="#323232" fill-rule="nonzero"></path>
                <g id="Group-10" transform="translate(0.821260, 27.189775)">
                    <path d="M0.0005,10.29 L9.0425,9.454 L13.4185,17.411 L18.9035,7.076 C18.177788,7.03892659 17.4627977,6.96301559 16.7624,6.8433 C13.5472728,6.84859875 11.3749615,6.54628253 10.2454661,5.93635135 C9.16205555,5.3513062 8.03336687,3.91662241 6.8594,1.6323 C6.35996214,1.11905364 5.89796302,0.569784156 5.4615,0 L0.0005,10.29 Z" id="Fill-1" fill="#323232"></path>
                    <path d="M6.8594,1.6323 L3.5024,7.9573 L10.1634,7.3413 L13.3864,13.2043 L16.7624,6.8433 C12.9094,6.1823 9.4714,4.3173 6.8594,1.6323" id="Fill-4" fill="#8DE2E0"></path>
                    <path d="M33.8829,0.4467 C33.4355679,0.994984814 32.9532801,1.51203274 32.4458,2.0038 C30.8388599,4.15326059 29.4801815,5.50542397 28.3697648,6.06029014 C27.2279958,6.63082278 25.2336742,6.9186594 22.3868,6.9238 C21.6748209,7.02401684 20.9539738,7.08934009 20.2179,7.1047 L25.6889,17.4107 L30.0649,9.4537 L39.1069,10.2897 L33.8829,0.4467 Z" id="Fill-6" fill="#323232"></path>
                    <path d="M22.3868,6.9238 L25.7198,13.2038 L28.9438,7.3418 L35.6048,7.9578 L32.4458,2.0038 C29.7598,4.6088 26.2718,6.3758 22.3868,6.9238" id="Fill-8" fill="#8DE2E0"></path>
                </g>
                <path d="M27.5312796,13.9808877 L22.7531663,13.9808877 L21.2756303,9.43625583 C21.0857793,8.85255246 20.259161,8.85255246 20.06931,9.43625583 L18.5929532,13.9808877 L13.8148399,13.9808877 C13.2004774,13.9808877 12.9445913,14.7674133 13.4422131,15.1282481 L17.3076266,17.9370995 L15.8312698,22.4817314 C15.6414188,23.0654348 16.3100244,23.5512646 16.8076463,23.1904298 L20.6730597,20.3815784 L24.5384732,23.1904298 C25.036095,23.5512646 25.7047007,23.0654348 25.5148497,22.4817314 L24.0384929,17.9370995 L27.9039063,15.1282481 C28.400349,14.7674133 28.1456421,13.9808877 27.5312796,13.9808877 Z" id="Shape" fill="#E40000" fill-rule="nonzero"></path>
            </g>
        </g>
    </g>
</svg>
