<svg height="48" viewBox="0 0 48 48" width="48" xmlns="http://www.w3.org/2000/svg"><g fill="none" fill-rule="evenodd"><path d="m0 0h48v48h-48z" fill="none"/><path d="m24 7-15 6-1-3 16-6.5 16 6.5-1 3z" fill="#8de2e0" fill-rule="nonzero"/><path d="m40.5812185 9.90772846c.0003635.00015995.0007201.00031447.0011364.00049489-.0004241-.00018721-.0007847-.0003464-.0011485-.00050632zm-.5811444-.24337646c-.0272148-.01131555-.0553099-.02299292-.0842783-.03502924-.4394553-.18259294-1.0759639-.44616072-1.8742543-.77612745-1.5343981-.6342307-3.608967-1.48998402-5.740106-2.36781352-3.972237-1.63618925-7.2604237-2.98643216-8.3037536-3.40966222-.9607512.38953406-3.9980659 1.63871016-8.1132347 3.33660696-.0136508.00563226-.0136508.00563226-.0273016.01126454-1.855877.76573203-3.8426541 1.58617434-5.8283037 2.40661875-.6949813.2871572-1.12511487.46492177-1.91908912.79309855-.03908086.01615538-.07559653.03125035-.10975278.04536999v11.33132164c0 5.5059126.71862964 9.8832351 2.6509638 13.7213393 2.4526444 4.871572 6.7307402 8.3593663 13.3486385 10.2401928 6.5873804-1.8782623 10.8673307-5.4000292 13.3337227-10.3149663 1.9359531-3.8578978 2.6667491-8.2568431 2.6667491-13.6465658 0-1.5 0-1.5 0-6 0-3.735098 0-4.3699833 0-5.335648z" stroke="#323232" stroke-width="2"/><path d="m30.6309695 16-9.8682726 10.6660147-3.7938187-4.0997555-2.4688782 2.6679706 6.2608869 6.7657702 12.3371508-13.3339853z" fill="#e40000"/></g></svg>