<svg width="34" height="24" xmlns="http://www.w3.org/2000/svg"><g fill="none" fill-rule="evenodd"><path d="M30.804 23.907H3.146A3.146 3.146 0 0 1 0 20.761V3.146A3.146 3.146 0 0 1 3.146 0h27.658a3.146 3.146 0 0 1 3.145 3.146V20.76a3.146 3.146 0 0 1-3.145 3.146" fill="#0066B2"/><path fill="#FFF" d="M15.533 15.699h-1.768l1.105-6.792h1.769zM12.278 8.907l-1.686 4.671-.2-1.006-.595-3.053s-.071-.612-.838-.612H6.172l-.033.115s.853.177 1.85.776l1.536 5.9h1.842l2.814-6.791h-1.903zM24.24 13.296l.93-2.542.522 2.542H24.24zm1.946 2.403h1.623l-1.415-6.792h-1.422c-.656 0-.816.506-.816.506l-2.637 6.286h1.843l.369-1.01h2.247l.208 1.01zM21.657 10.54l.252-1.459s-.778-.296-1.59-.296c-.877 0-2.961.384-2.961 2.249 0 1.755 2.445 1.776 2.445 2.698 0 .921-2.193.756-2.917.175l-.263 1.525s.79.384 1.996.384 3.027-.625 3.027-2.326c0-1.765-2.468-1.93-2.468-2.698 0-.767 1.723-.669 2.48-.252"/><path d="M10.393 12.573l-.596-3.054s-.071-.612-.838-.612H6.172l-.033.115s1.34.277 2.625 1.317c1.228.995 1.629 2.234 1.629 2.234" fill="#F9A533"/></g></svg>