<?xml version="1.0" encoding="UTF-8"?>
<svg width="48px" height="48px" viewBox="0 0 48 48" version="1.1" xmlns="http://www.w3.org/2000/svg" xmlns:xlink="http://www.w3.org/1999/xlink">
    <!-- Generator: Sketch 57.1 (83088) - https://sketch.com -->
    <title>icon-additional-baggage</title>
    <desc>Created with Sketch.</desc>
    <g id="---Detailed" stroke="none" stroke-width="1" fill="none" fill-rule="evenodd">
        <g id="Travel-" transform="translate(-48.000000, -48.000000)">
            <g id="additional-baggage" transform="translate(48.000000, 48.000000)">
                <g id="Icons-/-02-Detailed-/-Default-/-Additional-baggage" transform="translate(-0.000000, 0.000000)">
                    <rect id="Bounds" fill-opacity="0" fill="#FFFFFF" fill-rule="evenodd" x="4.54747351e-13" y="0" width="48" height="48"></rect>
                    <polygon id="Shape" fill="#8DE2E0" fill-rule="evenodd" points="28 34.9995147 46 35.006635 46 39 28 39"></polygon>
                    <path d="M27,3 C28.7882115,3 30,4.22071159 30,6 L30,8.994 L42.0011734,9.00000069 C44.1430055,9.00251393 45.9275666,10.7113016 46.033035,12.8624643 L46.0379631,13.0653932 L45.99921,14.0397416 C45.9772613,14.5915901 45.5121068,15.0211587 44.9602584,14.99921 C44.4478277,14.9788291 44.0408321,14.5762962 44.0028777,14.0770547 L44.00079,13.9602584 L44.0387528,13.0256516 C44.0387528,11.9767641 43.1900595,11.085796 42.1494009,11.0058353 L41.9995004,10.9999999 L29.2819086,10.9597131 C29.1924982,10.9859341 29.0978917,11 29,11 C28.8999167,11 28.8032673,10.9852972 28.7120941,10.9579338 L18,10.922 L18,14 C18,15.3333333 16,15.3333333 16,14 L16,10.915 L9,10.892 L9,38 L23,38 C23.5128358,38 23.9355072,38.3860402 23.9932723,38.8833789 L24,39 C24,39.5128358 23.6139598,39.9355072 23.1166211,39.9932723 L23,40 L9,40 L9,42 C9,42.5522847 8.55228475,43 8,43 C7.44771525,43 7,42.5522847 7,42 L7,40 L4,40 C1.85780461,40 0.108921124,38.3160315 0.00489530723,36.1996403 L2.55795385e-13,36 L2.55795385e-13,13 C2.55795385e-13,10.7979952 1.77931291,9.01157113 3.53927459,9.10283878 L3.54975082,9.09379486 L3.56032845,9.08459738 C3.55896592,9.08541612 3.57260038,9.08226605 3.88750188,9.00836468 L4.00401977,8.98101887 L16.015,8.987 L16,6 C16,4.22071159 17.2117885,3 19,3 L27,3 Z M35.125,14 L38.875,14 C40.048886,14 40.9213114,14.7220891 40.9949555,15.9583579 L41,16.1301075 L40.999,18.023 L44.0074763,18.0292385 C46.2136923,18.0333621 48,19.8230117 48,22.0292316 L48,37 C48,39.209139 46.209139,41 44,41 L44,42 C44,43.3333333 42,43.3333333 42,42 L42,40.999 L31,40.999 L31,42 C31,43.3333333 29,43.3333333 29,42 L29.0002435,40.8740452 C27.2748927,40.4300871 26,38.8639271 26,37 L26,22.0030645 C26,19.7939255 27.790861,18.0030645 30,18.0030645 L30.0074763,18.0030645 L32.999,18.009 L33,16.1301075 C33,14.8475247 33.8213869,14.0696711 34.9668399,14.0044562 L35.125,14 L38.875,14 Z M30.0037381,20.003068 C28.8954305,20.003068 28,20.898495 28,22.003068 L28,37 C28,38.1045695 28.8954305,39 30,39 L44,39 C45.1045695,39 46,38.1045695 46,37 L46,22.0292316 C46,20.9261216 45.1068462,20.0312968 44.0037381,20.029235 L30.0037381,20.003068 Z M4.46512953,10.8776871 C4.45813316,10.883727 4.45100096,10.8898839 4.44373005,10.8961605 C4.44619814,10.8949535 4.44619814,10.8949535 4,11 C2.9456382,11 2.08183488,11.8158778 2.00548574,12.8507377 L2,13 L2,36 C2,37.0543618 2.81587779,37.9181651 3.85073766,37.9945143 L4,38 L7,38 L7,10.885 L4.46512953,10.8776871 Z M34.998156,16.0743121 L35,16.1301075 L34.999,18.012 L38.999,18.02 L39,16.1301075 C39,15.9771024 39.038978,15.9922427 38.9308765,15.9984184 L38.875,16 L35.125,16 C34.9710787,16 34.9908166,15.9657341 34.998156,16.0743121 Z M4.80188549,10.5821741 C4.78492502,10.5985843 4.76158803,10.6198481 4.72795441,10.6495891 L4.681,10.69 L4.71898579,10.6614841 L4.77563226,10.6164258 C4.78621802,10.6026924 4.79465796,10.5917428 4.80188549,10.5821741 Z M3.335109,9.27930175 C3.30393213,9.30413214 3.26831916,9.3324972 3.22763264,9.36490324 C3.21723753,9.37839955 3.20891489,9.38920509 3.20177799,9.39865371 C3.2273134,9.37396806 3.26729814,9.33830114 3.335109,9.27930175 Z M27,5 L19,5 C18.3196559,5 18,5.32200976 17.9999866,5.99482581 L18.015,8.988 L28,8.993 L28,6 C28,5.32200976 27.6803441,5 27,5 Z" id="Shape" fill="#323232" fill-rule="nonzero"></path>
                    <path d="M20.0359478,31 L13.9582585,31 C13.4274271,31 12.9971032,30.5720509 12.9971032,30.0441489 L12.9971032,20.9779256 C12.9971032,20.7244181 13.0983674,20.4812936 13.278619,20.3020368 L16.3174637,17.2799623 C16.6928182,16.9066792 17.3013881,16.9066792 17.6767426,17.2799623 L20.7155873,20.3020368 C20.8958389,20.4812936 20.9971032,20.7244181 20.9971032,20.9779256 L20.9971032,30.0441489 C20.9971032,30.5720509 20.5667792,31 20.0359478,31 Z" id="Shape" fill="#E40000" fill-rule="evenodd"></path>
                </g>
            </g>
        </g>
    </g>
</svg>