<?xml version="1.0" encoding="UTF-8"?>
<svg width="42px" height="41px" viewBox="0 0 42 41" version="1.1" xmlns="http://www.w3.org/2000/svg" xmlns:xlink="http://www.w3.org/1999/xlink">
    <!-- Generator: Sketch 63.1 (92452) - https://sketch.com -->
    <title>icon-support</title>
    <desc>Created with Sketch.</desc>
    <g id="Page-1" stroke="none" stroke-width="1" fill="none" fill-rule="evenodd">
        <g id="Contact-us---Desktop" transform="translate(-100.000000, -1217.000000)">
            <g id="icon-support" transform="translate(99.000000, 1215.000000)">
                <rect id="Bounds" fill-opacity="0" fill="#FFFFFF" x="0" y="0" width="44" height="44"></rect>
                <path d="M18.791575,42.167125 C20.0574917,42.167125 21.0832417,41.141375 21.0832417,39.8754583 C21.0832417,38.6095417 20.0574917,37.5837917 18.791575,37.5837917 C17.5256583,37.5837917 16.4999083,38.6095417 16.4999083,39.8754583 C16.4999083,41.141375 17.5256583,42.167125 18.791575,42.167125" id="Shape" fill="#E40000"></path>
                <path d="M22.0003639,2.75 C31.2431215,2.75 38.7950899,10.155315 39.3801127,19.5032235 C40.5223239,19.9170918 41.2866323,20.8319619 41.698087,22.1821914 C41.9889933,23.1368297 42.1054466,24.0554699 42.1470691,25.7417214 L42.1540207,26.0670853 L42.1648107,26.9862752 L42.1675833,27.9587917 C42.1675833,33.7948666 41.1675181,36.667125 37.8134167,36.667125 C34.6474906,36.667125 33.5785246,34.1060324 33.4688738,28.9098607 L33.4634369,28.5949276 L33.45925,27.9587917 C33.45925,25.2917924 33.5078872,23.9820163 33.7487368,22.8713053 L33.7798545,22.7334194 L33.8483458,22.4618578 L33.9287463,22.1821914 C34.4780114,20.3797234 35.6560795,19.3530879 37.5226545,19.2577565 C36.8306196,11.0302887 30.1395162,4.58333333 22.0003639,4.58333333 C13.8604749,4.58333333 7.16921314,11.0301654 6.47584093,19.2588936 C8.3444485,19.3527493 9.52281467,20.3794261 10.0721703,22.1821914 L10.1591079,22.4862271 C10.4435474,23.5528323 10.5240333,24.6809036 10.538894,26.9862752 L10.5416667,27.9587917 L10.5374798,28.5949276 C10.4860098,32.3989316 9.95236559,34.8455453 8.5162974,35.9620995 C8.90023493,36.4007276 9.36532538,36.7947322 9.91155037,37.1460237 C11.3294379,38.0574383 12.6095939,38.5004583 13.7499083,38.5004583 C14.2561693,38.5004583 14.666575,38.910864 14.666575,39.417125 C14.666575,39.923386 14.2561693,40.3337917 13.7499083,40.3337917 C12.2235922,40.3337917 10.6132757,39.7765138 8.92004732,38.6881109 C8.02293096,38.111152 7.28523768,37.4277855 6.71162787,36.6424009 C6.54480539,36.6586498 6.36962234,36.667125 6.1875,36.667125 C2.95825547,36.667125 1.9106881,34.0025642 1.83752022,28.5949276 L1.83333333,27.9587917 C1.83333333,24.9584175 1.89488988,23.6757789 2.22242909,22.4618578 L2.3028297,22.1821914 C2.71417528,20.8323198 3.47818759,19.9175769 4.61994363,19.5032646 C5.20424591,10.1556582 12.7565724,2.75 22.0003639,2.75 Z M37.5781117,21.0891435 L37.4716844,21.0973565 C35.69795,21.2477641 35.3082213,22.6936609 35.2930528,27.6447637 L35.2925833,27.9587917 L35.2967989,28.5887358 C35.3574765,32.9844016 36.0786498,34.8337917 37.8134167,34.8337917 C39.4255696,34.8337917 40.162013,33.238419 40.3070321,29.4865618 L40.3172575,29.185872 L40.3300376,28.5888693 L40.33425,27.9587917 C40.33425,24.2623159 40.1483912,22.4328096 39.3918883,21.6279624 C39.2532157,24.3470593 38.5228778,26.9588203 37.2671777,29.3052019 L37.0519318,29.6957369 L35.4573699,28.791036 C36.7758921,26.4671021 37.5104969,23.834947 37.5781117,21.0891435 Z M6.42180945,21.0899055 L6.416575,20.6720826 C6.416575,23.4554338 7.10118877,26.1331481 8.38408672,28.5043054 L8.59160885,28.8761218 L7.0026024,29.7905449 C5.5820121,27.3219643 4.75652721,24.5367677 4.6076887,21.6292601 C3.85238412,22.4342022 3.66666667,24.2637225 3.66666667,27.9587917 L3.67088222,28.5887358 L3.68367101,29.1856294 C3.78937407,32.7643002 4.39595132,34.4828829 5.72814409,34.7849345 C5.65422022,34.579405 5.58848502,34.3689743 5.53097891,34.1537626 C5.40028758,33.6646614 5.69083618,33.1622203 6.17993739,33.0315289 C6.6690386,32.9008376 7.17147974,33.1913862 7.30217108,33.6804874 C7.35871632,33.8921031 7.42544909,34.0973252 7.5024767,34.2962481 C8.30130295,33.4659501 8.66197972,31.6413419 8.70411778,28.5887358 L8.70833333,27.9587917 L8.70412251,27.0614739 C8.65799534,22.4860434 8.21339629,21.1876337 6.42180945,21.0899055 Z" id="Shape" fill="#323232" fill-rule="nonzero"></path>
                <path d="M37.8134167,21.0837917 C39.9203001,21.0837917 40.33425,22.4422095 40.33425,27.9587917 L40.3300375,28.5888693 L40.3172575,29.185872 C40.2001668,33.1533472 39.4679947,34.8337917 37.8134167,34.8337917 C36.0786498,34.8337917 35.3574765,32.9844016 35.2967989,28.5887358 L35.2925833,27.9587917 C35.2925833,22.546296 35.6910598,21.136533 37.6959586,21.0852613 L37.8134167,21.0837917 Z M6.3049581,21.0852613 C8.19418961,21.133575 8.65700846,22.3881527 8.70412251,27.0614739 L8.70412251,27.0614739 L8.70833333,27.9587917 L8.70411778,28.5887358 C8.64344018,32.9844016 7.92226682,34.8337917 6.1875,34.8337917 C4.53342,34.8337917 3.80083845,33.1524371 3.68367101,29.1856294 L3.68367101,29.1856294 L3.67088222,28.5887358 L3.66666667,27.9587917 C3.66666667,22.546296 4.06514315,21.136533 6.0700419,21.0852613 L6.0700419,21.0852613 L6.3049581,21.0852613 Z" id="Shape" fill="#8DE2E0" fill-rule="nonzero"></path>
            </g>
        </g>
    </g>
</svg>