<?xml version="1.0" encoding="UTF-8"?>
<svg width="48px" height="48px" viewBox="0 0 48 48" version="1.1" xmlns="http://www.w3.org/2000/svg" xmlns:xlink="http://www.w3.org/1999/xlink">
    <!-- Generator: Sketch 57.1 (83088) - https://sketch.com -->
    <title>icon-email</title>
    <desc>Created with Sketch.</desc>
    <g id="---Detailed" stroke="none" stroke-width="1" fill="none" fill-rule="evenodd">
        <g id="Communication-" transform="translate(-144.000000, -48.000000)">
            <g id="email" transform="translate(144.000000, 48.000000)">
                <g id="Icons-/-02-Detailed-/-Default-/-Email">
                    <rect id="Bounds" fill-opacity="0" fill="#FFFFFF" fill-rule="evenodd" x="0" y="0" width="48" height="48"></rect>
                    <polygon id="Shape" fill="#8DE2E0" fill-rule="evenodd" points="2.97777778 9 45.0222222 9 42.0888889 13 5.91111111 13"></polygon>
                    <path d="M32.6382,23.6162 L45.0002,11.3952 L45.0002,36.5122 L32.6382,23.6162 Z M16.7842,25.0222 L23.2972,31.4612 C23.6862,31.8462 24.3132,31.8462 24.7032,31.4612 L31.2162,25.0222 L43.6562,38.0002 L4.3442,38.0002 L16.7842,25.0222 Z M4.4342,10.0002 L43.5662,10.0002 L24.0002,29.3442 L4.4342,10.0002 Z M15.3622,23.6162 L3.0002,36.5122 L3.0002,11.3952 L15.3622,23.6162 Z M47.0002,9.0002 C47.0002,8.9702 46.9862,8.9462 46.9832,8.9182 C46.9752,8.8172 46.9622,8.7162 46.9232,8.6202 C46.8842,8.5252 46.8222,8.4452 46.7572,8.3672 C46.7392,8.3452 46.7322,8.3182 46.7112,8.2972 C46.7102,8.2962 46.7092,8.2962 46.7092,8.2952 C46.6172,8.2032 46.5072,8.1292 46.3852,8.0772 C46.2632,8.0272 46.1332,8.0012 46.0032,8.0002 C46.0022,8.0002 46.0012,8.0002 46.0002,8.0002 L2.0002,8.0002 C1.9992,8.0002 1.9982,8.0002 1.9972,8.0002 C1.8672,8.0012 1.7372,8.0272 1.6152,8.0772 C1.4932,8.1292 1.3832,8.2032 1.2912,8.2952 C1.2902,8.2962 1.2892,8.2962 1.2892,8.2972 C1.2682,8.3182 1.2612,8.3452 1.2422,8.3672 C1.1782,8.4452 1.1162,8.5252 1.0762,8.6202 C1.0372,8.7162 1.0252,8.8172 1.0162,8.9182 C1.0142,8.9462 1.0002,8.9702 1.0002,9.0002 L1.0002,39.0002 C1.0002,39.0042 1.0022,39.0072 1.0022,39.0112 C1.0032,39.1072 1.0302,39.2012 1.0592,39.2952 C1.0692,39.3262 1.0682,39.3622 1.0802,39.3922 C1.0932,39.4222 1.1192,39.4452 1.1352,39.4732 C1.1822,39.5592 1.2322,39.6442 1.3022,39.7132 C1.3052,39.7162 1.3052,39.7202 1.3082,39.7212 C1.3422,39.7552 1.3852,39.7672 1.4222,39.7942 C1.4882,39.8432 1.5512,39.8932 1.6282,39.9252 C1.7052,39.9562 1.7862,39.9622 1.8672,39.9722 C1.9122,39.9792 1.9522,40.0002 2.0002,40.0002 L46.0002,40.0002 C46.0472,40.0002 46.0882,39.9792 46.1332,39.9722 C46.2142,39.9622 46.2952,39.9562 46.3712,39.9252 C46.4492,39.8932 46.5122,39.8432 46.5772,39.7942 C46.6152,39.7672 46.6582,39.7552 46.6922,39.7212 C46.6952,39.7202 46.6952,39.7162 46.6982,39.7132 C46.7682,39.6442 46.8172,39.5592 46.8652,39.4732 C46.8802,39.4452 46.9072,39.4222 46.9192,39.3922 C46.9322,39.3622 46.9302,39.3262 46.9402,39.2952 C46.9702,39.2012 46.9972,39.1072 46.9982,39.0112 C46.9982,39.0072 47.0002,39.0042 47.0002,39.0002 L47.0002,9.0002 Z" id="Shape" fill="#323232" fill-rule="nonzero"></path>
                </g>
            </g>
        </g>
    </g>
</svg>