<svg xmlns="http://www.w3.org/2000/svg" width="83" height="79" viewBox="0 0 83 79">
    <defs>
        <radialGradient id="prefix__a" cx="29.095%" cy="12.214%" r="109.866%" fx="29.095%" fy="12.214%" gradientTransform="scale(.95122 1) rotate(67.617 .298 .133)">
            <stop offset="0%" stop-color="#025795"/>
            <stop offset="100%" stop-color="#014678"/>
        </radialGradient>
    </defs>
    <g fill="none" fill-rule="evenodd">
        <path fill="url(#prefix__a)" d="M16.793 25.073c9.85-14.105 25.045-15.85 45.585-5.237 30.81 15.921 39.816 48.517 16.348 62.362-23.467 13.844-44.95 10.566-59.498-4.302-11.43-14.634-12.242-32.242-2.435-52.823z" transform="translate(-10.94 -10.946) rotate(110 51 52)"/>
        <path fill="#FFF" fill-rule="nonzero" d="M53.151 57.985v9.014c0 1.334.749 2.203 2.044 2.203 1.275 0 2.044-.869 2.044-2.203v-9.014h2.509v9.055c0 2.728-1.841 4.426-4.553 4.426-2.712 0-4.553-1.698-4.553-4.426v-9.055h2.509zm13.295-.202c2.631 0 4.392 1.495 4.392 3.92v.284h-2.47v-.384c0-1.031-.748-1.739-1.922-1.739-1.153 0-1.8.627-1.8 1.476 0 .525.283 1.152 1.254 1.496l1.882.687c1.66.606 3.339 1.435 3.339 3.88 0 2.406-1.801 4.063-4.553 4.063-2.732 0-4.655-1.496-4.655-3.921V67.1h2.49v.546c0 1.071.789 1.718 2.104 1.718 1.396 0 2.145-.707 2.145-1.678 0-.828-.486-1.394-1.457-1.738l-2.024-.768c-1.861-.687-2.974-1.778-2.974-3.658 0-2.042 1.598-3.74 4.25-3.74zm-31.872.202c2.651 0 4.594 1.718 4.594 4.305 0 2.729-1.943 4.447-4.594 4.447h-2.105v4.527h-2.53v-13.28h4.635zm9.187 0V69h5.201v2.264h-7.73v-13.28h2.53zm-9.41 2.203H32.47v4.345h1.882c1.397 0 2.247-.848 2.247-2.182 0-1.314-.85-2.163-2.247-2.163zm.142-19.617c2.645 0 4.422 1.636 4.422 4.259v.315h-2.37v-.296c0-1.242-.77-2.07-2.092-2.07-1.263 0-2.033.848-2.033 2.15v4.633c0 1.3.77 2.149 2.033 2.149 1.323 0 2.093-.829 2.093-2.07v-.356h2.369v.375c0 2.622-1.777 4.259-4.422 4.259-2.685 0-4.54-1.656-4.54-4.318v-4.712c0-2.662 1.638-4.318 4.54-4.318zm18.378.197v8.794c0 1.3.73 2.149 1.993 2.149 1.244 0 1.994-.848 1.994-2.15v-8.793h2.448v8.833c0 2.662-1.796 4.318-4.442 4.318-2.645 0-4.441-1.656-4.441-4.318v-8.833h2.448zm-9.16 0v10.745h5.074v2.209h-7.541V40.768h2.467zm23.116 0c2.388 0 4.066 1.34 4.066 3.411 0 1.4-.67 2.366-1.875 2.859v.02c1.402.473 2.191 1.537 2.191 3.075 0 2.208-1.678 3.589-4.046 3.589h-5.054V40.768h4.718zm-.06 7.374h-2.21v3.588h2.191c1.224 0 1.934-.69 1.934-1.794 0-1.065-.73-1.794-1.914-1.794zm-.256-5.383h-1.954v3.352h1.974c1.145 0 1.855-.611 1.855-1.715 0-1.045-.73-1.637-1.875-1.637zM41.04 26.946c1.951 0 3.29 1.195 3.29 3.115v3.4c0 1.92-1.339 3.115-3.29 3.115-1.965 0-3.304-1.195-3.304-3.115v-3.4c0-1.92 1.182-3.115 3.304-3.115zm26.917 0c1.852 0 3.09 1.052 3.09 2.76v.198H69.31v-.27c0-.725-.527-1.223-1.353-1.223-.812 0-1.267.44-1.267 1.038 0 .37.2.811.883 1.053l1.324.483c1.168.427 2.35 1.01 2.35 2.732 0 1.692-1.267 2.859-3.204 2.859-1.923 0-3.276-1.053-3.276-2.76v-.313h1.752v.384c0 .754.555 1.21 1.48 1.21.984 0 1.51-.498 1.51-1.181 0-.583-.341-.982-1.025-1.224l-1.424-.54c-1.31-.484-2.094-1.252-2.094-2.575 0-1.436 1.126-2.631 2.991-2.631zm-34.65.142c1.866 0 3.233 1.209 3.233 3.03 0 1.92-1.367 3.13-3.233 3.13h-1.481v3.185h-1.78v-9.345h3.26zm14.626 0v9.345h-1.78v-9.345h1.78zm3.603 0l3.248 5.76v-5.76h1.623v9.345h-1.453l-3.318-5.903v5.903h-1.624v-9.345h1.524zm12.42 0v1.593h-2.237v7.752h-1.766v-7.752h-2.25v-1.593h6.252zm-22.916 1.45c-.968 0-1.524.612-1.524 1.551v3.343c0 .939.556 1.55 1.524 1.55.954 0 1.51-.611 1.51-1.55V30.09c0-.939-.556-1.55-1.51-1.55zm-7.89.1h-1.324v3.059h1.324c.983 0 1.581-.598 1.581-1.537 0-.924-.598-1.522-1.58-1.522z" transform="translate(-10.94 -10.946)"/>
    </g>
</svg>
