<svg width="50" height="36" xmlns="http://www.w3.org/2000/svg"><defs><linearGradient x1="63.358%" y1="99.626%" x2="14.731%" y2="-.283%" id="a"><stop stop-color="#BE0000" offset="0%"/><stop stop-color="#DE0000" offset="38.98%"/><stop stop-color="#F60000" offset="76.8%"/><stop stop-color="red" offset="100%"/></linearGradient><linearGradient x1="54.909%" y1="50%" x2="54.909%" y2="8.016%" id="b"><stop stop-color="#FFF" stop-opacity="0" offset="0%"/><stop stop-color="#E0E0E0" stop-opacity=".262" offset="51.203%"/><stop stop-color="#C5C5C5" stop-opacity=".549" offset="66.549%"/><stop stop-color="#B5B5B5" stop-opacity=".805" offset="82.415%"/><stop stop-color="#AFAFAF" offset="100%"/></linearGradient><linearGradient x1=".039%" y1="50.172%" x2="90.048%" y2="50.172%" id="c"><stop stop-color="#FFF" stop-opacity="0" offset="0%"/><stop stop-color="#F1F1F1" stop-opacity=".093" offset="8.391%"/><stop stop-color="#D4D4D4" stop-opacity=".325" offset="24.826%"/><stop stop-color="silver" stop-opacity=".555" offset="44.531%"/><stop stop-color="#B3B3B3" stop-opacity=".781" offset="70.32%"/><stop stop-color="#AFAFAF" offset="100%"/></linearGradient><linearGradient x1="24.956%" y1="49.876%" x2="99.854%" y2="49.876%" id="d"><stop stop-color="#FFF" stop-opacity="0" offset="0%"/><stop stop-color="#EDEDED" stop-opacity=".282" offset="28.583%"/><stop stop-color="#BDBDBD" stop-opacity=".848" offset="88.6%"/><stop stop-color="#AFAFAF" offset="100%"/></linearGradient></defs><g fill="none" fill-rule="evenodd"><path d="M13.416 35.69h36.098L20.576 6.223C16.726 2.318 11.49 0 6.046 0H0l.451 1.19 2.016 5.338 10.95 29.162z" fill="url(#a)"/><path d="M17.76 24.845c.061.43.397.798.825.86 6.083.952 11.983 3.472 17.119 7.62.03.031.06.031.122.031.03 0 .092-.03.122-.061a.188.188 0 0 0 0-.246 36.476 36.476 0 0 0-12.777-8.727l-1.498-.614a2.085 2.085 0 0 1-1.284-1.936c.092-3.196 7.611-2.55 8.376-4.087l.122-.277c-1.56-1.32-3.393-2.335-5.41-2.888-.031.092-.062.461.336 1.137.458.737-.49 1.905-1.865.645l-.122-.092C11.677 6.807 4.036 11.676 0 1.137L2.048 6.51c4.004 6.883 14.55 7.61 15.712 18.334z" fill="#FFF"/><path d="M23.808 14.642a.83.83 0 0 1 .026.798c-.126.25-.383.422-.724.422v2.513c1.1-.307 2.353-.522 3.393-.737v-1.414s-1.686.108-2.695-1.582z" fill="url(#b)" transform="translate(0 1)"/><path d="M19.808 24.92c5.625 1.075 11.096 3.534 15.865 7.375-10.668-9.126-15.498-7.498-15.865-7.375z" fill="url(#c)" transform="translate(0 1)"/><path d="M0 .154L2.048 5.53c4.004 6.883 14.55 7.62 15.712 18.344C16.568 10.171 10.607 12.2 4.188 5.992 2.538 4.793 1.13 3.072 0 .154z" fill="url(#d)" transform="translate(0 1)"/></g></svg>