<svg xmlns="http://www.w3.org/2000/svg" viewBox="0 0 114 30" width="114" height="30"><defs><linearGradient id="a" x1="63.381%" x2="14.732%" y1="99.643%" y2="-.386%"><stop offset="0%" stop-color="#BE0000"/><stop offset="39%" stop-color="#DE0000"/><stop offset="77%" stop-color="#F60000"/><stop offset="100%" stop-color="red"/></linearGradient><linearGradient id="b" x1="45.483%" x2="55.14%" y1="103.409%" y2="2.557%"><stop offset="65%" stop-color="#FFF" stop-opacity="0"/><stop offset="69%" stop-color="#EDEDED" stop-opacity=".23"/><stop offset="76%" stop-color="#D7D7D7" stop-opacity=".5"/><stop offset="81%" stop-color="#C6C6C6" stop-opacity=".72"/><stop offset="87%" stop-color="#B9B9B9" stop-opacity=".87"/><stop offset="91%" stop-color="#B2B2B2" stop-opacity=".97"/><stop offset="95%" stop-color="#AFAFAF"/></linearGradient><linearGradient id="c" x1="0%" y1="49.98%" y2="49.98%"><stop offset="0%" stop-color="#FFF" stop-opacity="0"/><stop offset="7%" stop-color="#F3F3F3" stop-opacity=".15"/><stop offset="21%" stop-color="#DEDEDE" stop-opacity=".41"/><stop offset="35%" stop-color="#CDCDCD" stop-opacity=".62"/><stop offset="49%" stop-color="silver" stop-opacity=".79"/><stop offset="63%" stop-color="#B7B7B7" stop-opacity=".91"/><stop offset="77%" stop-color="#B1B1B1" stop-opacity=".98"/><stop offset="90%" stop-color="#AFAFAF"/></linearGradient><linearGradient id="d" x1="0%" y1="50.045%" y2="50.045%"><stop offset="25%" stop-color="#FFF" stop-opacity="0"/><stop offset="36%" stop-color="#F7F7F7" stop-opacity=".11"/><stop offset="58%" stop-color="#E1E1E1" stop-opacity=".38"/><stop offset="88%" stop-color="#BEBEBE" stop-opacity=".82"/><stop offset="100%" stop-color="#AFAFAF"/></linearGradient></defs><g fill-rule="nonzero" fill="none"><path fill="url(#a)" d="M83.818 29.794h29.07L89.59 6C86.498 2.807 82.29.992 77.884.951h-4.873l.362.978 1.616 4.285 8.829 23.58z"/><path fill="#FFF" d="M74.99 6.206c3.18 5.537 11.538 6.12 12.447 14.725.032.357.3.644.648.695a28.541 28.541 0 0 1 13.575 6.111c.03.01.063.01.093 0a.124.124 0 0 0 .1 0 .148.148 0 0 0 0-.206 28.972 28.972 0 0 0-10.099-7.02l-1.178-.48a1.647 1.647 0 0 1-1.01-1.568c.067-2.572 6.043-2.049 6.649-3.283l.101-.214a11.154 11.154 0 0 0-4.3-2.323c-.018.327.08.649.277.908.354.583-.387 1.526-1.473.515l-.092-.086c-8.072-7.534-14.123-3.626-17.321-12.077l1.582 4.303z"/><path fill="url(#b)" d="M94.397 14.82a2.518 2.518 0 0 1-2.138-1.277c.119.2.119.451 0 .652a.62.62 0 0 1-.564.308v2.057c.842-.266 1.869-.42 2.702-.6v-1.14z"/><path fill="url(#c)" d="M89.086 21.806c4.604.904 8.92 2.94 12.574 5.931-8.45-7.354-12.304-6.026-12.574-5.931z"/><path fill="url(#d)" d="M76.69 6.591a9.681 9.681 0 0 1-3.317-4.697L74.99 6.18c3.181 5.537 11.53 6.12 12.448 14.726C86.51 9.943 81.78 11.589 76.689 6.59z"/><g fill="#323232"><path d="M1.111 7.08v4.689H0V.926h5.462v1.14H1.111v3.891h3.99V7.08zM13.668 11.769l-1.683-4.286a3.397 3.397 0 0 1-.396 0H9.84v4.286H8.736V.926h2.937c.861-.052 1.703.27 2.317.886.615.616.944 1.468.907 2.345a3.119 3.119 0 0 1-1.776 3.017l1.759 4.595h-1.212zM9.838 2.03v4.372h1.751a2.025 2.025 0 0 0 1.584-.612c.416-.427.63-1.016.588-1.617a2.052 2.052 0 0 0-.604-1.578 1.973 1.973 0 0 0-1.568-.565H9.84zM19.299 6.78v3.849h4.469v1.14h-5.58V.926h5.462v1.14h-4.351v3.591h3.989V6.78zM33.017 8.469a3.387 3.387 0 0 1-1.54 3.068l1.481 2.426h-1.355l-1.237-2.083c-.163.035-.33.052-.497.051-1.86 0-3.139-1.337-3.139-3.428V4.226c0-2.135 1.22-3.472 3.14-3.472 1.918 0 3.147 1.337 3.147 3.472v4.243zm-5.184 0c-.087.794.28 1.57.945 1.995.665.425 1.51.425 2.175 0a2.096 2.096 0 0 0 .945-1.995V4.183a2.096 2.096 0 0 0-.945-1.995 2.014 2.014 0 0 0-2.175 0 2.096 2.096 0 0 0-.945 1.995v4.286zM42.36.926v7.543c0 2.125-1.255 3.428-3.09 3.428-1.834 0-3.08-1.303-3.08-3.428V.926h1.103v7.577c-.086.772.27 1.526.916 1.94a1.956 1.956 0 0 0 2.114 0 2.036 2.036 0 0 0 .917-1.94V.926h1.12zM47.123 6.78v3.849h4.469v1.14H46.02V.926h5.462v1.14h-4.36v3.591h3.99V6.78zM61.027 11.769h-.918l-4.15-8.383v8.383h-1.034V.926h.993L59.99 9.17V.926h1.036zM63.854.926h6.153v1.14h-2.525v9.703h-1.103V2.066h-2.525zM30.618 25.08v4.689h-1.11V18.926h5.462v1.131h-4.352v3.9h3.99v1.123zM39.346 28.629h4.183v1.14h-5.285V18.926h1.102zM45.936 18.926l2.155 5.28 2.171-5.28h1.12l-2.77 6.497v4.346H47.51V25.44l-2.769-6.514zM55.59 24.78v3.849h4.469v1.14h-5.58V18.926h5.462v1.131H55.59v3.6h3.989v1.123zM68.332 29.769l-1.683-4.286a3.306 3.306 0 0 1-.388 0h-1.767v4.286h-1.103V18.926h2.946c1.499.007 2.797 1.06 3.14 2.546.341 1.486-.362 3.017-1.7 3.702l1.758 4.595h-1.203zm-3.838-9.738v4.372h1.75a2.025 2.025 0 0 0 1.584-.612c.416-.427.63-1.016.588-1.617a2.052 2.052 0 0 0-.603-1.578 1.973 1.973 0 0 0-1.568-.565h-1.751z"/></g></g></svg>