<svg width="46" height="44" xmlns="http://www.w3.org/2000/svg"><g fill="none" fill-rule="evenodd"><path fill="none" d="M-1-2h48v48H-1z"/><path d="M3.479 26.368l-1.291 4.377a1.438 1.438 0 00.85 1.74l4.316 1.744.78 4.5c.123.719.772 1.217 1.484 1.194l4.701-.256 2.708 3.734c.426.592 1.23.768 1.868.424L23 41.6l4.1 2.224a1.451 1.451 0 001.873-.426l2.705-3.731 4.679.256c.74.017 1.385-.475 1.508-1.195l.78-4.498 4.32-1.744a1.436 1.436 0 00.845-1.739l-1.29-4.378 3.104-3.403a1.43 1.43 0 00-.002-1.935l-3.102-3.4 1.29-4.377a1.434 1.434 0 00-.848-1.739l-4.316-1.744-.78-4.499A1.449 1.449 0 0036.34 4.08l-4.661.253L28.971.598a1.454 1.454 0 00-1.869-.422L23 2.399 18.898.176a1.454 1.454 0 00-1.874.429L14.32 4.333l-4.68-.255c-.716-.053-1.379.466-1.506 1.19l-.78 4.501-4.32 1.746a1.439 1.439 0 00-.847 1.733l1.292 4.383-3.104 3.402c-.5.549-.5 1.384 0 1.933l3.104 3.402zm2.237-.515L2.201 22l3.515-3.854-1.464-4.966 4.883-1.973.885-5.106 5.28.288 3.065-4.227L23 4.674l4.635-2.512 3.064 4.227 5.28-.287.886 5.106 4.881 1.973-1.463 4.966L43.798 22l-3.515 3.854 1.463 4.967-4.882 1.971-.885 5.108-5.28-.29-3.065 4.228L23 39.325l-4.636 2.513-3.065-4.228-5.28.288-.885-5.107-4.883-1.972 1.465-4.966z" fill="#323232" fill-rule="nonzero"/><path d="M28.656 17.952h-2.828v-.476c0-1.596-1.036-2.744-2.772-2.744-1.764 0-2.744 1.008-2.744 2.38 0 .924.532 1.848 1.652 2.296l3.017 1.24c1.973.833 4.039 2.055 4.039 5.144 0 2.996-1.932 5.068-4.9 5.432v2.8h-2.184v-2.856c-2.884-.392-4.76-2.296-4.76-5.152v-.532h2.828v.644c0 1.652 1.148 2.744 3.08 2.744 1.988 0 3.108-1.176 3.108-2.772 0-1.512-.924-2.268-2.24-2.828l-2.604-1.064c-2.212-.896-3.836-2.352-3.836-4.9 0-2.492 1.708-4.452 4.424-4.9V9.58h2.184v2.828c2.716.392 4.536 2.324 4.536 5.18v.364z" fill="#E40000" fill-rule="nonzero"/></g></svg>