<?xml version="1.0" encoding="UTF-8"?>
<svg width="24px" height="24px" viewBox="0 0 24 24" version="1.1" xmlns="http://www.w3.org/2000/svg" xmlns:xlink="http://www.w3.org/1999/xlink">
    <title>icon/heart-strike</title>
    <g id="icon/heart-strike" stroke="none" stroke-width="1" fill="none" fill-rule="evenodd">
        <path d="M21.218116,2.16955032 L22.6323296,3.58376388 L20.9680433,5.24853215 C21.6194276,6.1525974 22,7.27021546 22,8.49162598 C22,12.271626 18.6,15.351626 13.45,20.021626 L13.45,20.021626 L12,21.341626 L10.55,20.031626 C9.74508675,19.3001708 8.98292208,18.6078001 8.26980555,17.9457326 L5.66176681,20.5543266 L4.24755325,19.1401131 L6.81843872,16.5695858 C3.82188354,13.6505768 2,11.2586482 2,8.49162598 C2,5.41162598 4.42,2.99162598 7.5,2.99162598 C9.24,2.99162598 10.91,3.80162598 12,5.08162598 C13.09,3.80162598 14.76,2.99162598 16.5,2.99162598 C17.6221073,2.99162598 18.6566132,3.31283129 19.5184109,3.87013523 L21.218116,2.16955032 Z M19.5311723,6.6851078 L9.68880895,16.5261087 C10.3775042,17.1628782 11.1168246,17.8324903 11.9,18.541626 L11.9,18.541626 L12,18.641626 L12.1,18.541626 C16.86,14.231626 20,11.381626 20,8.49162598 C20,7.82057334 19.8311331,7.20580967 19.5311723,6.6851078 Z M16.5,4.99162598 C14.96,4.99162598 13.46,5.98162598 12.94,7.35162598 L12.94,7.35162598 L11.07,7.35162598 C10.54,5.98162598 9.04,4.99162598 7.5,4.99162598 C5.5,4.99162598 4,6.49162598 4,8.49162598 C4,10.5511274 5.5946235,12.5903152 8.23377721,15.1520445 L18.056838,5.33013061 C17.5931944,5.11204264 17.0666667,4.99162598 16.5,4.99162598 Z" id="Combined-Shape" fill="#000000" fill-rule="nonzero"></path>
        <rect id="Rectangle" x="0" y="0" width="24" height="24"></rect>
    </g>
</svg>