<svg xmlns="http://www.w3.org/2000/svg" width="24" height="24" viewBox="0 0 24 24"><path d="M15.9 13.2L21.9 19.2 19.8 21.3 13.8 15.3 15.9 13.2ZM7.8 3.6C8.9 2.4 10.8 2.4 12 3.6L12 3.6 9.9 5.7 11.3 7.1 10.6 7.8 12.4 9.6 14.2 7.8C14.1 7.4 14 7 14 6.6 14 4.7 15.6 3.1 17.5 3.1 18.1 3.1 18.6 3.3 19.1 3.5L19.1 3.5 16.4 6.2 17.9 7.7 20.6 5C20.8 5.5 21 6 21 6.6 21 8.5 19.4 10.1 17.5 10.1 17.1 10.1 16.7 10 16.3 9.9L16.3 9.9 5 21.3 2.8 19.1 10.2 11.7 8.5 10 7.8 10.7 6.3 9.3 6.3 12.1 5.6 12.8 2.1 9.3 2.8 8.5 5.6 8.5 4.2 7.1Z"/></svg>
